<?xml version="1.0" encoding="UTF-8" standalone="no"?>
<svg
   id="Ebene_2"
   viewBox="0 0 993.93 845.39"
   version="1.1"
   sodipodi:docname="Bewegung.svg"
   width="993.92999"
   height="845.39001"
   inkscape:version="1.4 (e7c3feb1, 2024-10-09)"
   xmlns:inkscape="http://www.inkscape.org/namespaces/inkscape"
   xmlns:sodipodi="http://sodipodi.sourceforge.net/DTD/sodipodi-0.dtd"
   xmlns="http://www.w3.org/2000/svg"
   xmlns:svg="http://www.w3.org/2000/svg">
  <sodipodi:namedview
     id="namedview16"
     pagecolor="#ffffff"
     bordercolor="#000000"
     borderopacity="0.25"
     inkscape:showpageshadow="2"
     inkscape:pageopacity="0.0"
     inkscape:pagecheckerboard="0"
     inkscape:deskcolor="#d1d1d1"
     inkscape:zoom="0.030755036"
     inkscape:cx="503.98251"
     inkscape:cy="422.69501"
     inkscape:window-width="1104"
     inkscape:window-height="245"
     inkscape:window-x="0"
     inkscape:window-y="1038"
     inkscape:window-maximized="0"
     inkscape:current-layer="Ebene_2" />
  <defs
     id="defs1">
    <style
       id="style1">
      .cls-1 {
        fill: #f1b7a8;
      }

      .cls-2 {
        fill: #feeadc;
      }

      .cls-3 {
        fill: #f0825d;
      }
    </style>
  </defs>
  <g
     id="Ebene_1-2"
     data-name="Ebene_1">
    <g
       id="g16">
      <rect
         class="cls-2"
         x="0"
         width="993.92999"
         height="845.39001"
         rx="95.410004"
         ry="95.410004"
         id="rect1"
         y="0" />
      <g
         id="g8">
        <path
           class="cls-3"
           d="m 189.12,751.17 c -2.81,0 -4.97,-0.76 -6.48,-2.27 -1.51,-1.51 -2.27,-3.67 -2.27,-6.48 v -58.64 c 0,-2.81 0.76,-4.97 2.27,-6.48 1.51,-1.51 3.67,-2.27 6.48,-2.27 h 26.14 c 5.4,0 10.01,0.79 13.82,2.38 3.82,1.58 6.71,3.85 8.69,6.8 1.98,2.95 2.97,6.48 2.97,10.58 0,4.54 -1.3,8.39 -3.89,11.56 -2.59,3.17 -6.16,5.29 -10.69,6.37 v -1.73 c 5.25,0.94 9.34,3.01 12.26,6.21 2.92,3.2 4.37,7.36 4.37,12.47 0,6.77 -2.34,12.04 -7.02,15.82 -4.68,3.78 -11.12,5.67 -19.33,5.67 h -27.32 z m 7.23,-44.82 h 15.98 c 4.17,0 7.27,-0.79 9.29,-2.38 2.01,-1.58 3.02,-3.96 3.02,-7.13 0,-3.17 -1.01,-5.44 -3.02,-7.02 -2.02,-1.58 -5.11,-2.38 -9.29,-2.38 h -15.98 v 18.9 z m 0,32.4 h 17.82 c 4.32,0 7.49,-0.85 9.5,-2.54 2.01,-1.69 3.02,-4.19 3.02,-7.51 0,-3.32 -1.01,-5.79 -3.02,-7.45 -2.02,-1.66 -5.18,-2.48 -9.5,-2.48 h -17.82 z"
           id="path1" />
        <path
           class="cls-3"
           d="m 264.18,751.17 c -2.81,0 -4.97,-0.76 -6.48,-2.27 -1.51,-1.51 -2.27,-3.67 -2.27,-6.48 v -58.64 c 0,-2.81 0.76,-4.97 2.27,-6.48 1.51,-1.51 3.67,-2.27 6.48,-2.27 h 37.69 c 2.16,0 3.8,0.56 4.91,1.67 1.12,1.12 1.67,2.72 1.67,4.81 0,2.09 -0.56,3.8 -1.67,4.91 -1.11,1.11 -2.75,1.67 -4.91,1.67 h -30.46 v 17.82 h 27.97 c 2.23,0 3.9,0.56 5.02,1.67 1.12,1.12 1.67,2.75 1.67,4.91 0,2.16 -0.56,3.8 -1.67,4.91 -1.12,1.12 -2.79,1.67 -5.02,1.67 h -27.97 v 19.01 h 30.46 c 2.16,0 3.8,0.56 4.91,1.67 1.12,1.12 1.67,2.72 1.67,4.81 0,2.09 -0.56,3.8 -1.67,4.91 -1.12,1.12 -2.75,1.67 -4.91,1.67 h -37.69 z"
           id="path2" />
        <path
           class="cls-3"
           d="m 348.95,752.14 c -2.3,0 -4.18,-0.56 -5.62,-1.67 -1.44,-1.12 -2.59,-2.82 -3.46,-5.13 L 318.05,684 c -0.94,-2.74 -0.74,-5.08 0.59,-7.02 1.33,-1.94 3.65,-2.92 6.97,-2.92 2.3,0 4.09,0.54 5.35,1.62 1.26,1.08 2.28,2.77 3.08,5.08 l 17.82,53.03 h -4.64 l 18.79,-52.92 c 0.86,-2.3 1.93,-4.01 3.19,-5.13 1.26,-1.12 2.93,-1.67 5.02,-1.67 2.09,0 3.63,0.56 4.86,1.67 1.22,1.12 2.27,2.86 3.13,5.24 l 17.93,52.81 h -4 l 18.14,-53.03 c 0.72,-2.23 1.73,-3.9 3.02,-5.02 1.3,-1.12 3.06,-1.67 5.29,-1.67 2.81,0 4.86,0.97 6.16,2.92 1.3,1.94 1.44,4.28 0.43,7.02 l -22.03,61.45 c -0.79,2.23 -1.87,3.91 -3.24,5.02 -1.37,1.12 -3.24,1.67 -5.62,1.67 -2.38,0 -4.14,-0.56 -5.51,-1.67 -1.37,-1.12 -2.48,-2.82 -3.35,-5.13 l -17.06,-48.28 h 2.59 l -17.28,48.38 c -0.86,2.23 -1.96,3.91 -3.29,5.02 -1.33,1.12 -3.15,1.67 -5.45,1.67 z"
           id="path3" />
        <path
           class="cls-3"
           d="m 450.47,751.17 c -2.81,0 -4.97,-0.76 -6.48,-2.27 -1.51,-1.51 -2.27,-3.67 -2.27,-6.48 v -58.64 c 0,-2.81 0.76,-4.97 2.27,-6.48 1.51,-1.51 3.67,-2.27 6.48,-2.27 h 37.69 c 2.16,0 3.8,0.56 4.91,1.67 1.12,1.12 1.67,2.72 1.67,4.81 0,2.09 -0.56,3.8 -1.67,4.91 -1.12,1.12 -2.75,1.67 -4.91,1.67 H 457.7 v 17.82 h 27.97 c 2.23,0 3.91,0.56 5.02,1.67 1.12,1.12 1.67,2.75 1.67,4.91 0,2.16 -0.56,3.8 -1.67,4.91 -1.12,1.12 -2.79,1.67 -5.02,1.67 H 457.7 v 19.01 h 30.46 c 2.16,0 3.8,0.56 4.91,1.67 1.12,1.12 1.67,2.72 1.67,4.81 0,2.09 -0.56,3.8 -1.67,4.91 -1.11,1.11 -2.75,1.67 -4.91,1.67 h -37.69 z"
           id="path4" />
        <path
           class="cls-3"
           d="m 544.76,752.36 c -8.57,0 -15.82,-1.62 -21.76,-4.86 -5.94,-3.24 -10.46,-7.78 -13.55,-13.61 -3.1,-5.83 -4.64,-12.67 -4.64,-20.52 0,-6.05 0.92,-11.5 2.75,-16.36 1.83,-4.86 4.5,-9 7.99,-12.42 3.49,-3.42 7.74,-6.06 12.74,-7.94 5,-1.87 10.67,-2.81 17.01,-2.81 3.89,0 7.78,0.43 11.66,1.3 3.89,0.86 7.63,2.31 11.23,4.32 1.51,0.86 2.54,1.96 3.08,3.29 0.54,1.33 0.68,2.74 0.43,4.21 -0.25,1.48 -0.83,2.77 -1.73,3.89 -0.9,1.12 -2.05,1.84 -3.46,2.16 -1.4,0.32 -3.01,0.05 -4.81,-0.81 -2.38,-1.3 -4.9,-2.25 -7.56,-2.86 -2.66,-0.61 -5.58,-0.92 -8.75,-0.92 -5.11,0 -9.4,0.96 -12.85,2.86 -3.46,1.91 -6.03,4.72 -7.72,8.42 -1.69,3.71 -2.54,8.26 -2.54,13.66 0,8.14 1.96,14.29 5.89,18.47 3.92,4.18 9.74,6.26 17.44,6.26 2.59,0 5.25,-0.25 7.99,-0.76 2.74,-0.5 5.44,-1.22 8.1,-2.16 l -3.13,6.8 v -20.74 h -9.72 c -2.16,0 -3.82,-0.54 -4.97,-1.62 -1.15,-1.08 -1.73,-2.55 -1.73,-4.43 0,-1.88 0.58,-3.44 1.73,-4.48 1.15,-1.04 2.81,-1.57 4.97,-1.57 h 16.96 c 2.16,0 3.8,0.58 4.91,1.73 1.12,1.15 1.67,2.81 1.67,4.97 v 25.06 c 0,1.87 -0.36,3.46 -1.08,4.75 -0.72,1.3 -1.94,2.23 -3.67,2.81 -3.24,1.15 -6.88,2.09 -10.91,2.81 -4.03,0.72 -8.03,1.08 -11.99,1.08 z"
           id="path5" />
        <path
           class="cls-3"
           d="m 619.82,752.36 c -5.4,0 -10.17,-0.7 -14.31,-2.11 -4.14,-1.4 -7.61,-3.47 -10.42,-6.21 -2.81,-2.74 -4.91,-6.17 -6.32,-10.31 -1.4,-4.14 -2.11,-8.95 -2.11,-14.42 v -36.72 c 0,-2.81 0.72,-4.93 2.16,-6.37 1.44,-1.44 3.53,-2.16 6.26,-2.16 2.73,0 4.71,0.72 6.16,2.16 1.44,1.44 2.16,3.56 2.16,6.37 v 36.83 c 0,6.19 1.4,10.85 4.21,13.99 2.81,3.13 6.88,4.7 12.2,4.7 5.32,0 9.38,-1.57 12.15,-4.7 2.77,-3.13 4.16,-7.79 4.16,-13.99 v -36.83 c 0,-2.81 0.72,-4.93 2.16,-6.37 1.44,-1.44 3.49,-2.16 6.16,-2.16 2.67,0 4.7,0.72 6.1,2.16 1.4,1.44 2.11,3.56 2.11,6.37 v 36.72 c 0,7.27 -1.24,13.38 -3.73,18.31 -2.48,4.93 -6.16,8.62 -11.02,11.07 -4.86,2.45 -10.89,3.67 -18.09,3.67 z"
           id="path6" />
        <path
           class="cls-3"
           d="m 675.22,752.14 c -2.52,0 -4.45,-0.7 -5.78,-2.11 -1.33,-1.4 -2,-3.4 -2,-5.99 v -61.56 c 0,-2.74 0.66,-4.82 2,-6.26 1.33,-1.44 3.11,-2.16 5.35,-2.16 1.94,0 3.44,0.38 4.48,1.13 1.04,0.76 2.25,2 3.62,3.73 l 37.91,48.28 h -2.92 v -45.14 c 0,-2.52 0.67,-4.48 2,-5.89 1.33,-1.4 3.26,-2.11 5.78,-2.11 2.52,0 4.44,0.7 5.78,2.11 1.33,1.4 2,3.37 2,5.89 v 62.32 c 0,2.38 -0.61,4.27 -1.84,5.67 -1.22,1.4 -2.88,2.11 -4.97,2.11 -2.09,0 -3.62,-0.4 -4.81,-1.19 -1.19,-0.79 -2.47,-2.05 -3.83,-3.78 l -37.8,-48.28 H 683 v 45.14 c 0,2.59 -0.65,4.59 -1.94,5.99 -1.3,1.4 -3.24,2.11 -5.83,2.11 z"
           id="path7" />
        <path
           class="cls-3"
           d="m 786.46,752.36 c -8.57,0 -15.82,-1.62 -21.76,-4.86 -5.94,-3.24 -10.46,-7.78 -13.55,-13.61 -3.1,-5.83 -4.64,-12.67 -4.64,-20.52 0,-6.05 0.92,-11.5 2.75,-16.36 1.83,-4.86 4.5,-9 7.99,-12.42 3.49,-3.42 7.74,-6.06 12.74,-7.94 5,-1.87 10.67,-2.81 17.01,-2.81 3.89,0 7.78,0.43 11.66,1.3 3.89,0.86 7.63,2.31 11.23,4.32 1.51,0.86 2.54,1.96 3.08,3.29 0.54,1.33 0.68,2.74 0.43,4.21 -0.25,1.48 -0.83,2.77 -1.73,3.89 -0.9,1.12 -2.05,1.84 -3.46,2.16 -1.4,0.32 -3.01,0.05 -4.81,-0.81 -2.38,-1.3 -4.9,-2.25 -7.56,-2.86 -2.66,-0.61 -5.58,-0.92 -8.75,-0.92 -5.11,0 -9.4,0.96 -12.85,2.86 -3.46,1.91 -6.03,4.72 -7.72,8.42 -1.69,3.71 -2.54,8.26 -2.54,13.66 0,8.14 1.96,14.29 5.89,18.47 3.92,4.18 9.74,6.26 17.44,6.26 2.59,0 5.25,-0.25 7.99,-0.76 2.74,-0.5 5.44,-1.22 8.1,-2.16 l -3.13,6.8 v -20.74 h -9.72 c -2.16,0 -3.82,-0.54 -4.97,-1.62 -1.15,-1.08 -1.73,-2.55 -1.73,-4.43 0,-1.88 0.58,-3.44 1.73,-4.48 1.15,-1.04 2.81,-1.57 4.97,-1.57 h 16.96 c 2.16,0 3.8,0.58 4.91,1.73 1.12,1.15 1.67,2.81 1.67,4.97 v 25.06 c 0,1.87 -0.36,3.46 -1.08,4.75 -0.72,1.3 -1.94,2.23 -3.67,2.81 -3.24,1.15 -6.88,2.09 -10.91,2.81 -4.03,0.72 -8.03,1.08 -11.99,1.08 z"
           id="path8" />
      </g>
      <g
         id="g15">
        <g
           id="g11">
          <circle
             class="cls-1"
             cx="611.01001"
             cy="239.57001"
             r="41.130001"
             id="circle8" />
          <path
             class="cls-1"
             d="M 679.1,373.1 564.88,362.95 c -6.04,-0.54 -11.8,-2.81 -16.59,-6.54 l -93.53,-72.95 c -13.72,-10.7 -16.16,-30.49 -5.47,-44.21 10.7,-13.72 30.49,-16.16 44.21,-5.47 l 86.2,67.23 104.97,9.33 c 17.33,1.54 30.13,16.84 28.59,34.16 -1.54,17.32 -16.84,30.13 -34.16,28.59 z"
             id="path9" />
          <path
             class="cls-1"
             d="m 410.44,476.05 c -16.97,-1.51 -29.73,-16.29 -28.63,-33.39 1.11,-17.36 16.09,-30.53 33.45,-29.42 l 78.83,5.05 44.85,-99.64 c 7.14,-15.86 25.79,-22.94 41.65,-15.8 15.86,7.14 22.94,25.79 15.8,41.65 l -53.81,119.54 c -5.39,11.97 -17.64,19.35 -30.74,18.51 L 411.23,476.1 c -0.26,-0.02 -0.53,-0.04 -0.79,-0.06 z"
             id="path10" />
          <path
             class="cls-1"
             d="m 596.52,565.2 c -17.07,-1.52 -29.84,-16.44 -28.62,-33.6 l 5.85,-82.52 -39.95,-42.76 c -11.88,-12.71 -11.2,-32.65 1.51,-44.52 12.71,-11.88 32.65,-11.2 44.52,1.51 l 49.33,52.8 c 5.98,6.4 9.02,15 8.4,23.73 l -6.82,96.22 c -1.23,17.35 -16.29,30.42 -33.65,29.19 -0.19,-0.01 -0.38,-0.03 -0.57,-0.05 z"
             id="path11" />
        </g>
        <g
           id="g14">
          <circle
             class="cls-3"
             cx="398.17001"
             cy="226.66"
             r="41.130001"
             id="circle11" />
          <path
             class="cls-3"
             d="m 395.53,359.83 c -2.6,0 -5.19,-0.32 -7.73,-0.96 L 272.82,329.74 c -16.86,-4.27 -27.07,-21.41 -22.8,-38.27 4.27,-16.86 21.41,-27.07 38.27,-22.8 l 105.97,26.84 99.84,-33.72 c 16.48,-5.57 34.36,3.28 39.92,19.77 5.57,16.48 -3.28,34.36 -19.77,39.92 l -108.64,36.69 c -3.26,1.1 -6.67,1.66 -10.08,1.66 z"
             id="path12" />
          <path
             class="cls-3"
             d="m 299.7,525.53 c -12.85,0 -24.92,-7.93 -29.59,-20.7 -5.97,-16.34 2.44,-34.43 18.78,-40.4 l 74.2,-27.11 0.94,-109.26 c 0.15,-17.3 14.22,-31.23 31.49,-31.23 0.09,0 0.18,0 0.28,0 17.4,0.15 31.38,14.38 31.23,31.77 l -1.13,131.09 c -0.11,13.13 -8.36,24.81 -20.69,29.32 l -94.7,34.6 c -3.57,1.3 -7.22,1.92 -10.81,1.92 z"
             id="path13" />
          <path
             class="cls-3"
             d="m 505.92,532.23 c -12.93,0 -25.05,-8.02 -29.66,-20.9 l -27.87,-77.9 -53.79,-23.06 c -15.99,-6.86 -23.39,-25.38 -16.54,-41.36 6.86,-15.99 25.38,-23.39 41.36,-16.54 l 66.41,28.47 c 8.05,3.45 14.3,10.1 17.25,18.34 l 32.49,90.82 c 5.86,16.38 -2.67,34.41 -19.05,40.27 -3.51,1.25 -7.09,1.85 -10.61,1.85 z"
             id="path14" />
        </g>
      </g>
    </g>
  </g>
</svg>
