<?xml version="1.0" encoding="UTF-8"?>
<svg id="Ebene_2" xmlns="http://www.w3.org/2000/svg" viewBox="0 0 993.93 845.39">
  <defs>
    <style>
      .cls-1 {
        fill: #f1b7a8;
      }

      .cls-2 {
        fill: #feeadc;
      }

      .cls-3 {
        fill: #f0825d;
      }
    </style>
  </defs>
  <g id="Ebene_1-2" data-name="Ebene_1">
    <g>
      <rect class="cls-2" y="0" width="993.93" height="845.39" rx="95.41" ry="95.41"/>
      <g>
        <path class="cls-3" d="M150.45,752.56c-2.81,0-4.97-.76-6.48-2.27-1.51-1.51-2.27-3.67-2.27-6.48v-58.64c0-2.81.76-4.97,2.27-6.48s3.67-2.27,6.48-2.27h21.06c13.03,0,23.09,3.29,30.19,9.88,7.09,6.59,10.64,15.97,10.64,28.13,0,6.12-.92,11.54-2.75,16.25-1.84,4.72-4.48,8.69-7.94,11.93-3.46,3.24-7.71,5.71-12.74,7.4-5.04,1.69-10.84,2.54-17.39,2.54h-21.06ZM158.44,738.84h12.1c4.1,0,7.67-.5,10.69-1.51,3.02-1.01,5.54-2.52,7.56-4.54,2.01-2.01,3.53-4.55,4.54-7.61,1.01-3.06,1.51-6.64,1.51-10.75,0-8.21-2.04-14.31-6.1-18.31-4.07-4-10.13-5.99-18.2-5.99h-12.1v48.71Z"/>
        <path class="cls-3" d="M233.72,753.53c-2.74,0-4.82-.76-6.26-2.27-1.44-1.51-2.16-3.63-2.16-6.37v-60.8c0-2.74.72-4.86,2.16-6.37,1.44-1.51,3.53-2.27,6.26-2.27s4.71.76,6.16,2.27c1.44,1.51,2.16,3.64,2.16,6.37v60.8c0,2.74-.7,4.86-2.11,6.37-1.4,1.51-3.47,2.27-6.21,2.27Z"/>
        <path class="cls-3" d="M284.59,753.75c-3.02,0-6.1-.23-9.23-.7-3.13-.47-6.12-1.13-8.96-2-2.85-.86-5.38-1.94-7.61-3.24-1.58-.86-2.7-2-3.35-3.4-.65-1.4-.88-2.82-.7-4.27.18-1.44.72-2.72,1.62-3.83.9-1.12,2.05-1.84,3.46-2.16,1.4-.32,2.97-.05,4.7.81,2.95,1.66,6.17,2.88,9.67,3.67,3.49.79,6.97,1.19,10.42,1.19,5.25,0,9-.81,11.23-2.43,2.23-1.62,3.35-3.65,3.35-6.1,0-2.09-.79-3.74-2.38-4.97-1.58-1.22-4.36-2.27-8.32-3.13l-12.2-2.59c-6.91-1.44-12.04-3.9-15.39-7.4-3.35-3.49-5.02-8.08-5.02-13.77,0-3.6.76-6.88,2.27-9.83,1.51-2.95,3.63-5.51,6.37-7.67,2.74-2.16,5.99-3.82,9.77-4.97,3.78-1.15,7.94-1.73,12.47-1.73,4.03,0,7.99.49,11.88,1.46,3.89.97,7.31,2.39,10.26,4.27,1.44.86,2.43,1.96,2.97,3.29.54,1.33.72,2.66.54,4-.18,1.33-.72,2.5-1.62,3.51-.9,1.01-2.04,1.66-3.4,1.94-1.37.29-3.02-.04-4.97-.97-2.38-1.22-4.9-2.12-7.56-2.7-2.67-.58-5.4-.86-8.21-.86-3.02,0-5.6.4-7.72,1.19-2.12.79-3.75,1.91-4.86,3.35-1.12,1.44-1.67,3.1-1.67,4.97,0,2.09.76,3.78,2.27,5.08,1.51,1.3,4.14,2.34,7.88,3.13l12.2,2.59c7.06,1.51,12.31,3.94,15.77,7.29,3.46,3.35,5.18,7.76,5.18,13.23,0,3.6-.72,6.86-2.16,9.77-1.44,2.92-3.53,5.42-6.26,7.51-2.74,2.09-6.01,3.69-9.83,4.81-3.82,1.12-8.1,1.67-12.85,1.67Z"/>
        <path class="cls-3" d="M335.02,753.53c-2.74,0-4.82-.76-6.26-2.27-1.44-1.51-2.16-3.63-2.16-6.37v-60.91c0-2.74.72-4.84,2.16-6.32,1.44-1.48,3.53-2.21,6.26-2.21s4.71.74,6.16,2.21c1.44,1.48,2.16,3.58,2.16,6.32v25.6h.22l28.73-30.02c1.22-1.3,2.5-2.28,3.83-2.97,1.33-.68,2.86-1.03,4.59-1.03,2.52,0,4.34.65,5.46,1.94,1.12,1.3,1.6,2.81,1.46,4.54-.14,1.73-.94,3.35-2.38,4.86l-28.84,29.48.11-7.24,30.24,32.29c1.66,1.8,2.5,3.64,2.54,5.51.04,1.87-.58,3.44-1.84,4.7-1.26,1.26-3.11,1.89-5.56,1.89-2.09,0-3.76-.43-5.02-1.3-1.26-.86-2.65-2.12-4.16-3.78l-29.16-30.67h-.22v27.11c0,2.74-.7,4.86-2.11,6.37-1.4,1.51-3.47,2.27-6.21,2.27Z"/>
        <path class="cls-3" d="M432.44,753.75c-5.4,0-10.17-.7-14.31-2.11-4.14-1.4-7.61-3.47-10.42-6.21-2.81-2.74-4.91-6.17-6.32-10.31-1.4-4.14-2.11-8.95-2.11-14.42v-36.72c0-2.81.72-4.93,2.16-6.37,1.44-1.44,3.53-2.16,6.26-2.16s4.71.72,6.16,2.16c1.44,1.44,2.16,3.56,2.16,6.37v36.83c0,6.19,1.4,10.85,4.21,13.99,2.81,3.13,6.87,4.7,12.2,4.7s9.38-1.57,12.15-4.7c2.77-3.13,4.16-7.79,4.16-13.99v-36.83c0-2.81.72-4.93,2.16-6.37,1.44-1.44,3.49-2.16,6.16-2.16s4.7.72,6.1,2.16c1.4,1.44,2.11,3.56,2.11,6.37v36.72c0,7.27-1.24,13.38-3.73,18.31-2.48,4.93-6.16,8.62-11.02,11.07-4.86,2.45-10.89,3.67-18.09,3.67Z"/>
        <path class="cls-3" d="M506.63,753.53c-2.74,0-4.82-.76-6.26-2.27-1.44-1.51-2.16-3.63-2.16-6.37v-54.65h-19.12c-2.23,0-3.96-.61-5.18-1.84-1.22-1.22-1.84-2.92-1.84-5.08s.61-3.94,1.84-5.13c1.22-1.19,2.95-1.78,5.18-1.78h54.97c2.23,0,3.96.59,5.18,1.78,1.22,1.19,1.84,2.9,1.84,5.13s-.61,3.85-1.84,5.08c-1.23,1.22-2.95,1.84-5.18,1.84h-19.12v54.65c0,2.74-.7,4.86-2.11,6.37-1.4,1.51-3.47,2.27-6.21,2.27Z"/>
        <path class="cls-3" d="M556.74,753.53c-2.74,0-4.83-.76-6.26-2.27-1.44-1.51-2.16-3.63-2.16-6.37v-60.8c0-2.74.72-4.86,2.16-6.37,1.44-1.51,3.53-2.27,6.26-2.27s4.71.76,6.16,2.27c1.44,1.51,2.16,3.64,2.16,6.37v60.8c0,2.74-.7,4.86-2.11,6.37-1.4,1.51-3.47,2.27-6.21,2.27Z"/>
        <path class="cls-3" d="M589.14,752.56c-2.81,0-4.97-.76-6.48-2.27-1.51-1.51-2.27-3.67-2.27-6.48v-58.64c0-2.81.76-4.97,2.27-6.48,1.51-1.51,3.67-2.27,6.48-2.27h37.69c2.16,0,3.8.56,4.91,1.67,1.12,1.12,1.67,2.72,1.67,4.81s-.56,3.8-1.67,4.91c-1.12,1.12-2.75,1.67-4.91,1.67h-30.46v17.82h27.97c2.23,0,3.9.56,5.02,1.67,1.12,1.12,1.67,2.75,1.67,4.91s-.56,3.8-1.67,4.91c-1.12,1.12-2.79,1.67-5.02,1.67h-27.97v19.01h30.46c2.16,0,3.8.56,4.91,1.67,1.12,1.12,1.67,2.72,1.67,4.81s-.56,3.8-1.67,4.91c-1.12,1.12-2.75,1.67-4.91,1.67h-37.69Z"/>
        <path class="cls-3" d="M654.16,753.53c-2.74,0-4.83-.76-6.26-2.27-1.44-1.51-2.16-3.63-2.16-6.37v-59.94c0-2.81.74-4.93,2.21-6.37,1.47-1.44,3.58-2.16,6.32-2.16h26.24c8.5,0,15.05,2.05,19.66,6.16,4.61,4.1,6.91,9.83,6.91,17.17,0,4.75-1.04,8.86-3.13,12.31-2.09,3.46-5.09,6.12-9.02,7.99-3.92,1.87-8.73,2.81-14.42,2.81l.86-1.84h4.43c3.02,0,5.67.74,7.94,2.21,2.27,1.48,4.23,3.73,5.89,6.75l6.7,12.42c1.01,1.8,1.47,3.56,1.4,5.29-.07,1.73-.72,3.13-1.94,4.21-1.23,1.08-3.02,1.62-5.4,1.62s-4.3-.5-5.78-1.51c-1.48-1.01-2.79-2.56-3.94-4.64l-10.37-19.12c-1.08-2.01-2.39-3.38-3.94-4.1-1.55-.72-3.44-1.08-5.67-1.08h-8.21v21.82c0,2.74-.7,4.86-2.11,6.37-1.4,1.51-3.47,2.27-6.21,2.27ZM662.47,710.98h15.01c4.46,0,7.83-.9,10.1-2.7,2.27-1.8,3.4-4.5,3.4-8.1s-1.13-6.19-3.4-7.99c-2.27-1.8-5.63-2.7-10.1-2.7h-15.01v21.49Z"/>
        <path class="cls-3" d="M729.65,752.56c-2.81,0-4.97-.76-6.48-2.27-1.51-1.51-2.27-3.67-2.27-6.48v-58.64c0-2.81.76-4.97,2.27-6.48s3.67-2.27,6.48-2.27h37.69c2.16,0,3.8.56,4.91,1.67,1.12,1.12,1.67,2.72,1.67,4.81s-.56,3.8-1.67,4.91c-1.12,1.12-2.75,1.67-4.91,1.67h-30.46v17.82h27.97c2.23,0,3.9.56,5.02,1.67,1.12,1.12,1.67,2.75,1.67,4.91s-.56,3.8-1.67,4.91c-1.12,1.12-2.79,1.67-5.02,1.67h-27.97v19.01h30.46c2.16,0,3.8.56,4.91,1.67,1.12,1.12,1.67,2.72,1.67,4.81s-.56,3.8-1.67,4.91-2.75,1.67-4.91,1.67h-37.69Z"/>
        <path class="cls-3" d="M794.02,753.53c-2.52,0-4.45-.7-5.78-2.11-1.33-1.4-2-3.4-2-5.99v-61.56c0-2.74.67-4.82,2-6.26,1.33-1.44,3.11-2.16,5.35-2.16,1.94,0,3.44.38,4.48,1.13,1.04.76,2.25,2,3.62,3.73l37.91,48.28h-2.92v-45.14c0-2.52.67-4.48,2-5.89,1.33-1.4,3.26-2.11,5.78-2.11s4.45.7,5.78,2.11c1.33,1.4,2,3.37,2,5.89v62.32c0,2.38-.61,4.27-1.84,5.67-1.22,1.4-2.88,2.11-4.97,2.11s-3.62-.4-4.81-1.19c-1.19-.79-2.47-2.05-3.83-3.78l-37.8-48.28h2.81v45.14c0,2.59-.65,4.59-1.94,5.99-1.3,1.4-3.24,2.11-5.83,2.11Z"/>
      </g>
      <g>
        <path class="cls-1" d="M866.37,331.24c20.26,89.16-75.52,186.94-213.95,218.4-58.82,13.37-115.86,12.61-163.58.48-1.97-.5-4.08.07-5.46,1.56-23.51,25.32-59.89,41.09-83.64,49.32-5.36,1.86-9.81-4.54-6.14-8.87,17.5-20.67,28.23-48.7,33.14-62.23.9-2.46-.04-5.22-2.26-6.62-30.76-19.43-52.08-46.03-59.37-78.11-20.26-89.16,75.53-186.94,213.94-218.4,138.43-31.46,267.06,15.32,287.33,104.48Z"/>
        <g>
          <path class="cls-2" d="M124.86,350.9c0,78.84,99.23,142.76,221.63,142.76,51.87,0,99.57-11.48,137.32-30.7,1.76-.9,3.86-.8,5.5.31,23.77,16.1,55.81,22.5,77.3,25.04,5.42.64,8.31-6.26,4.02-9.63-17.64-13.85-31.26-34.08-37.88-44.34-1.38-2.14-1.08-4.94.71-6.75,21.94-22.14,34.66-48.46,34.66-76.69,0-78.84-99.23-142.76-221.63-142.76-122.41,0-221.63,63.91-221.63,142.76Z"/>
          <path class="cls-3" d="M346.5,498.66c-60.15,0-116.77-15.13-159.43-42.61-43.34-27.92-67.21-65.26-67.21-105.15s23.87-77.23,67.21-105.15c42.66-27.48,99.28-42.61,159.43-42.61s116.76,15.13,159.42,42.61c43.34,27.92,67.21,65.26,67.21,105.15,0,28.63-12.49,56.36-36.11,80.21-.14.14-.16.36-.06.52,4.61,7.14,18.63,28.88,36.77,43.12,3.7,2.9,4.97,7.78,3.17,12.14-1.81,4.38-6.18,6.95-10.87,6.39-22.84-2.7-55.18-9.39-79.51-25.86-.11-.07-.27-.07-.43,0-40.14,20.44-88.41,31.24-139.59,31.24ZM346.5,213.14c-119.45,0-216.63,61.8-216.63,137.76s97.18,137.76,216.63,137.76c49.61,0,96.31-10.43,135.05-30.15,3.4-1.73,7.45-1.49,10.57.62,22.66,15.35,53.34,21.64,75.08,24.21.16.02.32.04.45-.28.12-.28.03-.34-.11-.45-19.46-15.28-34.16-38.07-38.99-45.57-2.67-4.14-2.11-9.48,1.36-12.98,21.73-21.93,33.21-47.23,33.21-73.17,0-75.96-97.18-137.76-216.63-137.76Z"/>
        </g>
        <path class="cls-3" d="M822.54,242.93c0,78.84-99.23,142.76-221.63,142.76-52.01,0-99.83-11.54-137.64-30.86-1.56-.8-3.44-.72-4.89.27-24.61,16.8-58.21,23.11-79.75,25.48-4.86.54-7.38-5.69-3.47-8.63,18.66-14.04,33.04-35.56,39.76-45.99,1.22-1.9.96-4.4-.63-6-22.15-22.22-35-48.66-35-77.03,0-78.84,99.23-142.76,221.63-142.76s221.63,63.91,221.63,142.76Z"/>
        <circle class="cls-2" cx="527.4" cy="246.78" r="23.12"/>
        <circle class="cls-2" cx="602.94" cy="246.78" r="23.12"/>
        <circle class="cls-2" cx="679.5" cy="246.78" r="23.12"/>
        <rect class="cls-3" x="276.3" y="283.82" width="36.61" height="106.75" rx="18.31" ry="18.31" transform="translate(-32.59 31.52) rotate(-5.8)"/>
        <circle class="cls-3" cx="303.56" cy="418.81" r="18.74"/>
      </g>
    </g>
  </g>
</svg>