<?xml version="1.0" encoding="UTF-8"?>
<svg id="Ebene_2" xmlns="http://www.w3.org/2000/svg" xmlns:xlink="http://www.w3.org/1999/xlink" viewBox="0 0 993.93 845.39">
  <defs>
    <style>
      .cls-1 {
        fill: none;
      }

      .cls-2 {
        fill: #f1b7a8;
      }

      .cls-3 {
        fill: #feeadc;
      }

      .cls-4 {
        clip-path: url(#clippath);
      }

      .cls-5 {
        fill: #f0825d;
      }
    </style>
    <clipPath id="clippath">
      <circle class="cls-1" cx="471.47" cy="374.29" r="207.24"/>
    </clipPath>
  </defs>
  <g id="Ebene_1-2" data-name="Ebene_1">
    <g>
      <rect class="cls-3" x="0" width="993.93" height="845.39" rx="95.41" ry="95.41"/>
      <g>
        <g>
          <path class="cls-5" d="M129.23,752.56c-2.81,0-4.97-.76-6.48-2.27-1.51-1.51-2.27-3.67-2.27-6.48v-58.64c0-2.81.76-4.97,2.27-6.48s3.67-2.27,6.48-2.27h37.69c2.16,0,3.8.56,4.91,1.67,1.12,1.12,1.67,2.72,1.67,4.81s-.56,3.8-1.67,4.91c-1.12,1.12-2.75,1.67-4.91,1.67h-30.46v17.82h27.97c2.23,0,3.9.56,5.02,1.67,1.12,1.12,1.67,2.75,1.67,4.91s-.56,3.8-1.67,4.91c-1.12,1.12-2.79,1.67-5.02,1.67h-27.97v19.01h30.46c2.16,0,3.8.56,4.91,1.67,1.12,1.12,1.67,2.72,1.67,4.81s-.56,3.8-1.67,4.91-2.75,1.67-4.91,1.67h-37.69Z"/>
          <path class="cls-5" d="M194.25,753.53c-2.74,0-4.83-.76-6.26-2.27-1.44-1.51-2.16-3.63-2.16-6.37v-60.8c0-2.74.72-4.86,2.16-6.37,1.44-1.51,3.53-2.27,6.26-2.27s4.71.76,6.16,2.27c1.44,1.51,2.16,3.64,2.16,6.37v60.8c0,2.74-.7,4.86-2.11,6.37-1.4,1.51-3.47,2.27-6.21,2.27Z"/>
          <path class="cls-5" d="M225.67,753.53c-2.52,0-4.45-.7-5.78-2.11-1.33-1.4-2-3.4-2-5.99v-61.56c0-2.74.67-4.82,2-6.26,1.33-1.44,3.11-2.16,5.35-2.16,1.94,0,3.44.38,4.48,1.13,1.04.76,2.25,2,3.62,3.73l37.91,48.28h-2.92v-45.14c0-2.52.66-4.48,2-5.89,1.33-1.4,3.26-2.11,5.78-2.11s4.45.7,5.78,2.11c1.33,1.4,2,3.37,2,5.89v62.32c0,2.38-.61,4.27-1.84,5.67-1.23,1.4-2.88,2.11-4.97,2.11s-3.62-.4-4.81-1.19c-1.19-.79-2.47-2.05-3.83-3.78l-37.8-48.28h2.81v45.14c0,2.59-.65,4.59-1.94,5.99-1.3,1.4-3.24,2.11-5.83,2.11Z"/>
          <path class="cls-5" d="M304.19,752.56c-2.16,0-3.92-.45-5.29-1.35-1.37-.9-2.29-2.12-2.75-3.67-.47-1.55-.47-3.26,0-5.13.47-1.87,1.46-3.74,2.97-5.62l39.31-51.52v5.08h-35.53c-2.38,0-4.2-.61-5.45-1.84-1.26-1.22-1.89-2.95-1.89-5.18s.63-3.94,1.89-5.13c1.26-1.19,3.08-1.78,5.45-1.78h43.42c2.23,0,4.01.45,5.35,1.35,1.33.9,2.25,2.11,2.75,3.62.5,1.51.5,3.22,0,5.13-.5,1.91-1.51,3.8-3.02,5.67l-39.31,51.41v-4.97h37.26c2.38,0,4.19.59,5.45,1.78,1.26,1.19,1.89,2.9,1.89,5.13s-.63,4.05-1.89,5.24c-1.26,1.19-3.08,1.78-5.45,1.78h-45.14Z"/>
          <path class="cls-5" d="M374.39,752.56c-2.81,0-4.97-.76-6.48-2.27-1.51-1.51-2.27-3.67-2.27-6.48v-58.64c0-2.81.76-4.97,2.27-6.48,1.51-1.51,3.67-2.27,6.48-2.27h37.69c2.16,0,3.8.56,4.91,1.67,1.12,1.12,1.67,2.72,1.67,4.81s-.56,3.8-1.67,4.91c-1.12,1.12-2.75,1.67-4.91,1.67h-30.46v17.82h27.97c2.23,0,3.9.56,5.02,1.67,1.12,1.12,1.67,2.75,1.67,4.91s-.56,3.8-1.67,4.91c-1.12,1.12-2.79,1.67-5.02,1.67h-27.97v19.01h30.46c2.16,0,3.8.56,4.91,1.67,1.12,1.12,1.67,2.72,1.67,4.81s-.56,3.8-1.67,4.91c-1.12,1.12-2.75,1.67-4.91,1.67h-37.69Z"/>
          <path class="cls-5" d="M439.51,752.56c-2.74,0-4.84-.76-6.32-2.27-1.48-1.51-2.21-3.6-2.21-6.26v-59.29c0-2.81.72-4.93,2.16-6.37,1.44-1.44,3.53-2.16,6.26-2.16s4.71.72,6.16,2.16c1.44,1.44,2.16,3.56,2.16,6.37v53.68h28.94c2.3,0,4.08.61,5.35,1.84,1.26,1.23,1.89,2.95,1.89,5.18s-.63,4.07-1.89,5.29c-1.26,1.23-3.04,1.84-5.35,1.84h-37.15Z"/>
          <path class="cls-5" d="M493.73,753.53c-2.02,0-3.66-.47-4.91-1.4-1.26-.93-2.05-2.2-2.38-3.78-.32-1.58-.02-3.35.92-5.29l27.65-60.59c1.15-2.45,2.52-4.23,4.1-5.35,1.58-1.12,3.42-1.67,5.51-1.67s3.92.56,5.51,1.67c1.58,1.12,2.92,2.9,4,5.35l27.86,60.59c.93,1.94,1.28,3.73,1.03,5.35-.25,1.62-.99,2.88-2.21,3.78-1.22.9-2.81,1.35-4.75,1.35-2.45,0-4.34-.58-5.67-1.73-1.33-1.15-2.5-2.95-3.51-5.4l-6.48-15.01,6.7,4.64h-45.04l6.7-4.64-6.37,15.01c-1.08,2.52-2.21,4.34-3.4,5.45-1.19,1.12-2.93,1.67-5.24,1.67ZM524.4,694.24l-13.82,32.94-2.92-4.21h33.8l-2.92,4.21-13.93-32.94h-.22Z"/>
          <path class="cls-5" d="M581.31,753.53c-2.74,0-4.82-.76-6.26-2.27-1.44-1.51-2.16-3.63-2.16-6.37v-59.94c0-2.81.74-4.93,2.21-6.37,1.48-1.44,3.58-2.16,6.32-2.16h26.24c8.5,0,15.05,2.05,19.66,6.16,4.61,4.1,6.91,9.83,6.91,17.17,0,4.75-1.04,8.86-3.13,12.31-2.09,3.46-5.09,6.12-9.02,7.99-3.93,1.87-8.73,2.81-14.42,2.81l.86-1.84h4.43c3.02,0,5.67.74,7.94,2.21,2.27,1.48,4.23,3.73,5.89,6.75l6.7,12.42c1.01,1.8,1.47,3.56,1.4,5.29-.07,1.73-.72,3.13-1.94,4.21-1.22,1.08-3.02,1.62-5.4,1.62s-4.3-.5-5.78-1.51c-1.48-1.01-2.79-2.56-3.94-4.64l-10.37-19.12c-1.08-2.01-2.39-3.38-3.94-4.1-1.55-.72-3.44-1.08-5.67-1.08h-8.21v21.82c0,2.74-.7,4.86-2.11,6.37-1.4,1.51-3.47,2.27-6.21,2.27ZM589.63,710.98h15.01c4.46,0,7.83-.9,10.1-2.7,2.27-1.8,3.4-4.5,3.4-8.1s-1.13-6.19-3.4-7.99c-2.27-1.8-5.63-2.7-10.1-2.7h-15.01v21.49Z"/>
          <path class="cls-5" d="M656.81,752.56c-2.81,0-4.97-.76-6.48-2.27-1.51-1.51-2.27-3.67-2.27-6.48v-58.64c0-2.81.76-4.97,2.27-6.48,1.51-1.51,3.67-2.27,6.48-2.27h26.14c5.4,0,10.01.79,13.82,2.38,3.82,1.58,6.71,3.85,8.69,6.8,1.98,2.95,2.97,6.48,2.97,10.58,0,4.54-1.3,8.39-3.89,11.56-2.59,3.17-6.16,5.29-10.69,6.37v-1.73c5.25.94,9.34,3.01,12.26,6.21,2.92,3.2,4.37,7.36,4.37,12.47,0,6.77-2.34,12.04-7.02,15.82-4.68,3.78-11.12,5.67-19.33,5.67h-27.32ZM664.04,707.74h15.98c4.17,0,7.27-.79,9.29-2.38,2.02-1.58,3.02-3.96,3.02-7.13s-1.01-5.44-3.02-7.02c-2.02-1.58-5.11-2.38-9.29-2.38h-15.98v18.9ZM664.04,740.14h17.82c4.32,0,7.49-.85,9.5-2.54,2.01-1.69,3.02-4.19,3.02-7.51s-1.01-5.79-3.02-7.45c-2.02-1.66-5.18-2.48-9.5-2.48h-17.82v19.98Z"/>
          <path class="cls-5" d="M731.86,752.56c-2.81,0-4.97-.76-6.48-2.27-1.51-1.51-2.27-3.67-2.27-6.48v-58.64c0-2.81.76-4.97,2.27-6.48s3.67-2.27,6.48-2.27h37.69c2.16,0,3.8.56,4.91,1.67,1.12,1.12,1.67,2.72,1.67,4.81s-.56,3.8-1.67,4.91c-1.12,1.12-2.75,1.67-4.91,1.67h-30.46v17.82h27.97c2.23,0,3.9.56,5.02,1.67,1.12,1.12,1.67,2.75,1.67,4.91s-.56,3.8-1.67,4.91c-1.12,1.12-2.79,1.67-5.02,1.67h-27.97v19.01h30.46c2.16,0,3.8.56,4.91,1.67,1.12,1.12,1.67,2.72,1.67,4.81s-.56,3.8-1.67,4.91-2.75,1.67-4.91,1.67h-37.69Z"/>
          <path class="cls-5" d="M796.88,753.53c-2.74,0-4.82-.76-6.26-2.27-1.44-1.51-2.16-3.63-2.16-6.37v-60.8c0-2.74.72-4.86,2.16-6.37,1.44-1.51,3.53-2.27,6.26-2.27s4.71.76,6.16,2.27c1.44,1.51,2.16,3.64,2.16,6.37v60.8c0,2.74-.7,4.86-2.11,6.37-1.4,1.51-3.47,2.27-6.21,2.27Z"/>
          <path class="cls-5" d="M847.1,753.53c-2.74,0-4.82-.76-6.26-2.27-1.44-1.51-2.16-3.63-2.16-6.37v-54.65h-19.12c-2.23,0-3.96-.61-5.18-1.84-1.23-1.22-1.84-2.92-1.84-5.08s.61-3.94,1.84-5.13c1.22-1.19,2.95-1.78,5.18-1.78h54.97c2.23,0,3.96.59,5.18,1.78,1.22,1.19,1.84,2.9,1.84,5.13s-.61,3.85-1.84,5.08-2.95,1.84-5.18,1.84h-19.12v54.65c0,2.74-.7,4.86-2.11,6.37-1.4,1.51-3.47,2.27-6.21,2.27Z"/>
        </g>
        <g>
          <circle class="cls-2" cx="522.46" cy="364.29" r="207.24"/>
          <circle class="cls-5" cx="471.47" cy="374.29" r="207.24"/>
          <g class="cls-4">
            <g>
              <circle class="cls-3" cx="468.36" cy="320.01" r="69.39"/>
              <path class="cls-3" d="M317.03,590.75c-1.44-25.13,2.76-49.27,11.51-71.2,23.23-58.25,78.53-100.86,145.27-104.69,66.74-3.84,126.56,32.16,156.31,87.37,11.2,20.78,18.14,44.28,19.58,69.41l-332.67,19.12Z"/>
            </g>
          </g>
        </g>
      </g>
    </g>
  </g>
</svg>