<?xml version="1.0" encoding="UTF-8"?>
<svg id="Ebene_2" xmlns="http://www.w3.org/2000/svg" xmlns:xlink="http://www.w3.org/1999/xlink" viewBox="0 0 993.93 845.39">
  <defs>
    <style>
      .cls-1 {
        fill: none;
      }

      .cls-2 {
        fill: #f1b7a8;
      }

      .cls-3 {
        fill: #feeadc;
      }

      .cls-4 {
        clip-path: url(#clippath);
      }

      .cls-5 {
        fill: #f0825d;
      }
    </style>
    <clipPath id="clippath">
      <circle class="cls-1" cx="470.81" cy="355.84" r="208.97"/>
    </clipPath>
  </defs>
  <g id="Ebene_1-2" data-name="Ebene_1">
    <g>
      <rect class="cls-3" x="0" width="993.93" height="845.39" rx="95.41" ry="95.41"/>
      <g>
        <g>
          <path class="cls-5" d="M106.17,753.75c-8.57,0-15.82-1.62-21.76-4.86-5.94-3.24-10.46-7.78-13.55-13.61-3.1-5.83-4.64-12.67-4.64-20.52,0-6.05.92-11.5,2.75-16.36s4.5-9,7.99-12.42c3.49-3.42,7.74-6.06,12.74-7.94,5-1.87,10.67-2.81,17.01-2.81,3.89,0,7.78.43,11.66,1.3,3.89.86,7.63,2.31,11.23,4.32,1.51.86,2.54,1.96,3.08,3.29.54,1.33.68,2.74.43,4.21-.25,1.48-.83,2.77-1.73,3.89-.9,1.12-2.05,1.84-3.46,2.16-1.4.32-3.01.05-4.81-.81-2.38-1.3-4.9-2.25-7.56-2.86-2.66-.61-5.58-.92-8.75-.92-5.11,0-9.4.96-12.85,2.86-3.46,1.91-6.03,4.72-7.72,8.42-1.69,3.71-2.54,8.26-2.54,13.66,0,8.14,1.96,14.29,5.89,18.47,3.92,4.18,9.74,6.26,17.44,6.26,2.59,0,5.25-.25,7.99-.76,2.74-.5,5.44-1.22,8.1-2.16l-3.13,6.8v-20.74h-9.72c-2.16,0-3.82-.54-4.97-1.62-1.15-1.08-1.73-2.56-1.73-4.43s.58-3.44,1.73-4.48c1.15-1.04,2.81-1.57,4.97-1.57h16.96c2.16,0,3.8.58,4.91,1.73,1.12,1.15,1.67,2.81,1.67,4.97v25.06c0,1.87-.36,3.46-1.08,4.75-.72,1.3-1.94,2.23-3.67,2.81-3.24,1.15-6.88,2.09-10.91,2.81-4.03.72-8.03,1.08-11.99,1.08Z"/>
          <path class="cls-5" d="M152.83,753.53c-2.74,0-4.82-.76-6.26-2.27-1.44-1.51-2.16-3.63-2.16-6.37v-59.94c0-2.81.74-4.93,2.21-6.37,1.47-1.44,3.58-2.16,6.32-2.16h26.24c8.49,0,15.05,2.05,19.66,6.16,4.61,4.1,6.91,9.83,6.91,17.17,0,4.75-1.04,8.86-3.13,12.31-2.09,3.46-5.09,6.12-9.02,7.99-3.93,1.87-8.73,2.81-14.42,2.81l.86-1.84h4.43c3.02,0,5.67.74,7.94,2.21,2.27,1.48,4.23,3.73,5.89,6.75l6.7,12.42c1.01,1.8,1.48,3.56,1.4,5.29-.07,1.73-.72,3.13-1.94,4.21-1.22,1.08-3.02,1.62-5.4,1.62s-4.3-.5-5.78-1.51c-1.48-1.01-2.79-2.55-3.94-4.64l-10.37-19.12c-1.08-2.01-2.39-3.38-3.94-4.1-1.55-.72-3.44-1.08-5.67-1.08h-8.21v21.82c0,2.74-.7,4.86-2.11,6.37-1.4,1.51-3.47,2.27-6.21,2.27ZM161.15,710.98h15.01c4.46,0,7.83-.9,10.1-2.7,2.27-1.8,3.4-4.5,3.4-8.1s-1.13-6.19-3.4-7.99c-2.27-1.8-5.63-2.7-10.1-2.7h-15.01v21.49Z"/>
          <path class="cls-5" d="M247.98,753.75c-5.4,0-10.17-.7-14.31-2.11-4.14-1.4-7.61-3.47-10.42-6.21-2.81-2.74-4.91-6.17-6.32-10.31-1.4-4.14-2.11-8.95-2.11-14.42v-36.72c0-2.81.72-4.93,2.16-6.37,1.44-1.44,3.53-2.16,6.26-2.16s4.71.72,6.16,2.16c1.44,1.44,2.16,3.56,2.16,6.37v36.83c0,6.19,1.4,10.85,4.21,13.99,2.81,3.13,6.88,4.7,12.2,4.7s9.38-1.57,12.15-4.7c2.77-3.13,4.16-7.79,4.16-13.99v-36.83c0-2.81.72-4.93,2.16-6.37,1.44-1.44,3.49-2.16,6.16-2.16s4.7.72,6.1,2.16c1.4,1.44,2.11,3.56,2.11,6.37v36.72c0,7.27-1.24,13.38-3.73,18.31-2.48,4.93-6.16,8.62-11.02,11.07-4.86,2.45-10.89,3.67-18.09,3.67Z"/>
          <path class="cls-5" d="M299.82,753.53c-2.74,0-4.82-.76-6.26-2.27-1.44-1.51-2.16-3.63-2.16-6.37v-59.94c0-2.81.74-4.93,2.21-6.37,1.47-1.44,3.58-2.16,6.32-2.16h26.24c8.5,0,15.05,2.14,19.66,6.43,4.61,4.28,6.91,10.24,6.91,17.87s-2.3,13.61-6.91,17.93c-4.61,4.32-11.16,6.48-19.66,6.48h-18.04v19.76c0,2.74-.7,4.86-2.11,6.37-1.4,1.51-3.47,2.27-6.21,2.27ZM308.13,712.17h15.23c4.32,0,7.61-.97,9.88-2.92,2.27-1.94,3.4-4.79,3.4-8.53s-1.13-6.55-3.4-8.42c-2.27-1.87-5.56-2.81-9.88-2.81h-15.23v22.68Z"/>
          <path class="cls-5" d="M367.31,753.53c-2.74,0-4.83-.76-6.26-2.27-1.44-1.51-2.16-3.63-2.16-6.37v-59.94c0-2.81.74-4.93,2.21-6.37,1.47-1.44,3.58-2.16,6.32-2.16h26.24c8.49,0,15.05,2.14,19.66,6.43,4.61,4.28,6.91,10.24,6.91,17.87s-2.31,13.61-6.91,17.93c-4.61,4.32-11.16,6.48-19.66,6.48h-18.04v19.76c0,2.74-.7,4.86-2.11,6.37-1.4,1.51-3.47,2.27-6.21,2.27ZM375.63,712.17h15.23c4.32,0,7.61-.97,9.88-2.92,2.27-1.94,3.4-4.79,3.4-8.53s-1.13-6.55-3.4-8.42c-2.27-1.87-5.56-2.81-9.88-2.81h-15.23v22.68Z"/>
          <path class="cls-5" d="M435.14,752.56c-2.81,0-4.97-.76-6.48-2.27-1.51-1.51-2.27-3.67-2.27-6.48v-58.64c0-2.81.76-4.97,2.27-6.48,1.51-1.51,3.67-2.27,6.48-2.27h37.69c2.16,0,3.8.56,4.91,1.67,1.12,1.12,1.67,2.72,1.67,4.81s-.56,3.8-1.67,4.91c-1.12,1.12-2.75,1.67-4.91,1.67h-30.46v17.82h27.97c2.23,0,3.9.56,5.02,1.67,1.12,1.12,1.67,2.75,1.67,4.91s-.56,3.8-1.67,4.91c-1.12,1.12-2.79,1.67-5.02,1.67h-27.97v19.01h30.46c2.16,0,3.8.56,4.91,1.67,1.12,1.12,1.67,2.72,1.67,4.81s-.56,3.8-1.67,4.91-2.75,1.67-4.91,1.67h-37.69Z"/>
          <path class="cls-5" d="M495.29,753.53c-2.52,0-4.45-.7-5.78-2.11-1.33-1.4-2-3.4-2-5.99v-61.56c0-2.74.66-4.82,2-6.26,1.33-1.44,3.11-2.16,5.35-2.16,1.94,0,3.44.38,4.48,1.13,1.04.76,2.25,2,3.62,3.73l37.91,48.28h-2.92v-45.14c0-2.52.67-4.48,2-5.89,1.33-1.4,3.26-2.11,5.78-2.11s4.44.7,5.78,2.11c1.33,1.4,2,3.37,2,5.89v62.32c0,2.38-.61,4.27-1.84,5.67-1.23,1.4-2.88,2.11-4.97,2.11s-3.62-.4-4.81-1.19c-1.19-.79-2.47-2.05-3.83-3.78l-37.8-48.28h2.81v45.14c0,2.59-.65,4.59-1.94,5.99-1.3,1.4-3.24,2.11-5.83,2.11Z"/>
          <path class="cls-5" d="M566.79,753.53c-2.02,0-3.66-.47-4.91-1.4-1.26-.94-2.05-2.2-2.38-3.78-.32-1.58-.02-3.35.92-5.29l27.65-60.59c1.15-2.45,2.52-4.23,4.1-5.35,1.58-1.12,3.42-1.67,5.51-1.67s3.92.56,5.51,1.67c1.58,1.12,2.92,2.9,4,5.35l27.86,60.59c.93,1.94,1.28,3.73,1.03,5.35-.25,1.62-.99,2.88-2.21,3.78-1.23.9-2.81,1.35-4.75,1.35-2.45,0-4.34-.58-5.67-1.73-1.33-1.15-2.5-2.95-3.51-5.4l-6.48-15.01,6.7,4.64h-45.04l6.7-4.64-6.37,15.01c-1.08,2.52-2.21,4.34-3.4,5.45-1.19,1.12-2.93,1.67-5.24,1.67ZM597.46,694.24l-13.82,32.94-2.92-4.21h33.8l-2.92,4.21-13.93-32.94h-.22Z"/>
          <path class="cls-5" d="M650.16,753.53c-2.74,0-4.82-.76-6.26-2.27-1.44-1.51-2.16-3.63-2.16-6.37v-59.94c0-2.81.74-4.93,2.21-6.37,1.47-1.44,3.58-2.16,6.32-2.16h26.24c8.49,0,15.05,2.05,19.66,6.16,4.61,4.1,6.91,9.83,6.91,17.17,0,4.75-1.04,8.86-3.13,12.31-2.09,3.46-5.09,6.12-9.02,7.99-3.93,1.87-8.73,2.81-14.42,2.81l.86-1.84h4.43c3.02,0,5.67.74,7.94,2.21,2.27,1.48,4.23,3.73,5.89,6.75l6.7,12.42c1.01,1.8,1.48,3.56,1.4,5.29-.07,1.73-.72,3.13-1.94,4.21-1.22,1.08-3.02,1.62-5.4,1.62s-4.3-.5-5.78-1.51c-1.48-1.01-2.79-2.55-3.94-4.64l-10.37-19.12c-1.08-2.01-2.39-3.38-3.94-4.1-1.55-.72-3.44-1.08-5.67-1.08h-8.21v21.82c0,2.74-.7,4.86-2.11,6.37-1.4,1.51-3.47,2.27-6.21,2.27ZM658.48,710.98h15.01c4.46,0,7.83-.9,10.1-2.7,2.27-1.8,3.4-4.5,3.4-8.1s-1.13-6.19-3.4-7.99c-2.27-1.8-5.63-2.7-10.1-2.7h-15.01v21.49Z"/>
          <path class="cls-5" d="M721.44,752.56c-2.81,0-4.97-.76-6.48-2.27-1.51-1.51-2.27-3.67-2.27-6.48v-58.64c0-2.81.76-4.97,2.27-6.48,1.51-1.51,3.67-2.27,6.48-2.27h26.14c5.4,0,10.01.79,13.82,2.38,3.82,1.58,6.71,3.85,8.69,6.8,1.98,2.95,2.97,6.48,2.97,10.58,0,4.54-1.3,8.39-3.89,11.56-2.59,3.17-6.16,5.29-10.69,6.37v-1.73c5.25.94,9.34,3.01,12.26,6.21,2.92,3.2,4.37,7.36,4.37,12.47,0,6.77-2.34,12.04-7.02,15.82-4.68,3.78-11.12,5.67-19.33,5.67h-27.32ZM728.68,707.74h15.98c4.17,0,7.27-.79,9.29-2.38,2.02-1.58,3.02-3.96,3.02-7.13s-1.01-5.44-3.02-7.02c-2.02-1.58-5.11-2.38-9.29-2.38h-15.98v18.9ZM728.68,740.14h17.82c4.32,0,7.49-.85,9.5-2.54,2.01-1.69,3.02-4.19,3.02-7.51s-1.01-5.79-3.02-7.45c-2.02-1.66-5.18-2.48-9.5-2.48h-17.82v19.98Z"/>
          <path class="cls-5" d="M792.29,752.56c-2.81,0-4.97-.76-6.48-2.27-1.51-1.51-2.27-3.67-2.27-6.48v-58.64c0-2.81.76-4.97,2.27-6.48,1.51-1.51,3.67-2.27,6.48-2.27h37.69c2.16,0,3.8.56,4.91,1.67,1.12,1.12,1.67,2.72,1.67,4.81s-.56,3.8-1.67,4.91c-1.12,1.12-2.75,1.67-4.91,1.67h-30.46v17.82h27.97c2.23,0,3.91.56,5.02,1.67,1.12,1.12,1.67,2.75,1.67,4.91s-.56,3.8-1.67,4.91-2.79,1.67-5.02,1.67h-27.97v19.01h30.46c2.16,0,3.8.56,4.91,1.67,1.12,1.12,1.67,2.72,1.67,4.81s-.56,3.8-1.67,4.91-2.75,1.67-4.91,1.67h-37.69Z"/>
          <path class="cls-5" d="M853.09,753.53c-2.74,0-4.82-.76-6.26-2.27-1.44-1.51-2.16-3.63-2.16-6.37v-60.8c0-2.74.72-4.86,2.16-6.37,1.44-1.51,3.53-2.27,6.26-2.27s4.71.76,6.16,2.27c1.44,1.51,2.16,3.64,2.16,6.37v60.8c0,2.74-.7,4.86-2.11,6.37-1.4,1.51-3.47,2.27-6.21,2.27Z"/>
          <path class="cls-5" d="M899.1,753.53c-2.74,0-4.82-.76-6.26-2.27-1.44-1.51-2.16-3.63-2.16-6.37v-54.65h-19.12c-2.23,0-3.96-.61-5.18-1.84-1.23-1.22-1.84-2.92-1.84-5.08s.61-3.94,1.84-5.13c1.22-1.19,2.95-1.78,5.18-1.78h54.97c2.23,0,3.96.59,5.18,1.78,1.22,1.19,1.84,2.9,1.84,5.13s-.61,3.85-1.84,5.08c-1.23,1.23-2.95,1.84-5.18,1.84h-19.12v54.65c0,2.74-.7,4.86-2.11,6.37-1.4,1.51-3.47,2.27-6.21,2.27Z"/>
        </g>
        <g>
          <circle class="cls-2" cx="525.08" cy="354.23" r="207.24"/>
          <circle class="cls-5" cx="470.62" cy="355.81" r="208.97"/>
          <g class="cls-4">
            <g>
              <g>
                <g>
                  <path class="cls-3" d="M352.38,362.36c-25.59,0-47.04-20.01-48.84-45.57-.92-13.06,3.3-25.69,11.88-35.58s20.5-15.83,33.56-16.75c1.16-.08,2.33-.12,3.48-.12,25.59,0,47.04,20.01,48.84,45.57,1.9,26.96-18.49,50.43-45.44,52.33-1.16.08-2.33.12-3.48.12Z"/>
                  <path class="cls-5" d="M352.47,272.34c21.34,0,39.34,16.52,40.86,38.13,1.59,22.59-15.43,42.2-38.02,43.79-.98.07-1.96.1-2.92.1-21.34,0-39.34-16.52-40.86-38.13-1.59-22.59,15.43-42.2,38.02-43.79.98-.07,1.96-.1,2.92-.1M352.47,256.34v16-16c-1.35,0-2.71.05-4.05.14-15.19,1.07-29.05,7.99-39.04,19.49s-14.89,26.19-13.82,41.38c1.02,14.48,7.44,27.9,18.08,37.77,10.58,9.82,24.34,15.23,38.75,15.23,1.34,0,2.7-.05,4.05-.14,15.19-1.07,29.05-7.99,39.04-19.49s14.89-26.19,13.82-41.38c-1.02-14.48-7.44-27.9-18.07-37.77-10.58-9.82-24.34-15.23-38.75-15.23h0Z"/>
                </g>
                <g>
                  <path class="cls-3" d="M266.81,483.69c-5.2,0-9.48-4.06-9.75-9.25-.79-15.01,1.53-29.7,6.89-43.66,14.77-38.47,50.87-65.19,91.95-68.09,2.52-.18,5.07-.27,7.58-.27,26.55,0,52.01,9.89,71.68,27.84,19.74,18.02,31.91,42.6,34.26,69.22.23,2.59-.61,5.2-2.29,7.18-1.69,1.98-4.15,3.22-6.75,3.41l-192.88,13.58c-.23.02-.46.02-.69.02Z"/>
                  <path class="cls-5" d="M363.48,370.43c50.65,0,93.47,38.75,97.98,89.77.09.98-.66,1.83-1.64,1.9l-192.88,13.58s-.08,0-.13,0c-.93,0-1.71-.72-1.76-1.66-.75-14.2,1.56-27.88,6.37-40.38,13.29-34.6,45.64-60.2,85.05-62.97,2.35-.17,4.7-.25,7.02-.25M363.49,354.43h0c-2.7,0-5.44.1-8.14.29-22.14,1.56-43.18,9.42-60.83,22.74-17.18,12.96-30.33,30.41-38.03,50.46-5.76,15.01-8.26,30.81-7.41,46.95.5,9.44,8.29,16.82,17.74,16.82.41,0,.83-.01,1.24-.04l192.88-13.58c4.73-.33,9.2-2.59,12.27-6.2,3.07-3.6,4.59-8.37,4.18-13.08-2.53-28.62-15.61-55.05-36.83-74.42-21.15-19.31-48.52-29.94-77.07-29.94h0Z"/>
                </g>
              </g>
              <g>
                <g>
                  <path class="cls-3" d="M581.14,346.25c-25.59,0-47.04-20.01-48.84-45.56-1.9-26.96,18.49-50.43,45.44-52.33,1.16-.08,2.33-.12,3.48-.12,25.59,0,47.04,20.01,48.84,45.57,1.9,26.96-18.49,50.43-45.44,52.33-1.16.08-2.33.12-3.48.12Z"/>
                  <path class="cls-5" d="M581.22,256.23c21.34,0,39.34,16.52,40.86,38.13,1.59,22.59-15.43,42.2-38.02,43.79-.98.07-1.96.1-2.92.1-21.34,0-39.34-16.52-40.86-38.13-1.59-22.59,15.43-42.2,38.02-43.79.98-.07,1.96-.1,2.92-.1M581.22,240.23h0c-1.34,0-2.7.05-4.05.14-15.19,1.07-29.05,7.99-39.04,19.49-9.98,11.5-14.89,26.19-13.82,41.38,1.02,14.48,7.44,27.9,18.08,37.77,10.58,9.82,24.34,15.23,38.75,15.23,1.34,0,2.7-.05,4.05-.14,15.19-1.07,29.05-7.99,39.04-19.49s14.89-26.19,13.82-41.38c-1.02-14.48-7.44-27.9-18.08-37.77-10.58-9.82-24.34-15.23-38.75-15.23h0Z"/>
                </g>
                <g>
                  <path class="cls-3" d="M495.57,467.58c-5.2,0-9.49-4.06-9.75-9.25-.79-15.01,1.53-29.7,6.89-43.66,14.77-38.47,50.86-65.19,91.95-68.09,2.52-.18,5.07-.27,7.58-.27,26.56,0,52.01,9.89,71.68,27.84,19.74,18.02,31.91,42.61,34.26,69.22.23,2.58-.61,5.2-2.29,7.17-1.69,1.98-4.15,3.23-6.75,3.41l-192.88,13.58c-.23.02-.46.02-.69.02Z"/>
                  <path class="cls-5" d="M592.23,354.32c50.65,0,93.47,38.75,97.98,89.77.09.98-.66,1.83-1.64,1.9l-192.88,13.58s-.08,0-.13,0c-.93,0-1.71-.72-1.76-1.66-.75-14.2,1.56-27.88,6.37-40.38,13.29-34.6,45.64-60.2,85.05-62.97,2.35-.17,4.7-.25,7.02-.25M592.24,338.32v16-16h0c-2.7,0-5.44.1-8.14.29-22.14,1.56-43.18,9.42-60.83,22.74-17.18,12.96-30.33,30.41-38.03,50.46-5.76,15.01-8.26,30.81-7.41,46.95.5,9.44,8.29,16.82,17.74,16.82.42,0,.84-.02,1.26-.04l192.87-13.58c4.73-.33,9.2-2.59,12.27-6.2,3.07-3.6,4.59-8.37,4.18-13.08-2.53-28.62-15.61-55.05-36.83-74.42-21.15-19.31-48.52-29.94-77.07-29.94h0Z"/>
                </g>
              </g>
              <g>
                <g>
                  <path class="cls-3" d="M383.55,509.1c-5.2,0-9.49-4.06-9.75-9.25-.79-15.01,1.53-29.7,6.89-43.66,14.77-38.47,50.86-65.19,91.95-68.09,2.52-.18,5.07-.27,7.58-.27,26.56,0,52.01,9.89,71.68,27.84,19.74,18.02,31.91,42.61,34.26,69.22.23,2.59-.61,5.2-2.29,7.18-1.69,1.98-4.15,3.22-6.75,3.41l-192.88,13.58c-.23.02-.46.02-.69.02Z"/>
                  <path class="cls-5" d="M480.21,395.84c50.65,0,93.47,38.75,97.98,89.77.09.98-.66,1.83-1.64,1.9l-192.88,13.58s-.08,0-.13,0c-.93,0-1.71-.72-1.76-1.66-.75-14.2,1.56-27.88,6.37-40.38,13.28-34.6,45.64-60.2,85.05-62.97,2.35-.17,4.7-.25,7.02-.25M480.22,379.84h0c-2.7,0-5.44.1-8.14.29-22.14,1.56-43.18,9.42-60.83,22.74-17.18,12.96-30.33,30.41-38.03,50.46-5.76,15.01-8.26,30.81-7.41,46.95.5,9.44,8.29,16.82,17.74,16.82.41,0,.83-.01,1.24-.04l192.88-13.58c4.73-.33,9.2-2.59,12.27-6.2,3.07-3.6,4.59-8.37,4.18-13.08-2.53-28.61-15.61-55.05-36.83-74.42-21.15-19.31-48.52-29.94-77.07-29.94h0Z"/>
                </g>
                <g>
                  <path class="cls-3" d="M469.12,387.77c-25.59,0-47.04-20.01-48.84-45.57-1.9-26.96,18.49-50.43,45.44-52.33,1.16-.08,2.33-.12,3.49-.12,25.59,0,47.04,20.01,48.84,45.57,1.9,26.96-18.49,50.43-45.44,52.33-1.16.08-2.33.12-3.48.12Z"/>
                  <path class="cls-5" d="M469.2,297.75c21.34,0,39.34,16.52,40.86,38.13,1.59,22.59-15.43,42.2-38.02,43.79-.98.07-1.96.1-2.92.1-21.34,0-39.34-16.52-40.86-38.13-1.59-22.59,15.43-42.2,38.02-43.79.98-.07,1.96-.1,2.92-.1M469.2,281.75v16-16c-1.35,0-2.71.05-4.05.14-15.19,1.07-29.05,7.99-39.04,19.49s-14.89,26.19-13.82,41.38c1.02,14.48,7.44,27.9,18.08,37.77,10.58,9.82,24.34,15.23,38.75,15.23,1.34,0,2.7-.05,4.05-.14,31.36-2.21,55.07-29.52,52.86-60.87-1.02-14.48-7.44-27.9-18.07-37.77-10.58-9.82-24.34-15.23-38.75-15.23h0Z"/>
                </g>
              </g>
            </g>
          </g>
        </g>
      </g>
    </g>
  </g>
</svg>