<?xml version="1.0" encoding="UTF-8"?>
<svg id="Ebene_2" xmlns="http://www.w3.org/2000/svg" viewBox="0 0 993.93 845.39">
  <defs>
    <style>
      .cls-1 {
        fill: #f1b7a8;
      }

      .cls-2 {
        fill: #feeadc;
      }

      .cls-3 {
        fill: #f0825d;
      }
    </style>
  </defs>
  <g id="Ebene_1-2" data-name="Ebene_1">
    <g>
      <g>
        <rect class="cls-2" x="0" width="993.93" height="845.39" rx="95.41" ry="95.41"/>
        <g>
          <path class="cls-1" d="M652.1,366.51c27.55-77.7,69-173.85-23.14-223.03-115.6-61.7-230.63,25.41-234.31,121.65-2.13,55.69,40.04,106.44,31.52,155.11-26.03,148.63,127.09,200.83,191.31,144.99,64.71-56.27,18-151.85,34.62-198.72Z"/>
          <path class="cls-3" d="M578.02,339.7c2.21-81.64,10.83-179.7-91.69-206.42-124.61-32.48-213.27,87.25-186.81,180.06,15.31,53.71,71.57,90.59,78.56,139.34,21.35,148.89,184.47,156.85,228.66,86.04,44.53-71.35-30.05-149.77-28.72-199.02Z"/>
          <path class="cls-2" d="M383.36,362.66c-1.46,0-2.89-.71-3.75-2.01-.3-.45-1.36-1.68-2.38-2.88-10.72-12.48-43.33-50.46-30.28-109.82,5.02-22.84,18.51-42.32,39.01-56.32,18.96-12.95,42.13-19.82,65.23-19.3,22.02.48,42.02,7.57,57.83,20.48,17.65,14.42,29.39,35.89,33.96,62.1,4.69,26.88-5.01,75.31-13.5,98.52-.85,2.33-3.44,3.53-5.77,2.68-2.33-.85-3.53-3.44-2.68-5.77,8.15-22.28,17.51-68.53,13.09-93.88-4.25-24.39-14.61-43.46-30.79-56.68-14.24-11.64-32.34-18.02-52.33-18.46-21.24-.47-42.53,5.83-59.96,17.74-18.57,12.69-30.78,30.26-35.3,50.82-12.09,54.97,18.32,90.39,28.32,102.03,1.47,1.72,2.45,2.85,3.05,3.76,1.37,2.07.81,4.86-1.26,6.24-.77.51-1.63.75-2.49.75Z"/>
          <path class="cls-2" d="M533.6,340.17s-20.05,49.54,11.43,65.74c55.89,28.75,3.29,47.79,29.28,81.63,28.16,36.67-15.08,53.79-80.98,6.17-22.53-16.28-42.48-43.55-3.68-83.87,25.83-26.84,27.88-49.73,31.33-59.3,3.1-8.61,9.36-5.81,12.61-10.37Z"/>
        </g>
      </g>
      <g>
        <path class="cls-3" d="M317.04,752.14c-2.74,0-4.82-.76-6.26-2.27-1.44-1.51-2.16-3.63-2.16-6.37v-60.8c0-2.74.72-4.86,2.16-6.37,1.44-1.51,3.53-2.27,6.26-2.27s4.71.76,6.16,2.27c1.44,1.51,2.16,3.64,2.16,6.37v22.9h35.42v-22.9c0-2.74.72-4.86,2.16-6.37,1.44-1.51,3.49-2.27,6.16-2.27s4.82.76,6.26,2.27c1.44,1.51,2.16,3.64,2.16,6.37v60.8c0,2.74-.72,4.86-2.16,6.37-1.44,1.51-3.53,2.27-6.26,2.27s-4.72-.76-6.16-2.27c-1.44-1.51-2.16-3.63-2.16-6.37v-23.98h-35.42v23.98c0,2.74-.7,4.86-2.11,6.37-1.4,1.51-3.47,2.27-6.21,2.27Z"/>
        <path class="cls-3" d="M428.17,752.36c-7.49,0-14.06-1.64-19.71-4.91-5.65-3.28-10.04-7.87-13.18-13.77-3.13-5.9-4.7-12.78-4.7-20.63,0-5.98.88-11.36,2.65-16.15,1.76-4.79,4.3-8.89,7.61-12.31,3.31-3.42,7.29-6.06,11.93-7.94,4.64-1.87,9.77-2.81,15.39-2.81,7.63,0,14.26,1.62,19.87,4.86,5.62,3.24,9.99,7.79,13.12,13.66,3.13,5.87,4.7,12.73,4.7,20.57,0,5.98-.9,11.38-2.7,16.2-1.8,4.82-4.36,8.96-7.67,12.42-3.31,3.46-7.27,6.12-11.88,7.99-4.61,1.87-9.76,2.81-15.44,2.81ZM428.17,738.1c4.25,0,7.87-.99,10.85-2.97,2.99-1.98,5.29-4.86,6.91-8.64,1.62-3.78,2.43-8.26,2.43-13.45,0-7.92-1.77-14.06-5.29-18.41-3.53-4.36-8.5-6.53-14.9-6.53-4.18,0-7.78.97-10.8,2.92-3.02,1.94-5.33,4.79-6.91,8.53-1.58,3.74-2.38,8.25-2.38,13.5,0,7.85,1.76,13.99,5.29,18.41,3.53,4.43,8.46,6.64,14.8,6.64ZM417.48,667.36c-2.45,0-4.34-.67-5.67-2-1.33-1.33-2-3.22-2-5.67s.66-4.32,2-5.62c1.33-1.3,3.22-1.94,5.67-1.94s4.32.65,5.62,1.94c1.3,1.3,1.94,3.17,1.94,5.62s-.65,4.34-1.94,5.67c-1.3,1.33-3.17,2-5.62,2ZM438.76,667.36c-2.45,0-4.34-.67-5.67-2-1.33-1.33-2-3.22-2-5.67s.67-4.32,2-5.62c1.33-1.3,3.22-1.94,5.67-1.94s4.32.65,5.62,1.94c1.3,1.3,1.94,3.17,1.94,5.62s-.65,4.34-1.94,5.67c-1.3,1.33-3.17,2-5.62,2Z"/>
        <path class="cls-3" d="M487.25,752.14c-2.74,0-4.82-.76-6.26-2.27-1.44-1.51-2.16-3.63-2.16-6.37v-59.94c0-2.81.74-4.93,2.21-6.37,1.47-1.44,3.58-2.16,6.32-2.16h26.24c8.49,0,15.05,2.05,19.66,6.16,4.61,4.1,6.91,9.83,6.91,17.17,0,4.75-1.04,8.86-3.13,12.31-2.09,3.46-5.09,6.12-9.02,7.99-3.93,1.87-8.73,2.81-14.42,2.81l.86-1.84h4.43c3.02,0,5.67.74,7.94,2.21,2.27,1.48,4.23,3.73,5.89,6.75l6.7,12.42c1.01,1.8,1.47,3.56,1.4,5.29-.07,1.73-.72,3.13-1.94,4.21-1.23,1.08-3.02,1.62-5.4,1.62s-4.3-.5-5.78-1.51c-1.48-1.01-2.79-2.56-3.94-4.64l-10.37-19.12c-1.08-2.01-2.39-3.38-3.94-4.1-1.55-.72-3.44-1.08-5.67-1.08h-8.21v21.82c0,2.74-.7,4.86-2.11,6.37-1.4,1.51-3.47,2.27-6.21,2.27ZM495.56,709.59h15.01c4.46,0,7.83-.9,10.1-2.7,2.27-1.8,3.4-4.5,3.4-8.1s-1.13-6.19-3.4-7.99c-2.27-1.8-5.63-2.7-10.1-2.7h-15.01v21.49Z"/>
        <path class="cls-3" d="M562.74,751.17c-2.81,0-4.97-.76-6.48-2.27-1.51-1.51-2.27-3.67-2.27-6.48v-58.64c0-2.81.76-4.97,2.27-6.48s3.67-2.27,6.48-2.27h37.69c2.16,0,3.8.56,4.91,1.67,1.12,1.12,1.67,2.72,1.67,4.81s-.56,3.8-1.67,4.91c-1.12,1.12-2.75,1.67-4.91,1.67h-30.46v17.82h27.97c2.23,0,3.9.56,5.02,1.67,1.12,1.12,1.67,2.75,1.67,4.91s-.56,3.8-1.67,4.91c-1.12,1.12-2.79,1.67-5.02,1.67h-27.97v19.01h30.46c2.16,0,3.8.56,4.91,1.67,1.12,1.12,1.67,2.72,1.67,4.81s-.56,3.8-1.67,4.91c-1.12,1.12-2.75,1.67-4.91,1.67h-37.69Z"/>
        <path class="cls-3" d="M627.11,752.14c-2.52,0-4.45-.7-5.78-2.11-1.33-1.4-2-3.4-2-5.99v-61.56c0-2.74.66-4.82,2-6.26,1.33-1.44,3.11-2.16,5.35-2.16,1.94,0,3.44.38,4.48,1.13,1.04.76,2.25,2,3.62,3.73l37.91,48.28h-2.92v-45.14c0-2.52.67-4.48,2-5.89,1.33-1.4,3.26-2.11,5.78-2.11s4.44.7,5.78,2.11c1.33,1.4,2,3.37,2,5.89v62.32c0,2.38-.61,4.27-1.84,5.67-1.23,1.4-2.88,2.11-4.97,2.11s-3.62-.4-4.81-1.19c-1.19-.79-2.47-2.05-3.83-3.78l-37.8-48.28h2.81v45.14c0,2.59-.65,4.59-1.94,5.99-1.3,1.4-3.24,2.11-5.83,2.11Z"/>
      </g>
    </g>
  </g>
</svg>