<?xml version="1.0" encoding="UTF-8"?>
<svg id="Ebene_2" xmlns="http://www.w3.org/2000/svg" viewBox="0 0 993.93 845.39">
  <defs>
    <style>
      .cls-1 {
        fill: #f1b7a8;
      }

      .cls-2 {
        fill: #feeadc;
      }

      .cls-3 {
        fill: #f0825d;
      }
    </style>
  </defs>
  <g id="Ebene_1-2" data-name="Ebene_1">
    <g>
      <rect class="cls-2" x="0" y="0" width="993.93" height="845.39" rx="95.41" ry="95.41"/>
      <g>
        <path class="cls-3" d="M320.17,753.53c-2.45,0-4.32-.69-5.62-2.05-1.3-1.37-1.94-3.28-1.94-5.72v-62.53c0-2.45.7-4.36,2.11-5.72,1.4-1.37,3.33-2.05,5.78-2.05,2.16,0,3.87.42,5.13,1.24,1.26.83,2.43,2.25,3.51,4.27l24.95,45.58h-3.67l24.95-45.58c1.08-2.02,2.25-3.44,3.51-4.27,1.26-.83,2.93-1.24,5.02-1.24,2.45,0,4.34.69,5.67,2.05,1.33,1.37,2,3.28,2,5.72v62.53c0,2.45-.65,4.36-1.94,5.72-1.3,1.37-3.17,2.05-5.62,2.05s-4.34-.69-5.67-2.05c-1.33-1.37-2-3.28-2-5.72v-43.74h2.38l-20.09,35.96c-.86,1.37-1.78,2.39-2.75,3.08-.97.69-2.25,1.03-3.83,1.03s-2.88-.36-3.89-1.08c-1.01-.72-1.91-1.73-2.7-3.02l-20.3-36.07h2.59v43.85c0,2.45-.63,4.36-1.89,5.72-1.26,1.37-3.15,2.05-5.67,2.05Z"/>
        <path class="cls-3" d="M409.16,753.53c-2.02,0-3.66-.47-4.91-1.4-1.26-.94-2.05-2.2-2.38-3.78-.32-1.58-.02-3.35.92-5.29l27.65-60.59c1.15-2.45,2.52-4.23,4.1-5.35,1.58-1.12,3.42-1.67,5.51-1.67s3.92.56,5.51,1.67c1.58,1.12,2.92,2.9,4,5.35l27.86,60.59c.93,1.94,1.28,3.73,1.03,5.35-.25,1.62-.99,2.88-2.21,3.78-1.23.9-2.81,1.35-4.75,1.35-2.45,0-4.34-.58-5.67-1.73-1.33-1.15-2.5-2.95-3.51-5.4l-6.48-15.01,6.7,4.64h-45.04l6.7-4.64-6.37,15.01c-1.08,2.52-2.21,4.34-3.4,5.45-1.19,1.12-2.94,1.67-5.24,1.67ZM439.84,694.24l-13.82,32.94-2.92-4.21h33.8l-2.92,4.21-13.93-32.94h-.22Z"/>
        <path class="cls-3" d="M496.86,752.56c-2.74,0-4.84-.76-6.32-2.27-1.48-1.51-2.21-3.6-2.21-6.26v-59.29c0-2.81.72-4.93,2.16-6.37,1.44-1.44,3.53-2.16,6.26-2.16s4.71.72,6.16,2.16c1.44,1.44,2.16,3.56,2.16,6.37v53.68h28.94c2.3,0,4.09.61,5.35,1.84,1.26,1.22,1.89,2.95,1.89,5.18s-.63,4.07-1.89,5.29c-1.26,1.23-3.04,1.84-5.35,1.84h-37.15Z"/>
        <path class="cls-3" d="M558.96,752.56c-2.81,0-4.97-.76-6.48-2.27-1.51-1.51-2.27-3.67-2.27-6.48v-58.64c0-2.81.76-4.97,2.27-6.48,1.51-1.51,3.67-2.27,6.48-2.27h37.69c2.16,0,3.8.56,4.91,1.67,1.12,1.12,1.67,2.72,1.67,4.81s-.56,3.8-1.67,4.91c-1.12,1.12-2.75,1.67-4.91,1.67h-30.46v17.82h27.97c2.23,0,3.9.56,5.02,1.67,1.12,1.12,1.67,2.75,1.67,4.91s-.56,3.8-1.67,4.91c-1.12,1.12-2.79,1.67-5.02,1.67h-27.97v19.01h30.46c2.16,0,3.8.56,4.91,1.67,1.12,1.12,1.67,2.72,1.67,4.81s-.56,3.8-1.67,4.91-2.75,1.67-4.91,1.67h-37.69Z"/>
        <path class="cls-3" d="M623.33,753.53c-2.52,0-4.45-.7-5.78-2.11-1.33-1.4-2-3.4-2-5.99v-61.56c0-2.74.66-4.82,2-6.26,1.33-1.44,3.11-2.16,5.35-2.16,1.94,0,3.44.38,4.48,1.13,1.04.76,2.25,2,3.62,3.73l37.91,48.28h-2.92v-45.14c0-2.52.67-4.48,2-5.89,1.33-1.4,3.26-2.11,5.78-2.11s4.45.7,5.78,2.11c1.33,1.4,2,3.37,2,5.89v62.32c0,2.38-.61,4.27-1.84,5.67-1.22,1.4-2.88,2.11-4.97,2.11s-3.62-.4-4.81-1.19c-1.19-.79-2.47-2.05-3.83-3.78l-37.8-48.28h2.81v45.14c0,2.59-.65,4.59-1.94,5.99-1.3,1.4-3.24,2.11-5.83,2.11Z"/>
      </g>
      <g>
        <circle class="cls-1" cx="699.79" cy="378.49" r="189.48"/>
        <g>
          <path class="cls-3" d="M763.14,387.16c9.94,34.36,10.43,120.86-73.85,166.74-40.27,21.93-115.27,29.72-145.08,32.03-6.73.52-12.3-5.14-11.68-11.86,2.29-24.45,9.11-79.87,26.82-127.99,21.16-57.47,79.65-89.31,144.1-95.17.01,0,59.66,36.24,59.68,36.25Z"/>
          <polygon class="cls-3" points="715.88 320.96 790.5 134.5 908.64 193.63 782.67 361.5 715.88 320.96"/>
        </g>
        <g>
          <polygon class="cls-2" points="709.72 348.86 728.65 303.21 793.24 339.36 761.89 380.55 709.72 348.86"/>
          <path class="cls-3" d="M731.11,310.32l54.66,30.6-25.14,33.03-44.65-27.12,15.13-36.5M726.18,296.1l-22.72,54.82,59.68,36.25,37.56-49.35-74.52-41.71h0Z"/>
        </g>
        <path class="cls-3" d="M401.22,598.88c-19.32,0-33.01-6.28-40.74-18.71-15.54-24.99,3.88-56.22,24.92-83.47,3.08-3.98,5.88-7.71,8.43-11.19-16.58,11.58-38.91,28.56-68.66,53.43-20.47,17.11-36.87,28.66-50.15,35.31-26.29,13.17-41.55,6.12-49.73-2.11-19.24-19.37-6.1-50.99,7.5-76.38,13.95-26.03,34.95-56.1,59.15-84.68,28.61-33.79,44.49-58.71,52.86-75.15-8.06,5.44-18.57,13.51-31.92,25.49-11.44,10.27-25.44,24.23-40.26,39.01-46.94,46.81-79.7,78.22-106.37,88-11.47,4.21-46.39,17-63.78-7.03-15.25-21.07-1.56-48.99,15.5-76.02,15.55-24.63,38.13-53.82,56.06-76.5,27.55-34.84,45.62-63.84,53.72-86.2,6.8-18.78,6.17-22.2,3.06-27.85-5.44-9.9-19.48-14.6-29.2-23.65-21.8-20.32-.3-41.1,16.49-40.44.41.02.83.04,1.25.09,19.32,1.88,41.57,15.77,54.93,39.3,10.38,18.29,10.56,41.64.55,69.4-10.05,27.84-30.19,60.67-61.58,100.37-14.51,18.35-32.97,42.1-47.02,63.02-3.73,5.55-6.78,10.36-9.26,14.49,20.72-12.92,55.99-48.08,80.35-72.38,15.29-15.25,29.74-29.66,42.16-40.81,21.82-19.59,41.09-33.52,57.27-41.41,29.38-14.32,46.33-6.86,55.36,1.92,14.9,14.47,14.6,38.08-.9,70.17-12,24.84-33.13,55.44-61.11,88.49-21.27,25.12-36.91,47.82-47.45,65.7,3.22-2.54,6.7-5.37,10.46-8.51,40.05-33.48,72.72-57.84,97.09-72.42,12.64-7.56,23.05-12.5,31.82-15.1,19.48-5.78,31.2.35,37.6,6.5,4.6,4.42,11.88,14.37,8.97,31.28-1.15,6.67-3.81,14.13-8.14,22.81-7.19,14.42-19.13,32.46-35.47,53.62-6.94,8.99-11.49,15.82-14.46,20.88,7.62-1.02,16.24-2.76,21.12-3.75,7.66-1.55,14.28-2.89,19.86-3.33,13.76-1.08,25.8,9.19,26.89,22.96,1.09,13.76-9.19,25.8-22.96,26.89-2.56.2-8.57,1.42-13.87,2.49-10.66,2.16-23.92,4.84-36.16,5.38-1.42.06-2.81.09-4.17.09Z"/>
      </g>
      <circle class="cls-3" cx="234.21" cy="182.31" r="24.97"/>
    </g>
  </g>
</svg>