<?xml version="1.0" encoding="UTF-8"?>
<svg id="Ebene_2" xmlns="http://www.w3.org/2000/svg" viewBox="0 0 993.93 845.39">
  <defs>
    <style>
      .cls-1 {
        fill: #f1b7a8;
      }

      .cls-2 {
        fill: #feeadc;
      }

      .cls-3 {
        fill: #f0825d;
      }
    </style>
  </defs>
  <g id="Ebene_1-2" data-name="Ebene_1">
    <g>
      <rect class="cls-2" x="0" width="993.93" height="845.39" rx="95.41" ry="95.41"/>
      <g>
        <path class="cls-3" d="M200.46,753.53c-2.45,0-4.32-.69-5.62-2.05-1.3-1.37-1.94-3.28-1.94-5.72v-62.53c0-2.45.7-4.36,2.11-5.72,1.4-1.37,3.33-2.05,5.78-2.05,2.16,0,3.87.42,5.13,1.24,1.26.83,2.43,2.25,3.51,4.27l24.95,45.58h-3.67l24.95-45.58c1.08-2.01,2.25-3.44,3.51-4.27,1.26-.83,2.93-1.24,5.02-1.24,2.45,0,4.34.69,5.67,2.05,1.33,1.37,2,3.28,2,5.72v62.53c0,2.45-.65,4.36-1.94,5.72-1.3,1.37-3.17,2.05-5.62,2.05s-4.34-.69-5.67-2.05c-1.33-1.37-2-3.28-2-5.72v-43.74h2.38l-20.09,35.96c-.86,1.37-1.78,2.39-2.75,3.08-.97.69-2.25,1.03-3.83,1.03s-2.88-.36-3.89-1.08c-1.01-.72-1.91-1.73-2.7-3.02l-20.3-36.07h2.59v43.85c0,2.45-.63,4.36-1.89,5.72-1.26,1.37-3.15,2.05-5.67,2.05Z"/>
        <path class="cls-3" d="M315.69,753.74c-5.4,0-10.17-.7-14.31-2.11-4.14-1.4-7.61-3.47-10.42-6.21-2.81-2.74-4.91-6.17-6.32-10.31-1.4-4.14-2.11-8.95-2.11-14.42v-36.72c0-2.81.72-4.93,2.16-6.37s3.53-2.16,6.26-2.16,4.71.72,6.16,2.16c1.44,1.44,2.16,3.56,2.16,6.37v36.83c0,6.19,1.4,10.85,4.21,13.99,2.81,3.13,6.87,4.7,12.2,4.7s9.38-1.57,12.15-4.7c2.77-3.13,4.16-7.79,4.16-13.99v-36.83c0-2.81.72-4.93,2.16-6.37s3.49-2.16,6.16-2.16,4.7.72,6.1,2.16c1.4,1.44,2.11,3.56,2.11,6.37v36.72c0,7.27-1.24,13.38-3.73,18.31-2.48,4.93-6.16,8.62-11.02,11.07-4.86,2.45-10.89,3.67-18.09,3.67Z"/>
        <path class="cls-3" d="M386.32,753.74c-3.02,0-6.1-.23-9.23-.7-3.13-.47-6.12-1.13-8.96-2-2.85-.86-5.38-1.94-7.61-3.24-1.58-.86-2.7-2-3.35-3.4-.65-1.4-.88-2.83-.7-4.27.18-1.44.72-2.72,1.62-3.83.9-1.12,2.05-1.84,3.46-2.16,1.4-.32,2.97-.05,4.7.81,2.95,1.66,6.17,2.88,9.67,3.67,3.49.79,6.97,1.19,10.42,1.19,5.25,0,9-.81,11.23-2.43,2.23-1.62,3.35-3.65,3.35-6.1,0-2.09-.79-3.74-2.38-4.97-1.58-1.22-4.36-2.27-8.32-3.13l-12.2-2.59c-6.91-1.44-12.04-3.91-15.39-7.4-3.35-3.49-5.02-8.08-5.02-13.77,0-3.6.76-6.88,2.27-9.83,1.51-2.95,3.63-5.51,6.37-7.67,2.74-2.16,5.99-3.82,9.77-4.97,3.78-1.15,7.94-1.73,12.47-1.73,4.03,0,7.99.49,11.88,1.46,3.89.97,7.31,2.39,10.26,4.27,1.44.86,2.43,1.96,2.97,3.29.54,1.33.72,2.66.54,4-.18,1.33-.72,2.5-1.62,3.51-.9,1.01-2.04,1.66-3.4,1.94-1.37.29-3.02-.04-4.97-.97-2.38-1.22-4.9-2.12-7.56-2.7-2.66-.58-5.4-.86-8.21-.86-3.02,0-5.6.4-7.72,1.19-2.12.79-3.74,1.91-4.86,3.35-1.12,1.44-1.67,3.1-1.67,4.97,0,2.09.76,3.78,2.27,5.08,1.51,1.3,4.14,2.34,7.88,3.13l12.2,2.59c7.06,1.51,12.31,3.94,15.77,7.29s5.18,7.76,5.18,13.23c0,3.6-.72,6.86-2.16,9.77-1.44,2.92-3.53,5.42-6.26,7.51-2.74,2.09-6.01,3.69-9.83,4.81-3.82,1.12-8.1,1.67-12.85,1.67Z"/>
        <path class="cls-3" d="M432.55,753.53c-2.74,0-4.83-.76-6.26-2.27-1.44-1.51-2.16-3.63-2.16-6.37v-60.8c0-2.74.72-4.86,2.16-6.37,1.44-1.51,3.53-2.27,6.26-2.27s4.71.76,6.16,2.27c1.44,1.51,2.16,3.64,2.16,6.37v60.8c0,2.74-.7,4.86-2.11,6.37-1.4,1.51-3.47,2.27-6.21,2.27Z"/>
        <path class="cls-3" d="M456.95,752.56c-2.16,0-3.92-.45-5.29-1.35-1.37-.9-2.29-2.12-2.75-3.67-.47-1.55-.47-3.26,0-5.13.47-1.87,1.46-3.74,2.97-5.62l39.31-51.52v5.08h-35.53c-2.38,0-4.2-.61-5.45-1.84-1.26-1.22-1.89-2.95-1.89-5.18s.63-3.94,1.89-5.13c1.26-1.19,3.08-1.78,5.45-1.78h43.42c2.23,0,4.01.45,5.35,1.35,1.33.9,2.25,2.11,2.75,3.62.5,1.51.5,3.22,0,5.13-.5,1.91-1.51,3.8-3.02,5.67l-39.31,51.41v-4.97h37.26c2.38,0,4.19.59,5.45,1.78,1.26,1.19,1.89,2.9,1.89,5.13s-.63,4.05-1.89,5.24c-1.26,1.19-3.08,1.78-5.45,1.78h-45.14Z"/>
        <path class="cls-3" d="M522.62,753.53c-2.74,0-4.82-.76-6.26-2.27-1.44-1.51-2.16-3.63-2.16-6.37v-60.8c0-2.74.72-4.86,2.16-6.37,1.44-1.51,3.53-2.27,6.26-2.27s4.71.76,6.16,2.27c1.44,1.51,2.16,3.64,2.16,6.37v60.8c0,2.74-.7,4.86-2.11,6.37s-3.47,2.27-6.21,2.27Z"/>
        <path class="cls-3" d="M550.8,752.56c-2.81,0-4.97-.76-6.48-2.27-1.51-1.51-2.27-3.67-2.27-6.48v-58.64c0-2.81.76-4.97,2.27-6.48,1.51-1.51,3.67-2.27,6.48-2.27h37.69c2.16,0,3.8.56,4.91,1.67,1.12,1.12,1.67,2.72,1.67,4.81s-.56,3.8-1.67,4.91-2.75,1.67-4.91,1.67h-30.46v17.82h27.97c2.23,0,3.91.56,5.02,1.67,1.12,1.12,1.67,2.75,1.67,4.91s-.56,3.8-1.67,4.91-2.79,1.67-5.02,1.67h-27.97v19.01h30.46c2.16,0,3.8.56,4.91,1.67,1.12,1.12,1.67,2.72,1.67,4.81s-.56,3.8-1.67,4.91-2.75,1.67-4.91,1.67h-37.69Z"/>
        <path class="cls-3" d="M611.61,753.53c-2.74,0-4.82-.76-6.26-2.27-1.44-1.51-2.16-3.63-2.16-6.37v-59.94c0-2.81.74-4.93,2.21-6.37,1.48-1.44,3.58-2.16,6.32-2.16h26.24c8.49,0,15.05,2.05,19.66,6.16,4.61,4.1,6.91,9.83,6.91,17.17,0,4.75-1.04,8.86-3.13,12.31-2.09,3.46-5.09,6.12-9.02,7.99-3.93,1.87-8.73,2.81-14.42,2.81l.86-1.84h4.43c3.02,0,5.67.74,7.94,2.21,2.27,1.48,4.23,3.73,5.89,6.75l6.7,12.42c1.01,1.8,1.48,3.56,1.4,5.29-.07,1.73-.72,3.13-1.94,4.21-1.22,1.08-3.02,1.62-5.4,1.62s-4.3-.5-5.78-1.51c-1.48-1.01-2.79-2.55-3.94-4.64l-10.37-19.12c-1.08-2.01-2.39-3.38-3.94-4.1-1.55-.72-3.44-1.08-5.67-1.08h-8.21v21.82c0,2.74-.7,4.86-2.11,6.37-1.4,1.51-3.47,2.27-6.21,2.27ZM619.92,710.98h15.01c4.46,0,7.83-.9,10.1-2.7,2.27-1.8,3.4-4.5,3.4-8.1s-1.13-6.19-3.4-7.99c-2.27-1.8-5.63-2.7-10.1-2.7h-15.01v21.49Z"/>
        <path class="cls-3" d="M682.89,752.56c-2.81,0-4.97-.76-6.48-2.27-1.51-1.51-2.27-3.67-2.27-6.48v-58.64c0-2.81.76-4.97,2.27-6.48,1.51-1.51,3.67-2.27,6.48-2.27h37.69c2.16,0,3.8.56,4.91,1.67,1.12,1.12,1.67,2.72,1.67,4.81s-.56,3.8-1.67,4.91c-1.12,1.12-2.75,1.67-4.91,1.67h-30.46v17.82h27.97c2.23,0,3.9.56,5.02,1.67,1.12,1.12,1.67,2.75,1.67,4.91s-.56,3.8-1.67,4.91c-1.12,1.12-2.79,1.67-5.02,1.67h-27.97v19.01h30.46c2.16,0,3.8.56,4.91,1.67,1.12,1.12,1.67,2.72,1.67,4.81s-.56,3.8-1.67,4.91c-1.12,1.12-2.75,1.67-4.91,1.67h-37.69Z"/>
        <path class="cls-3" d="M743.04,753.53c-2.52,0-4.45-.7-5.78-2.11-1.33-1.4-2-3.4-2-5.99v-61.56c0-2.74.66-4.82,2-6.26,1.33-1.44,3.11-2.16,5.35-2.16,1.94,0,3.44.38,4.48,1.13,1.04.76,2.25,2,3.62,3.73l37.91,48.28h-2.92v-45.14c0-2.52.67-4.48,2-5.89,1.33-1.4,3.26-2.11,5.78-2.11s4.44.7,5.78,2.11c1.33,1.4,2,3.37,2,5.89v62.32c0,2.38-.61,4.27-1.84,5.67-1.22,1.4-2.88,2.11-4.97,2.11s-3.62-.4-4.81-1.19-2.47-2.05-3.83-3.78l-37.8-48.28h2.81v45.14c0,2.59-.65,4.59-1.94,5.99s-3.24,2.11-5.83,2.11Z"/>
      </g>
      <circle class="cls-1" cx="496.97" cy="364.12" r="164.29"/>
      <g>
        <path class="cls-3" d="M767.98,279.06l-245.62,13.63-47.61,180.74c-9.44-23.01-33.93-43.36-66-51.81-46.98-12.38-92.41,5.48-101.48,39.88-9.06,34.4,21.68,72.32,68.66,84.7,46.98,12.38,92.41-5.48,101.48-39.88.03-.1.04-.21.07-.31l53.43-202.84,222.67-12.36-48.06,182.46c-9.38-23.09-33.92-43.54-66.09-52.01-46.98-12.38-92.41,5.48-101.48,39.88-9.06,34.4,21.68,72.32,68.66,84.7,46.98,12.38,92.41-5.48,101.48-39.88.02-.09.04-.18.06-.26l.13.03,59.71-226.67Z"/>
        <path class="cls-3" d="M405.75,553.15c-10.03,0-20.34-1.34-30.59-4.04-23.33-6.15-43.55-18.61-56.91-35.1-13.59-16.76-18.52-35.68-13.88-53.26,4.63-17.59,18.24-31.62,38.32-39.51,19.76-7.76,43.49-8.65,66.82-2.51,28.56,7.52,52.48,24.82,64.4,46.11l45.55-172.91c.33-1.26,1.44-2.16,2.73-2.23l245.62-13.63c.95-.05,1.88.35,2.49,1.1.61.74.82,1.73.58,2.66l-59.71,226.67c-.08.29-.2.57-.35.81-4.78,17.31-18.31,31.12-38.17,38.93-19.75,7.76-43.48,8.65-66.82,2.51-48.51-12.78-80.26-52.42-70.8-88.36s56.64-54.8,105.14-42.02c28.66,7.55,52.61,24.91,64.5,46.28l44.94-170.6-216.37,12.01-52.88,200.73c-.02.11-.04.21-.07.31-4.63,17.58-18.24,31.62-38.32,39.51-11.08,4.35-23.42,6.55-36.23,6.55ZM378.91,420.68c-12.06,0-23.64,2.05-34.03,6.14-18.25,7.17-30.58,19.76-34.71,35.46-4.13,15.69.39,32.72,12.74,47.96,12.57,15.51,31.67,27.25,53.78,33.08,22.11,5.83,44.52,5.01,63.1-2.29,18.25-7.17,30.58-19.76,34.71-35.45.02-.11.04-.21.07-.3l53.44-202.85c.33-1.26,1.44-2.16,2.73-2.23l222.67-12.36c.94-.06,1.88.36,2.49,1.1.61.74.82,1.73.58,2.66l-48.06,182.46c-.33,1.25-1.42,2.15-2.71,2.23-1.31.07-2.49-.67-2.97-1.87-9.36-23.04-33.91-42.3-64.07-50.24-45.31-11.94-89.18,5-97.81,37.75-8.63,32.75,21.22,69.1,66.52,81.03,22.11,5.83,44.52,5.01,63.1-2.29,18.25-7.17,30.58-19.76,34.71-35.45.02-.08.03-.16.05-.24.08-.3.2-.59.36-.84l58.43-221.82-239.33,13.29-47.06,178.64c-.33,1.25-1.42,2.14-2.7,2.23-1.29.11-2.48-.66-2.97-1.85-9.42-22.96-33.94-42.13-63.99-50.05-9.75-2.57-19.56-3.85-29.07-3.85Z"/>
      </g>
      <g>
        <path class="cls-3" d="M371.27,127.21l53.37,139.4c-17.37-10.85-43.53-12.69-69.03-2.92-37.36,14.3-59.16,48.08-48.69,75.44,10.47,27.36,49.26,37.94,86.62,23.64,37.36-14.3,59.16-48.08,48.69-75.44-.03-.08-.07-.16-.1-.24l-62.44-163.09c-.87-2.27-3.38-3.44-5.68-2.65h0c-2.4.83-3.64,3.49-2.73,5.87Z"/>
        <path class="cls-3" d="M360.1,372.15c-7.17,0-14.16-.89-20.75-2.69-17.31-4.72-29.82-15.12-35.24-29.26s-3.04-30.24,6.68-45.31c9.54-14.78,25.07-26.85,43.73-34,22.36-8.56,46.27-8.67,64.46-.64l-50.52-131.96c-.73-1.92-.66-3.99.21-5.85.87-1.86,2.41-3.25,4.35-3.92,3.85-1.33,8,.6,9.46,4.41l62.44,163.09c.03.06.07.15.1.23,11.05,28.87-11.56,64.45-50.41,79.32-11.42,4.37-23.2,6.59-34.51,6.59ZM389.1,260.32c-10.54,0-21.65,2.04-32.43,6.17-17.48,6.69-31.98,17.93-40.83,31.65-8.66,13.42-10.84,27.6-6.12,39.92,4.71,12.32,15.8,21.41,31.21,25.62,15.75,4.3,34.05,2.98,51.53-3.71,35.76-13.69,56.82-45.79,46.96-71.57-.03-.06-.07-.15-.1-.23l-62.44-163.1c-.29-.76-1.12-1.15-1.9-.88-.52.18-.77.57-.87.79-.1.22-.24.65-.04,1.17l53.37,139.4c.46,1.2.1,2.57-.89,3.39-1,.82-2.4.91-3.5.23-9.39-5.87-21.25-8.83-33.95-8.83Z"/>
      </g>
    </g>
  </g>
</svg>