<?xml version="1.0" encoding="UTF-8"?>
<svg id="Ebene_2" xmlns="http://www.w3.org/2000/svg" viewBox="0 0 993.93 845.39">
  <defs>
    <style>
      .cls-1 {
        fill: #f1b7a8;
      }

      .cls-2 {
        fill: #feeadc;
      }

      .cls-3 {
        fill: #f0825d;
      }
    </style>
  </defs>
  <g id="Ebene_1-2" data-name="Ebene_1">
    <g>
      <rect class="cls-2" x="0" width="993.93" height="845.39" rx="95.41" ry="95.41"/>
      <g>
        <path class="cls-3" d="M127.34,752.14c-2.52,0-4.45-.7-5.78-2.11-1.33-1.4-2-3.4-2-5.99v-61.56c0-2.74.66-4.82,2-6.26,1.33-1.44,3.11-2.16,5.35-2.16,1.94,0,3.44.38,4.48,1.13,1.04.76,2.25,2,3.62,3.73l37.91,48.28h-2.92v-45.14c0-2.52.67-4.48,2-5.89,1.33-1.4,3.26-2.11,5.78-2.11s4.44.7,5.78,2.11c1.33,1.4,2,3.37,2,5.89v62.32c0,2.38-.61,4.27-1.84,5.67-1.22,1.4-2.88,2.11-4.97,2.11s-3.62-.4-4.81-1.19c-1.19-.79-2.47-2.05-3.83-3.78l-37.8-48.28h2.81v45.14c0,2.59-.65,4.59-1.94,5.99-1.3,1.4-3.24,2.11-5.83,2.11Z"/>
        <path class="cls-3" d="M203.05,752.14c-2.02,0-3.66-.47-4.91-1.4-1.26-.93-2.05-2.2-2.38-3.78-.32-1.58-.02-3.35.92-5.29l27.65-60.59c1.15-2.45,2.52-4.23,4.1-5.35,1.58-1.12,3.42-1.67,5.51-1.67s3.92.56,5.51,1.67c1.58,1.12,2.92,2.9,4,5.35l27.86,60.59c.94,1.94,1.28,3.73,1.03,5.35-.25,1.62-.99,2.88-2.21,3.78-1.23.9-2.81,1.35-4.75,1.35-2.45,0-4.34-.58-5.67-1.73-1.33-1.15-2.5-2.95-3.51-5.4l-6.48-15.01,6.7,4.64h-45.04l6.7-4.64-6.37,15.01c-1.08,2.52-2.21,4.34-3.4,5.45-1.19,1.12-2.93,1.67-5.24,1.67ZM233.72,692.85l-13.82,32.94-2.92-4.21h33.8l-2.92,4.21-13.93-32.94h-.22Z"/>
        <path class="cls-3" d="M317.31,752.36c-8.21,0-15.23-1.62-21.06-4.86-5.83-3.24-10.31-7.79-13.45-13.66-3.13-5.87-4.7-12.8-4.7-20.79,0-5.98.88-11.36,2.65-16.15,1.76-4.79,4.34-8.89,7.72-12.31,3.38-3.42,7.51-6.06,12.37-7.94,4.86-1.87,10.35-2.81,16.47-2.81,3.6,0,7.25.45,10.96,1.35,3.71.9,6.93,2.18,9.67,3.83,1.8,1.01,3.02,2.27,3.67,3.78.65,1.51.85,3.02.59,4.54-.25,1.51-.86,2.81-1.84,3.89-.97,1.08-2.18,1.76-3.62,2.05-1.44.29-3.06-.04-4.86-.97-2.16-1.3-4.43-2.23-6.8-2.81-2.38-.58-4.79-.86-7.24-.86-4.82,0-8.87.96-12.15,2.86-3.28,1.91-5.74,4.66-7.4,8.26-1.66,3.6-2.48,8.03-2.48,13.28s.83,9.61,2.48,13.28c1.66,3.67,4.12,6.46,7.4,8.37,3.28,1.91,7.33,2.86,12.15,2.86,2.3,0,4.66-.29,7.07-.86,2.41-.58,4.73-1.47,6.97-2.7,1.87-.93,3.55-1.28,5.02-1.03,1.47.25,2.7.9,3.67,1.94.97,1.04,1.58,2.29,1.84,3.73.25,1.44.09,2.88-.49,4.32-.58,1.44-1.66,2.66-3.24,3.67-2.67,1.8-5.94,3.2-9.83,4.21-3.89,1.01-7.74,1.51-11.56,1.51Z"/>
        <path class="cls-3" d="M362.67,752.14c-2.74,0-4.82-.76-6.26-2.27-1.44-1.51-2.16-3.63-2.16-6.37v-60.8c0-2.74.72-4.86,2.16-6.37,1.44-1.51,3.53-2.27,6.26-2.27s4.71.76,6.16,2.27c1.44,1.51,2.16,3.64,2.16,6.37v22.9h35.42v-22.9c0-2.74.72-4.86,2.16-6.37,1.44-1.51,3.49-2.27,6.16-2.27s4.82.76,6.26,2.27c1.44,1.51,2.16,3.64,2.16,6.37v60.8c0,2.74-.72,4.86-2.16,6.37-1.44,1.51-3.53,2.27-6.26,2.27s-4.72-.76-6.16-2.27c-1.44-1.51-2.16-3.63-2.16-6.37v-23.98h-35.42v23.98c0,2.74-.7,4.86-2.11,6.37-1.4,1.51-3.47,2.27-6.21,2.27Z"/>
        <path class="cls-3" d="M447.23,751.17c-2.81,0-4.97-.76-6.48-2.27-1.51-1.51-2.27-3.67-2.27-6.48v-58.64c0-2.81.76-4.97,2.27-6.48s3.67-2.27,6.48-2.27h21.06c13.03,0,23.09,3.29,30.19,9.88,7.09,6.59,10.64,15.97,10.64,28.13,0,6.12-.92,11.54-2.75,16.25-1.84,4.72-4.48,8.69-7.94,11.93-3.46,3.24-7.71,5.71-12.74,7.4-5.04,1.69-10.84,2.54-17.39,2.54h-21.06ZM455.23,737.45h12.1c4.1,0,7.67-.5,10.69-1.51,3.02-1.01,5.54-2.52,7.56-4.54s3.53-4.55,4.54-7.61c1.01-3.06,1.51-6.64,1.51-10.75,0-8.21-2.04-14.31-6.1-18.31-4.07-4-10.13-5.99-18.2-5.99h-12.1v48.71Z"/>
        <path class="cls-3" d="M530.82,751.17c-2.81,0-4.97-.76-6.48-2.27-1.51-1.51-2.27-3.67-2.27-6.48v-58.64c0-2.81.76-4.97,2.27-6.48s3.67-2.27,6.48-2.27h37.69c2.16,0,3.8.56,4.91,1.67,1.12,1.12,1.67,2.72,1.67,4.81s-.56,3.8-1.67,4.91c-1.12,1.12-2.75,1.67-4.91,1.67h-30.46v17.82h27.97c2.23,0,3.9.56,5.02,1.67,1.12,1.12,1.67,2.75,1.67,4.91s-.56,3.8-1.67,4.91c-1.12,1.12-2.79,1.67-5.02,1.67h-27.97v19.01h30.46c2.16,0,3.8.56,4.91,1.67,1.12,1.12,1.67,2.72,1.67,4.81s-.56,3.8-1.67,4.91-2.75,1.67-4.91,1.67h-37.69Z"/>
        <path class="cls-3" d="M595.19,752.14c-2.52,0-4.45-.7-5.78-2.11-1.33-1.4-2-3.4-2-5.99v-61.56c0-2.74.67-4.82,2-6.26,1.33-1.44,3.11-2.16,5.35-2.16,1.94,0,3.44.38,4.48,1.13,1.04.76,2.25,2,3.62,3.73l37.91,48.28h-2.92v-45.14c0-2.52.66-4.48,2-5.89,1.33-1.4,3.26-2.11,5.78-2.11s4.45.7,5.78,2.11c1.33,1.4,2,3.37,2,5.89v62.32c0,2.38-.61,4.27-1.84,5.67-1.23,1.4-2.88,2.11-4.97,2.11s-3.62-.4-4.81-1.19c-1.19-.79-2.47-2.05-3.83-3.78l-37.8-48.28h2.81v45.14c0,2.59-.65,4.59-1.94,5.99-1.3,1.4-3.24,2.11-5.83,2.11Z"/>
        <path class="cls-3" d="M677.16,752.14c-2.74,0-4.82-.76-6.26-2.27-1.44-1.51-2.16-3.63-2.16-6.37v-60.91c0-2.74.72-4.84,2.16-6.32,1.44-1.48,3.53-2.21,6.26-2.21s4.71.74,6.16,2.21c1.44,1.48,2.16,3.58,2.16,6.32v25.6h.22l28.73-30.02c1.22-1.3,2.5-2.28,3.83-2.97,1.33-.68,2.86-1.03,4.59-1.03,2.52,0,4.34.65,5.45,1.94,1.12,1.3,1.6,2.81,1.46,4.54-.15,1.73-.94,3.35-2.38,4.86l-28.84,29.48.11-7.24,30.24,32.29c1.66,1.8,2.5,3.64,2.54,5.51.04,1.87-.58,3.44-1.84,4.7-1.26,1.26-3.11,1.89-5.56,1.89-2.09,0-3.76-.43-5.02-1.3-1.26-.86-2.65-2.12-4.16-3.78l-29.16-30.67h-.22v27.11c0,2.74-.7,4.86-2.11,6.37-1.4,1.51-3.47,2.27-6.21,2.27Z"/>
        <path class="cls-3" d="M751.79,751.17c-2.81,0-4.97-.76-6.48-2.27-1.51-1.51-2.27-3.67-2.27-6.48v-58.64c0-2.81.76-4.97,2.27-6.48s3.67-2.27,6.48-2.27h37.69c2.16,0,3.8.56,4.91,1.67,1.12,1.12,1.67,2.72,1.67,4.81s-.56,3.8-1.67,4.91-2.75,1.67-4.91,1.67h-30.46v17.82h27.97c2.23,0,3.9.56,5.02,1.67,1.12,1.12,1.67,2.75,1.67,4.91s-.56,3.8-1.67,4.91c-1.12,1.12-2.79,1.67-5.02,1.67h-27.97v19.01h30.46c2.16,0,3.8.56,4.91,1.67,1.12,1.12,1.67,2.72,1.67,4.81s-.56,3.8-1.67,4.91c-1.12,1.12-2.75,1.67-4.91,1.67h-37.69Z"/>
        <path class="cls-3" d="M816.16,752.14c-2.52,0-4.45-.7-5.78-2.11-1.33-1.4-2-3.4-2-5.99v-61.56c0-2.74.66-4.82,2-6.26,1.33-1.44,3.11-2.16,5.35-2.16,1.94,0,3.44.38,4.48,1.13,1.04.76,2.25,2,3.62,3.73l37.91,48.28h-2.92v-45.14c0-2.52.67-4.48,2-5.89,1.33-1.4,3.26-2.11,5.78-2.11s4.44.7,5.78,2.11c1.33,1.4,2,3.37,2,5.89v62.32c0,2.38-.61,4.27-1.84,5.67-1.22,1.4-2.88,2.11-4.97,2.11s-3.62-.4-4.81-1.19c-1.19-.79-2.47-2.05-3.83-3.78l-37.8-48.28h2.81v45.14c0,2.59-.65,4.59-1.94,5.99-1.3,1.4-3.24,2.11-5.83,2.11Z"/>
      </g>
      <g>
        <g>
          <ellipse class="cls-1" cx="199.15" cy="585.11" rx="29.44" ry="24.66" transform="translate(-38.75 14.66) rotate(-3.84)"/>
          <ellipse class="cls-1" cx="278.17" cy="530.27" rx="44.04" ry="36.89" transform="translate(-34.9 19.83) rotate(-3.84)"/>
          <g>
            <ellipse class="cls-1" cx="561.44" cy="380.31" rx="239.6" ry="142.33" transform="translate(-24.22 38.47) rotate(-3.84)"/>
            <ellipse class="cls-1" cx="376.05" cy="375.42" rx="93.29" ry="88.38" transform="translate(-24.31 26.04) rotate(-3.84)"/>
            <ellipse class="cls-1" cx="433" cy="282.79" rx="93.29" ry="77.36" transform="translate(-17.97 29.65) rotate(-3.84)"/>
            <ellipse class="cls-1" cx="570.67" cy="249.53" rx="93.29" ry="77.36" transform="translate(-15.44 38.8) rotate(-3.84)"/>
            <ellipse class="cls-1" cx="693.62" cy="265.28" rx="93.29" ry="77.36" transform="translate(-16.22 47.07) rotate(-3.84)"/>
            <ellipse class="cls-1" cx="705.53" cy="442.67" rx="93.29" ry="77.36" transform="translate(-28.07 48.26) rotate(-3.84)"/>
            <ellipse class="cls-1" cx="567.86" cy="475.92" rx="93.29" ry="77.36" transform="translate(-30.61 39.12) rotate(-3.84)"/>
            <ellipse class="cls-1" cx="444.91" cy="460.17" rx="93.29" ry="77.36" transform="translate(-29.83 30.84) rotate(-3.84)"/>
            <ellipse class="cls-1" cx="764.37" cy="349.34" rx="93.29" ry="88.38" transform="translate(-21.69 52) rotate(-3.84)"/>
          </g>
        </g>
        <g>
          <ellipse class="cls-3" cx="165.69" cy="566.92" rx="29.44" ry="24.66" transform="translate(-53.14 18.32) rotate(-5.46)"/>
          <ellipse class="cls-3" cx="243.14" cy="509.87" rx="44.04" ry="36.89" transform="translate(-47.37 25.42) rotate(-5.46)"/>
          <g>
            <ellipse class="cls-3" cx="522.07" cy="352" rx="239.6" ry="142.33" transform="translate(-31.1 51.23) rotate(-5.46)"/>
            <ellipse class="cls-3" cx="336.61" cy="352.33" rx="93.29" ry="88.38" transform="translate(-31.97 33.6) rotate(-5.46)"/>
            <ellipse class="cls-3" cx="390.94" cy="258.13" rx="93.29" ry="77.36" transform="translate(-22.77 38.33) rotate(-5.46)"/>
            <ellipse class="cls-3" cx="527.62" cy="221.01" rx="93.29" ry="77.36" transform="translate(-18.62 51.16) rotate(-5.46)"/>
            <ellipse class="cls-3" cx="650.96" cy="233.3" rx="93.29" ry="77.36" transform="translate(-19.23 62.94) rotate(-5.46)"/>
            <ellipse class="cls-3" cx="667.86" cy="410.28" rx="93.29" ry="77.36" transform="translate(-35.98 65.35) rotate(-5.46)"/>
            <ellipse class="cls-3" cx="531.18" cy="447.39" rx="93.29" ry="77.36" transform="translate(-40.13 52.52) rotate(-5.46)"/>
            <ellipse class="cls-3" cx="407.84" cy="435.11" rx="93.29" ry="77.36" transform="translate(-39.52 40.74) rotate(-5.46)"/>
            <ellipse class="cls-3" cx="724.05" cy="315.33" rx="93.29" ry="88.38" transform="translate(-26.7 70.26) rotate(-5.46)"/>
          </g>
        </g>
        <g>
          <rect class="cls-2" x="586.58" y="227.61" width="45.93" height="133.92" rx="22.96" ry="22.96" transform="translate(165.7 -216.63) rotate(23.24)"/>
          <circle class="cls-2" cx="569.65" cy="389.53" r="23.5"/>
          <path class="cls-2" d="M475.91,237.28c34.56-5.68,61.77,11.17,67.22,44.38,4.41,26.84-8,48.2-28.5,58.39-7.66,3.53-12.02,7.95-11.38,15.22.74,9.83-6.28,18.94-17.1,20.72-10.23,1.68-19.75-2.73-22.34-18.5-2.23-13.56.76-33.38,22.52-46.32l8.47-5.37c8.96-6.03,10.58-11.97,9.58-18.05-1.37-8.31-10.71-15.02-22.33-13.11-8.34,1.37-14.87,6.42-16.66,16.37-1.61,9.36-14.99,16.11-25.36,13.56-10.37-2.55-14.9-14.61-12.75-24.06,4.75-22.95,22.3-38.91,48.62-43.23ZM488.52,388.4c12.98-2.13,25.65,5.71,27.84,19.01s-7.27,25.07-20.24,27.21c-13.02,2.14-25.43-5.77-27.66-19.34-2.18-13.29,7.04-24.74,20.07-26.88Z"/>
        </g>
      </g>
    </g>
  </g>
</svg>