<?xml version="1.0" encoding="UTF-8"?>
<svg id="Ebene_2" xmlns="http://www.w3.org/2000/svg" viewBox="0 0 993.93 845.39">
  <defs>
    <style>
      .cls-1 {
        fill: #f1b7a8;
      }

      .cls-2 {
        fill: #feeadc;
      }

      .cls-3 {
        fill: #f0825d;
      }
    </style>
  </defs>
  <g id="Ebene_1-2" data-name="Ebene_1">
    <g>
      <rect class="cls-2" x="0" width="993.93" height="845.39" rx="95.41" ry="95.41"/>
      <g>
        <path class="cls-3" d="M394.96,752.36c-7.49,0-14.06-1.64-19.71-4.91-5.65-3.28-10.04-7.87-13.18-13.77-3.13-5.9-4.7-12.78-4.7-20.63,0-5.98.88-11.36,2.65-16.15,1.76-4.79,4.3-8.89,7.61-12.31,3.31-3.42,7.29-6.06,11.93-7.94,4.64-1.87,9.77-2.81,15.39-2.81,7.63,0,14.26,1.62,19.87,4.86,5.62,3.24,9.99,7.79,13.12,13.66,3.13,5.87,4.7,12.73,4.7,20.57,0,5.98-.9,11.38-2.7,16.2-1.8,4.82-4.36,8.96-7.67,12.42-3.31,3.46-7.27,6.12-11.88,7.99-4.61,1.87-9.76,2.81-15.44,2.81ZM394.96,738.1c4.25,0,7.87-.99,10.85-2.97,2.99-1.98,5.29-4.86,6.91-8.64,1.62-3.78,2.43-8.26,2.43-13.45,0-7.92-1.77-14.06-5.29-18.41-3.53-4.36-8.5-6.53-14.9-6.53-4.18,0-7.78.97-10.8,2.92-3.02,1.94-5.33,4.79-6.91,8.53-1.58,3.74-2.38,8.25-2.38,13.5,0,7.85,1.76,13.99,5.29,18.41,3.53,4.43,8.46,6.64,14.8,6.64Z"/>
        <path class="cls-3" d="M453.39,752.14c-2.45,0-4.32-.69-5.62-2.05-1.3-1.37-1.94-3.28-1.94-5.72v-62.53c0-2.45.7-4.36,2.11-5.72,1.4-1.37,3.33-2.05,5.78-2.05,2.16,0,3.87.42,5.13,1.24,1.26.83,2.43,2.25,3.51,4.27l24.95,45.58h-3.67l24.95-45.58c1.08-2.02,2.25-3.44,3.51-4.27,1.26-.83,2.93-1.24,5.02-1.24,2.45,0,4.34.69,5.67,2.05,1.33,1.37,2,3.28,2,5.72v62.53c0,2.45-.65,4.36-1.94,5.72s-3.17,2.05-5.62,2.05-4.34-.69-5.67-2.05c-1.33-1.37-2-3.28-2-5.72v-43.74h2.38l-20.09,35.96c-.86,1.37-1.78,2.39-2.75,3.08-.97.69-2.25,1.03-3.83,1.03s-2.88-.36-3.89-1.08c-1.01-.72-1.91-1.73-2.7-3.02l-20.3-36.07h2.59v43.85c0,2.45-.63,4.36-1.89,5.72-1.26,1.37-3.15,2.05-5.67,2.05Z"/>
        <path class="cls-3" d="M542.38,752.14c-2.02,0-3.66-.47-4.91-1.4-1.26-.93-2.05-2.2-2.38-3.78-.32-1.58-.02-3.35.92-5.29l27.65-60.59c1.15-2.45,2.52-4.23,4.1-5.35,1.58-1.12,3.42-1.67,5.51-1.67s3.92.56,5.51,1.67c1.58,1.12,2.92,2.9,4,5.35l27.86,60.59c.94,1.94,1.28,3.73,1.03,5.35-.25,1.62-.99,2.88-2.21,3.78-1.23.9-2.81,1.35-4.75,1.35-2.45,0-4.34-.58-5.67-1.73-1.33-1.15-2.5-2.95-3.51-5.4l-6.48-15.01,6.7,4.64h-45.04l6.7-4.64-6.37,15.01c-1.08,2.52-2.21,4.34-3.4,5.45-1.19,1.12-2.93,1.67-5.24,1.67ZM573.05,692.85l-13.82,32.94-2.92-4.21h33.8l-2.92,4.21-13.93-32.94h-.22Z"/>
        <path class="cls-3" d="M628.02,751.71c-2.88,0-5.17-.86-6.86-2.59-1.69-1.73-2.54-3.96-2.54-6.7s.85-4.84,2.54-6.53c1.69-1.69,3.98-2.54,6.86-2.54s5.13.85,6.75,2.54c1.62,1.69,2.43,3.87,2.43,6.53s-.81,4.97-2.43,6.7c-1.62,1.73-3.87,2.59-6.75,2.59ZM628.02,727.73c-1.66,0-2.95-.5-3.89-1.51-.94-1.01-1.51-2.48-1.73-4.43l-3.46-36.94c-.36-3.24.25-5.85,1.84-7.83,1.58-1.98,4-2.97,7.24-2.97s5.44.99,7.02,2.97c1.58,1.98,2.2,4.59,1.84,7.83l-3.46,36.94c-.22,1.94-.77,3.42-1.67,4.43-.9,1.01-2.14,1.51-3.73,1.51Z"/>
      </g>
      <g>
        <rect class="cls-1" x="335.93" y="225.78" width="428.2" height="286.75" rx="36.32" ry="36.32" transform="translate(966.41 -146.05) rotate(95.08)"/>
        <rect class="cls-3" x="248.71" y="208.82" width="428.2" height="286.75" rx="36.32" ry="36.32" transform="translate(712.5 -173.06) rotate(78.15)"/>
        <rect class="cls-2" x="301.21" y="220.41" width="323.69" height="267.97" transform="translate(714.84 -171.55) rotate(78.15)"/>
        <circle class="cls-1" cx="418.92" cy="173.96" r="9.84"/>
        <path class="cls-3" d="M471.26,285.87l8.38,39.97c12.51,5.52,22.07,17.5,25.32,32.98,5.13,24.43-7.55,47.61-30.72,52.47-23.5,4.93-44.75-11.13-49.88-35.57-3.25-15.48.85-30.39,10.26-40.44l-8.4-40.02c-30.78,16.66-48.13,52.28-40.52,88.57,9.32,44.42,52.03,72.89,95.84,63.7,44.09-9.25,71.76-52.48,62.44-96.9-7.64-36.17-37.79-61.83-72.74-64.76Z"/>
      </g>
    </g>
  </g>
</svg>