<?xml version="1.0" encoding="UTF-8"?>
<svg id="Ebene_2" xmlns="http://www.w3.org/2000/svg" viewBox="0 0 993.93 845.39">
  <defs>
    <style>
      .cls-1 {
        fill: #f1b7a8;
      }

      .cls-2 {
        fill: #feeadc;
      }

      .cls-3 {
        fill: #f0825d;
      }
    </style>
  </defs>
  <g id="Ebene_1-2" data-name="Ebene_1">
    <g>
      <rect class="cls-2" x="0" width="993.93" height="845.39" rx="95.41" ry="95.41"/>
      <g>
        <path class="cls-3" d="M345.28,753.53c-2.74,0-4.82-.76-6.26-2.27-1.44-1.51-2.16-3.63-2.16-6.37v-59.94c0-2.81.74-4.93,2.21-6.37,1.47-1.44,3.58-2.16,6.32-2.16h26.24c8.49,0,15.05,2.14,19.66,6.43,4.61,4.29,6.91,10.24,6.91,17.87s-2.31,13.61-6.91,17.93c-4.61,4.32-11.16,6.48-19.66,6.48h-18.04v19.76c0,2.74-.7,4.86-2.11,6.37s-3.47,2.27-6.21,2.27ZM353.6,712.16h15.23c4.32,0,7.61-.97,9.88-2.92,2.27-1.94,3.4-4.79,3.4-8.53s-1.13-6.55-3.4-8.42c-2.27-1.87-5.56-2.81-9.88-2.81h-15.23v22.68Z"/>
        <path class="cls-3" d="M412.78,753.53c-2.74,0-4.82-.76-6.26-2.27-1.44-1.51-2.16-3.63-2.16-6.37v-60.8c0-2.74.72-4.86,2.16-6.37,1.44-1.51,3.53-2.27,6.26-2.27s4.71.76,6.16,2.27c1.44,1.51,2.16,3.64,2.16,6.37v60.8c0,2.74-.7,4.86-2.11,6.37s-3.47,2.27-6.21,2.27Z"/>
        <path class="cls-3" d="M434.38,753.53c-2.02,0-3.65-.47-4.91-1.4-1.26-.93-2.05-2.2-2.38-3.78-.32-1.58-.02-3.35.92-5.29l27.65-60.59c1.15-2.45,2.52-4.23,4.1-5.35,1.58-1.12,3.42-1.67,5.51-1.67s3.92.56,5.51,1.67c1.58,1.12,2.92,2.9,4,5.35l27.86,60.59c.94,1.94,1.28,3.73,1.03,5.35-.25,1.62-.99,2.88-2.21,3.78-1.23.9-2.81,1.35-4.75,1.35-2.45,0-4.34-.58-5.67-1.73-1.33-1.15-2.5-2.95-3.51-5.4l-6.48-15.01,6.7,4.64h-45.04l6.7-4.64-6.37,15.01c-1.08,2.52-2.21,4.34-3.4,5.45-1.19,1.12-2.93,1.67-5.24,1.67ZM465.05,694.24l-13.82,32.94-2.92-4.21h33.8l-2.92,4.21-13.93-32.94h-.22Z"/>
        <path class="cls-3" d="M517.11,753.53c-2.52,0-4.45-.7-5.78-2.11-1.33-1.4-2-3.4-2-5.99v-61.56c0-2.74.67-4.82,2-6.26,1.33-1.44,3.11-2.16,5.35-2.16,1.94,0,3.44.38,4.48,1.13,1.04.76,2.25,2,3.62,3.73l37.91,48.28h-2.92v-45.14c0-2.52.66-4.48,2-5.89,1.33-1.4,3.26-2.11,5.78-2.11s4.45.7,5.78,2.11c1.33,1.4,2,3.37,2,5.89v62.32c0,2.38-.61,4.27-1.84,5.67-1.23,1.4-2.88,2.11-4.97,2.11s-3.62-.4-4.81-1.19c-1.19-.79-2.47-2.05-3.83-3.78l-37.8-48.28h2.81v45.14c0,2.59-.65,4.59-1.94,5.99s-3.24,2.11-5.83,2.11Z"/>
        <path class="cls-3" d="M621.76,753.74c-7.49,0-14.06-1.64-19.71-4.91-5.65-3.28-10.04-7.87-13.18-13.77-3.13-5.9-4.7-12.78-4.7-20.63,0-5.98.88-11.36,2.65-16.15,1.76-4.79,4.3-8.89,7.61-12.31,3.31-3.42,7.29-6.06,11.93-7.94,4.64-1.87,9.77-2.81,15.39-2.81,7.63,0,14.26,1.62,19.87,4.86s9.99,7.79,13.12,13.66c3.13,5.87,4.7,12.73,4.7,20.57,0,5.98-.9,11.38-2.7,16.2-1.8,4.83-4.36,8.96-7.67,12.42-3.31,3.46-7.27,6.12-11.88,7.99-4.61,1.87-9.76,2.81-15.44,2.81ZM621.76,739.49c4.25,0,7.87-.99,10.85-2.97,2.99-1.98,5.29-4.86,6.91-8.64s2.43-8.26,2.43-13.45c0-7.92-1.76-14.06-5.29-18.41-3.53-4.36-8.5-6.53-14.9-6.53-4.18,0-7.78.97-10.8,2.92-3.02,1.94-5.33,4.79-6.91,8.53-1.58,3.75-2.38,8.25-2.38,13.5,0,7.85,1.76,13.99,5.29,18.41,3.53,4.43,8.46,6.64,14.8,6.64Z"/>
      </g>
      <rect class="cls-1" x="104.52" y="246.03" width="798.44" height="353.33" rx="176.66" ry="176.66" transform="translate(-27.19 34.7) rotate(-3.84)"/>
      <g>
        <g>
          <path class="cls-2" d="M193.96,231.52h84.36v259.01h-48.19c-19.97,0-36.17-16.21-36.17-36.17v-222.84h0Z"/>
          <path class="cls-3" d="M283.32,495.53h-53.19c-22.7,0-41.17-18.47-41.17-41.17v-227.84h94.36v269.01ZM198.96,236.52v217.84c0,17.19,13.98,31.17,31.17,31.17h43.19v-249.01h-74.36Z"/>
        </g>
        <g>
          <rect class="cls-2" x="278.32" y="231.52" width="84.36" height="259.01"/>
          <path class="cls-3" d="M367.68,495.53h-94.36V226.52h94.36v269.01ZM283.32,485.53h74.36v-249.01h-74.36v249.01Z"/>
        </g>
        <g>
          <rect class="cls-2" x="362.68" y="231.52" width="84.36" height="259.01"/>
          <path class="cls-3" d="M452.05,495.53h-94.36V226.52h94.36v269.01ZM367.68,485.53h74.36v-249.01h-74.36v249.01Z"/>
        </g>
        <g>
          <rect class="cls-2" x="447.05" y="231.52" width="84.36" height="259.01"/>
          <path class="cls-3" d="M536.41,495.53h-94.36V226.52h94.36v269.01ZM452.05,485.53h74.36v-249.01h-74.36v249.01Z"/>
        </g>
        <g>
          <rect class="cls-2" x="531.41" y="231.52" width="84.36" height="259.01"/>
          <path class="cls-3" d="M620.77,495.53h-94.36V226.52h94.36v269.01ZM536.41,485.53h74.36v-249.01h-74.36v249.01Z"/>
        </g>
        <g>
          <rect class="cls-2" x="615.77" y="231.52" width="84.36" height="259.01"/>
          <path class="cls-3" d="M705.13,495.53h-94.36V226.52h94.36v269.01ZM620.77,485.53h74.36v-249.01h-74.36v249.01Z"/>
        </g>
        <g>
          <path class="cls-2" d="M700.13,231.52h84.36v222.84c0,19.97-16.21,36.17-36.17,36.17h-48.19V231.52h0Z"/>
          <path class="cls-3" d="M748.32,495.53h-53.19V226.52h94.36v227.84c0,22.7-18.47,41.17-41.17,41.17ZM705.13,485.53h43.19c17.19,0,31.17-13.98,31.17-31.17v-217.84h-74.36v249.01Z"/>
        </g>
        <path class="cls-3" d="M244.49,231.52h67.66v140.78c0,13.22-10.73,23.95-23.95,23.95h-19.75c-13.22,0-23.95-10.73-23.95-23.95v-140.78h0Z"/>
        <path class="cls-3" d="M328.85,231.52h67.66v140.78c0,13.22-10.73,23.95-23.95,23.95h-19.75c-13.22,0-23.95-10.73-23.95-23.95v-140.78h0Z"/>
        <path class="cls-3" d="M514.49,231.52h67.66v140.78c0,13.22-10.73,23.95-23.95,23.95h-19.75c-13.22,0-23.95-10.73-23.95-23.95v-140.78h0Z"/>
        <path class="cls-3" d="M598.85,231.52h67.66v140.78c0,13.22-10.73,23.95-23.95,23.95h-19.75c-13.22,0-23.95-10.73-23.95-23.95v-140.78h0Z"/>
        <path class="cls-3" d="M683.21,231.52h67.66v140.78c0,13.22-10.73,23.95-23.95,23.95h-19.75c-13.22,0-23.95-10.73-23.95-23.95v-140.78h0Z"/>
        <g>
          <path class="cls-3" d="M214.23,175.25h550c11.18,0,20.26,9.08,20.26,20.26v36H193.96v-36c0-11.18,9.08-20.26,20.26-20.26Z"/>
          <path class="cls-3" d="M789.49,236.52H188.96v-41c0-13.93,11.33-25.26,25.26-25.26h550c13.93,0,25.26,11.33,25.26,25.26v41ZM198.96,226.52h580.53v-31c0-8.42-6.85-15.26-15.26-15.26H214.23c-8.42,0-15.26,6.85-15.26,15.26v31Z"/>
        </g>
      </g>
    </g>
  </g>
</svg>