<?xml version="1.0" encoding="UTF-8"?>
<svg id="Ebene_2" xmlns="http://www.w3.org/2000/svg" viewBox="0 0 993.93 845.39">
  <defs>
    <style>
      .cls-1 {
        fill: #f1b7a8;
      }

      .cls-2 {
        fill: #feeadc;
      }

      .cls-3 {
        fill: #f0825d;
      }
    </style>
  </defs>
  <g id="Ebene_1-2" data-name="Ebene_1">
    <g>
      <rect class="cls-2" x="0" width="993.93" height="845.39" rx="95.41" ry="95.41"/>
      <circle class="cls-1" cx="623.56" cy="433.84" r="190.49"/>
      <g>
        <path class="cls-3" d="M463.87,208.26c0-1.69-1.57-2.97-3.22-2.59-21.1,4.77-40.7,20.31-56.24,44.94-2.4,3.8-4.66,7.76-6.78,11.85-1.01,1.95.67,4.22,2.83,3.82,20.25-3.75,40.55-5.92,60.84-6.49,1.43-.04,2.58-1.21,2.58-2.64v-48.89Z"/>
        <path class="cls-3" d="M377.43,355.83h83.79c1.46,0,2.65-1.19,2.65-2.65v-72.27c0-1.49-1.23-2.7-2.73-2.66-24.3.73-48.64,3.87-72.91,9.39-.91.21-1.64.87-1.94,1.75-6.55,19.58-10.48,41.17-11.51,63.68-.07,1.51,1.15,2.76,2.65,2.76Z"/>
        <path class="cls-3" d="M463.87,521.85v-48.89c0-1.44-1.14-2.6-2.58-2.64-20.29-.57-40.58-2.74-60.84-6.49-2.16-.4-3.84,1.87-2.83,3.82,2.12,4.1,4.38,8.06,6.78,11.85,15.54,24.63,35.14,40.17,56.24,44.94,1.65.37,3.22-.9,3.22-2.59Z"/>
        <path class="cls-3" d="M388.23,442.46c24.27,5.52,48.61,8.66,72.91,9.39,1.49.05,2.73-1.16,2.73-2.66v-72.27c0-1.46-1.19-2.65-2.65-2.65h-83.79c-1.51,0-2.72,1.26-2.65,2.76,1.03,22.51,4.96,44.1,11.51,63.67.29.88,1.03,1.54,1.94,1.75Z"/>
        <path class="cls-3" d="M544.87,250.61c-16.33-25.88-37.13-41.72-59.46-45.59-1.62-.28-3.1.98-3.1,2.62v49.56c0,1.43,1.14,2.6,2.57,2.64,21.49.7,42.99,3.19,64.43,7.45,2.16.43,3.88-1.83,2.88-3.79-2.28-4.47-4.72-8.78-7.32-12.9Z"/>
        <path class="cls-3" d="M585.17,299.57c4.37,17.02,7.02,35.1,7.81,53.71.06,1.42,1.22,2.55,2.64,2.55h44.95c1.53,0,2.75-1.29,2.65-2.82-.9-12.91-3.23-25.42-6.85-37.38-.22-.74-.77-1.35-1.48-1.67-15.39-6.82-30.85-12.69-46.35-17.57-1.99-.63-3.89,1.16-3.37,3.17Z"/>
        <path class="cls-3" d="M588.54,433.71c15.5-4.89,30.96-10.75,46.35-17.58.71-.31,1.25-.92,1.48-1.67,3.61-11.96,5.95-24.47,6.85-37.38.11-1.53-1.12-2.82-2.65-2.82h-44.95c-1.42,0-2.58,1.12-2.64,2.55-.79,18.62-3.44,36.69-7.81,53.71-.52,2.02,1.39,3.8,3.37,3.17Z"/>
        <path class="cls-3" d="M559.73,239.72c6.45,10.04,12.04,21.06,16.7,32.82.31.77.95,1.35,1.75,1.57,13.97,3.82,27.9,8.4,41.77,13.73,2.3.88,4.45-1.57,3.28-3.73-18.18-33.65-47.33-60.48-82.67-75.72-2.73-1.18-5.02,2.33-2.86,4.38,7.94,7.52,15.33,16.54,22.02,26.96Z"/>
        <path class="cls-3" d="M561.49,288.86c-25.44-6.14-50.95-9.67-76.43-10.55-1.5-.05-2.74,1.16-2.74,2.66v72.22c0,1.46,1.19,2.65,2.65,2.65h86.88c1.51,0,2.72-1.26,2.65-2.77-1.01-22.04-4.8-43.19-11.1-62.45-.29-.88-1.01-1.54-1.91-1.76Z"/>
        <path class="cls-3" d="M389.55,490.38c-6.19-9.64-11.58-20.17-16.12-31.41-.31-.77-.97-1.36-1.78-1.57-15.04-3.91-30.03-8.69-44.97-14.34-2.3-.87-4.45,1.59-3.26,3.75,19.18,35.03,50.29,62.6,87.88,77.22,2.74,1.07,4.95-2.46,2.76-4.43-8.88-7.96-17.12-17.75-24.5-29.24Z"/>
        <path class="cls-3" d="M544.87,479.5c2.6-4.12,5.04-8.42,7.32-12.89,1-1.96-.72-4.22-2.88-3.79-21.44,4.26-42.94,6.75-64.43,7.45-1.43.05-2.57,1.21-2.57,2.64v49.56c0,1.64,1.48,2.9,3.1,2.62,22.33-3.87,43.13-19.71,59.46-45.59Z"/>
        <path class="cls-3" d="M578.18,455.99c-.8.22-1.45.8-1.75,1.57-4.66,11.77-10.25,22.78-16.7,32.82-6.69,10.42-14.08,19.43-22.02,26.96-2.16,2.05.12,5.56,2.86,4.38,35.34-15.24,64.49-42.07,82.67-75.72,1.17-2.16-.98-4.62-3.28-3.73-13.88,5.32-27.81,9.9-41.77,13.73Z"/>
        <path class="cls-3" d="M310.09,314.76c-3.77,12.22-6.2,25.03-7.12,38.25-.11,1.53,1.12,2.82,2.65,2.82h48.04c1.42,0,2.58-1.12,2.64-2.55.81-19.19,3.6-37.82,8.21-55.3.53-1.99-1.34-3.8-3.31-3.21-16.6,5-33.16,11.11-49.63,18.33-.71.31-1.26.92-1.48,1.66Z"/>
        <path class="cls-3" d="M571.85,374.28h-86.88c-1.46,0-2.65,1.19-2.65,2.65v72.22c0,1.5,1.24,2.71,2.74,2.66,25.48-.89,51-4.41,76.43-10.55.9-.22,1.62-.88,1.91-1.76,6.3-19.25,10.09-40.41,11.1-62.45.07-1.51-1.15-2.77-2.65-2.77Z"/>
        <path class="cls-3" d="M371.65,272.69c.81-.21,1.47-.79,1.78-1.57,4.54-11.23,9.93-21.77,16.12-31.4,7.38-11.49,15.62-21.28,24.5-29.24,2.19-1.97-.02-5.49-2.76-4.43-37.59,14.62-68.7,42.19-87.88,77.22-1.18,2.16.96,4.63,3.26,3.75,14.94-5.65,29.94-10.43,44.97-14.34Z"/>
        <path class="cls-3" d="M353.66,374.28h-48.04c-1.53,0-2.75,1.29-2.65,2.82.92,13.22,3.35,26.03,7.12,38.25.23.74.77,1.35,1.48,1.66,16.48,7.22,33.03,13.33,49.63,18.33,1.97.59,3.84-1.21,3.31-3.21-4.62-17.48-7.4-36.1-8.21-55.3-.06-1.42-1.22-2.55-2.64-2.55Z"/>
      </g>
      <g>
        <path class="cls-3" d="M710.4,482.05l-169.86-98.55c-2.47-1.43-5.9.8-5.59,3.65l21.38,197.14c.32,2.91,4.21,3.63,6.22,1.15l26.31-32.48,19.03,28.68c1.97,2.97,5.97,3.77,8.93,1.81l69.29-45.96c2.97-1.97,3.77-5.97,1.81-8.93l-19.39-29.23,40.42-11.11c3.07-.84,3.98-4.7,1.46-6.16Z"/>
        <path class="cls-2" d="M559.49,593.94c-1,0-2.02-.14-3.01-.43-3.88-1.14-6.67-4.47-7.11-8.47l-21.38-197.14c-.43-3.96,1.45-7.81,4.9-10.05,3.45-2.24,7.72-2.4,11.16-.4l169.86,98.55c3.53,2.05,5.39,5.84,4.86,9.91-.56,4.32-3.69,7.88-7.98,9.05l-31.1,8.55,14.05,21.18c4.1,6.18,2.41,14.54-3.77,18.63l-69.29,45.96c-2.99,1.99-6.58,2.69-10.1,1.97-3.52-.71-6.55-2.75-8.54-5.75l-13.76-20.74-20.31,25.07c-2.14,2.64-5.27,4.11-8.5,4.11ZM589.42,541.14l23.99,36.16,68.36-45.35-24.43-36.83,41.84-11.5-156.57-90.84,19.72,181.8,27.1-33.45ZM706.89,488.1s0,0,0,0h0,0Z"/>
      </g>
      <g>
        <path class="cls-3" d="M198.89,753.53c-2.74,0-4.82-.76-6.26-2.27-1.44-1.51-2.16-3.63-2.16-6.37v-59.94c0-2.81.74-4.93,2.21-6.37,1.47-1.44,3.58-2.16,6.32-2.16h26.24c8.49,0,15.05,2.05,19.66,6.16,4.61,4.1,6.91,9.83,6.91,17.17,0,4.75-1.04,8.86-3.13,12.31-2.09,3.46-5.09,6.12-9.02,7.99-3.93,1.87-8.73,2.81-14.42,2.81l.86-1.84h4.43c3.02,0,5.67.74,7.94,2.21,2.27,1.48,4.23,3.73,5.89,6.75l6.7,12.42c1.01,1.8,1.47,3.56,1.4,5.29-.07,1.73-.72,3.13-1.94,4.21-1.23,1.08-3.02,1.62-5.4,1.62s-4.3-.5-5.78-1.51c-1.48-1.01-2.79-2.55-3.94-4.64l-10.37-19.12c-1.08-2.01-2.39-3.38-3.94-4.1-1.55-.72-3.44-1.08-5.67-1.08h-8.21v21.82c0,2.74-.7,4.86-2.11,6.37s-3.47,2.27-6.21,2.27ZM207.2,710.98h15.01c4.46,0,7.83-.9,10.1-2.7,2.27-1.8,3.4-4.5,3.4-8.1s-1.13-6.19-3.4-7.99c-2.27-1.8-5.63-2.7-10.1-2.7h-15.01v21.49Z"/>
        <path class="cls-3" d="M270.17,752.56c-2.81,0-4.97-.76-6.48-2.27-1.51-1.51-2.27-3.67-2.27-6.48v-58.64c0-2.81.76-4.97,2.27-6.48,1.51-1.51,3.67-2.27,6.48-2.27h37.69c2.16,0,3.8.56,4.91,1.67,1.12,1.12,1.67,2.72,1.67,4.81s-.56,3.8-1.67,4.91c-1.12,1.12-2.75,1.67-4.91,1.67h-30.46v17.82h27.97c2.23,0,3.9.56,5.02,1.67,1.12,1.12,1.67,2.75,1.67,4.91s-.56,3.8-1.67,4.91c-1.12,1.12-2.79,1.67-5.02,1.67h-27.97v19.01h30.46c2.16,0,3.8.56,4.91,1.67,1.12,1.12,1.67,2.72,1.67,4.81s-.56,3.8-1.67,4.91c-1.12,1.12-2.75,1.67-4.91,1.67h-37.69Z"/>
        <path class="cls-3" d="M359.48,753.75c-8.21,0-15.23-1.62-21.06-4.86s-10.31-7.79-13.45-13.66c-3.13-5.87-4.7-12.8-4.7-20.79,0-5.98.88-11.36,2.65-16.15,1.76-4.79,4.34-8.89,7.72-12.31,3.38-3.42,7.51-6.06,12.37-7.94,4.86-1.87,10.35-2.81,16.47-2.81,3.6,0,7.25.45,10.96,1.35,3.71.9,6.93,2.18,9.67,3.83,1.8,1.01,3.02,2.27,3.67,3.78.65,1.51.85,3.02.59,4.54-.25,1.51-.86,2.81-1.84,3.89-.97,1.08-2.18,1.76-3.62,2.05-1.44.29-3.06-.04-4.86-.97-2.16-1.3-4.43-2.23-6.8-2.81-2.38-.58-4.79-.86-7.24-.86-4.82,0-8.87.96-12.15,2.86-3.28,1.91-5.74,4.66-7.4,8.26-1.66,3.6-2.48,8.03-2.48,13.28s.83,9.61,2.48,13.28c1.66,3.67,4.12,6.46,7.4,8.37,3.28,1.91,7.33,2.86,12.15,2.86,2.3,0,4.66-.29,7.07-.86,2.41-.58,4.73-1.47,6.97-2.7,1.87-.93,3.55-1.28,5.02-1.03,1.47.25,2.7.9,3.67,1.94.97,1.04,1.58,2.29,1.84,3.73.25,1.44.09,2.88-.49,4.32-.58,1.44-1.66,2.67-3.24,3.67-2.66,1.8-5.94,3.21-9.83,4.21-3.89,1.01-7.74,1.51-11.56,1.51Z"/>
        <path class="cls-3" d="M400.63,753.53c-2.74,0-4.82-.76-6.26-2.27-1.44-1.51-2.16-3.63-2.16-6.37v-60.8c0-2.74.72-4.86,2.16-6.37,1.44-1.51,3.53-2.27,6.26-2.27s4.71.76,6.16,2.27c1.44,1.51,2.16,3.64,2.16,6.37v22.9h35.42v-22.9c0-2.74.72-4.86,2.16-6.37,1.44-1.51,3.49-2.27,6.16-2.27s4.82.76,6.26,2.27c1.44,1.51,2.16,3.64,2.16,6.37v60.8c0,2.74-.72,4.86-2.16,6.37-1.44,1.51-3.53,2.27-6.26,2.27s-4.72-.76-6.16-2.27c-1.44-1.51-2.16-3.63-2.16-6.37v-23.98h-35.42v23.98c0,2.74-.7,4.86-2.11,6.37s-3.47,2.27-6.21,2.27Z"/>
        <path class="cls-3" d="M480.98,752.56c-2.81,0-4.97-.76-6.48-2.27-1.51-1.51-2.27-3.67-2.27-6.48v-58.64c0-2.81.76-4.97,2.27-6.48,1.51-1.51,3.67-2.27,6.48-2.27h37.69c2.16,0,3.8.56,4.91,1.67,1.12,1.12,1.67,2.72,1.67,4.81s-.56,3.8-1.67,4.91c-1.12,1.12-2.75,1.67-4.91,1.67h-30.46v17.82h27.97c2.23,0,3.9.56,5.02,1.67,1.12,1.12,1.67,2.75,1.67,4.91s-.56,3.8-1.67,4.91c-1.12,1.12-2.79,1.67-5.02,1.67h-27.97v19.01h30.46c2.16,0,3.8.56,4.91,1.67,1.12,1.12,1.67,2.72,1.67,4.81s-.56,3.8-1.67,4.91c-1.12,1.12-2.75,1.67-4.91,1.67h-37.69Z"/>
        <path class="cls-3" d="M541.79,753.53c-2.74,0-4.82-.76-6.26-2.27-1.44-1.51-2.16-3.63-2.16-6.37v-59.94c0-2.81.74-4.93,2.21-6.37,1.47-1.44,3.58-2.16,6.32-2.16h26.24c8.49,0,15.05,2.05,19.66,6.16,4.61,4.1,6.91,9.83,6.91,17.17,0,4.75-1.04,8.86-3.13,12.31-2.09,3.46-5.09,6.12-9.02,7.99-3.93,1.87-8.73,2.81-14.42,2.81l.86-1.84h4.43c3.02,0,5.67.74,7.94,2.21,2.27,1.48,4.23,3.73,5.89,6.75l6.7,12.42c1.01,1.8,1.47,3.56,1.4,5.29-.07,1.73-.72,3.13-1.94,4.21-1.23,1.08-3.02,1.62-5.4,1.62s-4.3-.5-5.78-1.51c-1.48-1.01-2.79-2.55-3.94-4.64l-10.37-19.12c-1.08-2.01-2.39-3.38-3.94-4.1-1.55-.72-3.44-1.08-5.67-1.08h-8.21v21.82c0,2.74-.7,4.86-2.11,6.37s-3.47,2.27-6.21,2.27ZM550.1,710.98h15.01c4.46,0,7.83-.9,10.1-2.7,2.27-1.8,3.4-4.5,3.4-8.1s-1.13-6.19-3.4-7.99c-2.27-1.8-5.63-2.7-10.1-2.7h-15.01v21.49Z"/>
        <path class="cls-3" d="M640.72,753.75c-8.21,0-15.23-1.62-21.06-4.86s-10.31-7.79-13.45-13.66c-3.13-5.87-4.7-12.8-4.7-20.79,0-5.98.88-11.36,2.65-16.15,1.76-4.79,4.34-8.89,7.72-12.31,3.38-3.42,7.51-6.06,12.37-7.94,4.86-1.87,10.35-2.81,16.47-2.81,3.6,0,7.25.45,10.96,1.35,3.71.9,6.93,2.18,9.67,3.83,1.8,1.01,3.02,2.27,3.67,3.78.65,1.51.85,3.02.59,4.54-.25,1.51-.86,2.81-1.84,3.89-.97,1.08-2.18,1.76-3.62,2.05-1.44.29-3.06-.04-4.86-.97-2.16-1.3-4.43-2.23-6.8-2.81-2.38-.58-4.79-.86-7.24-.86-4.82,0-8.87.96-12.15,2.86-3.28,1.91-5.74,4.66-7.4,8.26-1.66,3.6-2.48,8.03-2.48,13.28s.83,9.61,2.48,13.28c1.66,3.67,4.12,6.46,7.4,8.37,3.28,1.91,7.33,2.86,12.15,2.86,2.3,0,4.66-.29,7.07-.86,2.41-.58,4.73-1.47,6.97-2.7,1.87-.93,3.55-1.28,5.02-1.03,1.47.25,2.7.9,3.67,1.94.97,1.04,1.58,2.29,1.84,3.73.25,1.44.09,2.88-.49,4.32-.58,1.44-1.66,2.67-3.24,3.67-2.66,1.8-5.94,3.21-9.83,4.21-3.89,1.01-7.74,1.51-11.56,1.51Z"/>
        <path class="cls-3" d="M681.86,753.53c-2.74,0-4.82-.76-6.26-2.27-1.44-1.51-2.16-3.63-2.16-6.37v-60.8c0-2.74.72-4.86,2.16-6.37,1.44-1.51,3.53-2.27,6.26-2.27s4.71.76,6.16,2.27c1.44,1.51,2.16,3.64,2.16,6.37v22.9h35.42v-22.9c0-2.74.72-4.86,2.16-6.37,1.44-1.51,3.49-2.27,6.16-2.27s4.82.76,6.26,2.27c1.44,1.51,2.16,3.64,2.16,6.37v60.8c0,2.74-.72,4.86-2.16,6.37-1.44,1.51-3.53,2.27-6.26,2.27s-4.72-.76-6.16-2.27c-1.44-1.51-2.16-3.63-2.16-6.37v-23.98h-35.42v23.98c0,2.74-.7,4.86-2.11,6.37s-3.47,2.27-6.21,2.27Z"/>
        <path class="cls-3" d="M762.21,752.56c-2.81,0-4.97-.76-6.48-2.27-1.51-1.51-2.27-3.67-2.27-6.48v-58.64c0-2.81.76-4.97,2.27-6.48,1.51-1.51,3.67-2.27,6.48-2.27h37.69c2.16,0,3.8.56,4.91,1.67,1.12,1.12,1.67,2.72,1.67,4.81s-.56,3.8-1.67,4.91c-1.12,1.12-2.75,1.67-4.91,1.67h-30.46v17.82h27.97c2.23,0,3.9.56,5.02,1.67,1.12,1.12,1.67,2.75,1.67,4.91s-.56,3.8-1.67,4.91c-1.12,1.12-2.79,1.67-5.02,1.67h-27.97v19.01h30.46c2.16,0,3.8.56,4.91,1.67,1.12,1.12,1.67,2.72,1.67,4.81s-.56,3.8-1.67,4.91c-1.12,1.12-2.75,1.67-4.91,1.67h-37.69Z"/>
      </g>
    </g>
  </g>
</svg>