<?xml version="1.0" encoding="UTF-8"?>
<svg id="Ebene_2" xmlns="http://www.w3.org/2000/svg" viewBox="0 0 993.93 845.39">
  <defs>
    <style>
      .cls-1 {
        fill: #f1b7a8;
      }

      .cls-2 {
        fill: #feeadc;
      }

      .cls-3 {
        fill: #f0825d;
      }
    </style>
  </defs>
  <g id="Ebene_1-2" data-name="Ebene_1">
    <g>
      <rect class="cls-2" x="0" width="993.93" height="845.39" rx="95.41" ry="95.41"/>
      <g>
        <path class="cls-3" d="M198.5,753.53c-2.74,0-4.82-.76-6.26-2.27-1.44-1.51-2.16-3.63-2.16-6.37v-59.94c0-2.81.74-4.93,2.21-6.37,1.47-1.44,3.58-2.16,6.32-2.16h26.24c8.49,0,15.05,2.05,19.66,6.16,4.61,4.1,6.91,9.83,6.91,17.17,0,4.75-1.04,8.86-3.13,12.31-2.09,3.46-5.09,6.12-9.02,7.99-3.93,1.87-8.73,2.81-14.42,2.81l.86-1.84h4.43c3.02,0,5.67.74,7.94,2.21,2.27,1.48,4.23,3.73,5.89,6.75l6.7,12.42c1.01,1.8,1.47,3.56,1.4,5.29-.07,1.73-.72,3.13-1.94,4.21-1.23,1.08-3.02,1.62-5.4,1.62s-4.3-.5-5.78-1.51c-1.48-1.01-2.79-2.55-3.94-4.64l-10.37-19.12c-1.08-2.01-2.39-3.38-3.94-4.1-1.55-.72-3.44-1.08-5.67-1.08h-8.21v21.82c0,2.74-.7,4.86-2.11,6.37s-3.47,2.27-6.21,2.27ZM206.81,710.98h15.01c4.46,0,7.83-.9,10.1-2.7,2.27-1.8,3.4-4.5,3.4-8.1s-1.13-6.19-3.4-7.99c-2.27-1.8-5.63-2.7-10.1-2.7h-15.01v21.49Z"/>
        <path class="cls-3" d="M269.78,752.56c-2.81,0-4.97-.76-6.48-2.27-1.51-1.51-2.27-3.67-2.27-6.48v-58.64c0-2.81.76-4.97,2.27-6.48,1.51-1.51,3.67-2.27,6.48-2.27h37.69c2.16,0,3.8.56,4.91,1.67,1.12,1.12,1.67,2.72,1.67,4.81s-.56,3.8-1.67,4.91c-1.12,1.12-2.75,1.67-4.91,1.67h-30.46v17.82h27.97c2.23,0,3.9.56,5.02,1.67,1.12,1.12,1.67,2.75,1.67,4.91s-.56,3.8-1.67,4.91c-1.12,1.12-2.79,1.67-5.02,1.67h-27.97v19.01h30.46c2.16,0,3.8.56,4.91,1.67,1.12,1.12,1.67,2.72,1.67,4.81s-.56,3.8-1.67,4.91c-1.12,1.12-2.75,1.67-4.91,1.67h-37.69Z"/>
        <path class="cls-3" d="M359.09,753.75c-8.21,0-15.23-1.62-21.06-4.86s-10.31-7.79-13.45-13.66c-3.13-5.87-4.7-12.8-4.7-20.79,0-5.98.88-11.36,2.65-16.15,1.76-4.79,4.34-8.89,7.72-12.31,3.38-3.42,7.51-6.06,12.37-7.94,4.86-1.87,10.35-2.81,16.47-2.81,3.6,0,7.25.45,10.96,1.35,3.71.9,6.93,2.18,9.67,3.83,1.8,1.01,3.02,2.27,3.67,3.78.65,1.51.85,3.02.59,4.54-.25,1.51-.86,2.81-1.84,3.89-.97,1.08-2.18,1.76-3.62,2.05-1.44.29-3.06-.04-4.86-.97-2.16-1.3-4.43-2.23-6.8-2.81-2.38-.58-4.79-.86-7.24-.86-4.82,0-8.87.96-12.15,2.86-3.28,1.91-5.74,4.66-7.4,8.26-1.66,3.6-2.48,8.03-2.48,13.28s.83,9.61,2.48,13.28c1.66,3.67,4.12,6.46,7.4,8.37,3.28,1.91,7.33,2.86,12.15,2.86,2.3,0,4.66-.29,7.07-.86,2.41-.58,4.73-1.47,6.97-2.7,1.87-.93,3.55-1.28,5.02-1.03,1.47.25,2.7.9,3.67,1.94.97,1.04,1.58,2.29,1.84,3.73.25,1.44.09,2.88-.49,4.32-.58,1.44-1.66,2.67-3.24,3.67-2.66,1.8-5.94,3.21-9.83,4.21-3.89,1.01-7.74,1.51-11.56,1.51Z"/>
        <path class="cls-3" d="M400.24,753.53c-2.74,0-4.82-.76-6.26-2.27-1.44-1.51-2.16-3.63-2.16-6.37v-60.8c0-2.74.72-4.86,2.16-6.37,1.44-1.51,3.53-2.27,6.26-2.27s4.71.76,6.16,2.27c1.44,1.51,2.16,3.64,2.16,6.37v22.9h35.42v-22.9c0-2.74.72-4.86,2.16-6.37,1.44-1.51,3.49-2.27,6.16-2.27s4.82.76,6.26,2.27c1.44,1.51,2.16,3.64,2.16,6.37v60.8c0,2.74-.72,4.86-2.16,6.37-1.44,1.51-3.53,2.27-6.26,2.27s-4.72-.76-6.16-2.27c-1.44-1.51-2.16-3.63-2.16-6.37v-23.98h-35.42v23.98c0,2.74-.7,4.86-2.11,6.37s-3.47,2.27-6.21,2.27Z"/>
        <path class="cls-3" d="M480.59,752.56c-2.81,0-4.97-.76-6.48-2.27-1.51-1.51-2.27-3.67-2.27-6.48v-58.64c0-2.81.76-4.97,2.27-6.48,1.51-1.51,3.67-2.27,6.48-2.27h37.69c2.16,0,3.8.56,4.91,1.67,1.12,1.12,1.67,2.72,1.67,4.81s-.56,3.8-1.67,4.91c-1.12,1.12-2.75,1.67-4.91,1.67h-30.46v17.82h27.97c2.23,0,3.9.56,5.02,1.67,1.12,1.12,1.67,2.75,1.67,4.91s-.56,3.8-1.67,4.91c-1.12,1.12-2.79,1.67-5.02,1.67h-27.97v19.01h30.46c2.16,0,3.8.56,4.91,1.67,1.12,1.12,1.67,2.72,1.67,4.81s-.56,3.8-1.67,4.91c-1.12,1.12-2.75,1.67-4.91,1.67h-37.69Z"/>
        <path class="cls-3" d="M541.4,753.53c-2.74,0-4.82-.76-6.26-2.27-1.44-1.51-2.16-3.63-2.16-6.37v-59.94c0-2.81.74-4.93,2.21-6.37,1.47-1.44,3.58-2.16,6.32-2.16h26.24c8.49,0,15.05,2.05,19.66,6.16,4.61,4.1,6.91,9.83,6.91,17.17,0,4.75-1.04,8.86-3.13,12.31-2.09,3.46-5.09,6.12-9.02,7.99-3.93,1.87-8.73,2.81-14.42,2.81l.86-1.84h4.43c3.02,0,5.67.74,7.94,2.21,2.27,1.48,4.23,3.73,5.89,6.75l6.7,12.42c1.01,1.8,1.47,3.56,1.4,5.29-.07,1.73-.72,3.13-1.94,4.21-1.23,1.08-3.02,1.62-5.4,1.62s-4.3-.5-5.78-1.51c-1.48-1.01-2.79-2.55-3.94-4.64l-10.37-19.12c-1.08-2.01-2.39-3.38-3.94-4.1-1.55-.72-3.44-1.08-5.67-1.08h-8.21v21.82c0,2.74-.7,4.86-2.11,6.37s-3.47,2.27-6.21,2.27ZM549.71,710.98h15.01c4.46,0,7.83-.9,10.1-2.7,2.27-1.8,3.4-4.5,3.4-8.1s-1.13-6.19-3.4-7.99c-2.27-1.8-5.63-2.7-10.1-2.7h-15.01v21.49Z"/>
        <path class="cls-3" d="M640.32,753.75c-8.21,0-15.23-1.62-21.06-4.86s-10.31-7.79-13.45-13.66c-3.13-5.87-4.7-12.8-4.7-20.79,0-5.98.88-11.36,2.65-16.15,1.76-4.79,4.34-8.89,7.72-12.31,3.38-3.42,7.51-6.06,12.37-7.94,4.86-1.87,10.35-2.81,16.47-2.81,3.6,0,7.25.45,10.96,1.35,3.71.9,6.93,2.18,9.67,3.83,1.8,1.01,3.02,2.27,3.67,3.78.65,1.51.85,3.02.59,4.54-.25,1.51-.86,2.81-1.84,3.89-.97,1.08-2.18,1.76-3.62,2.05-1.44.29-3.06-.04-4.86-.97-2.16-1.3-4.43-2.23-6.8-2.81-2.38-.58-4.79-.86-7.24-.86-4.82,0-8.87.96-12.15,2.86-3.28,1.91-5.74,4.66-7.4,8.26-1.66,3.6-2.48,8.03-2.48,13.28s.83,9.61,2.48,13.28c1.66,3.67,4.12,6.46,7.4,8.37,3.28,1.91,7.33,2.86,12.15,2.86,2.3,0,4.66-.29,7.07-.86,2.41-.58,4.73-1.47,6.97-2.7,1.87-.93,3.55-1.28,5.02-1.03,1.47.25,2.7.9,3.67,1.94.97,1.04,1.58,2.29,1.84,3.73.25,1.44.09,2.88-.49,4.32-.58,1.44-1.66,2.67-3.24,3.67-2.66,1.8-5.94,3.21-9.83,4.21-3.89,1.01-7.74,1.51-11.56,1.51Z"/>
        <path class="cls-3" d="M681.47,753.53c-2.74,0-4.83-.76-6.26-2.27-1.44-1.51-2.16-3.63-2.16-6.37v-60.8c0-2.74.72-4.86,2.16-6.37,1.44-1.51,3.53-2.27,6.26-2.27s4.71.76,6.16,2.27c1.44,1.51,2.16,3.64,2.16,6.37v22.9h35.42v-22.9c0-2.74.72-4.86,2.16-6.37,1.44-1.51,3.49-2.27,6.16-2.27s4.82.76,6.26,2.27c1.44,1.51,2.16,3.64,2.16,6.37v60.8c0,2.74-.72,4.86-2.16,6.37-1.44,1.51-3.53,2.27-6.26,2.27s-4.72-.76-6.16-2.27c-1.44-1.51-2.16-3.63-2.16-6.37v-23.98h-35.42v23.98c0,2.74-.7,4.86-2.11,6.37-1.4,1.51-3.47,2.27-6.21,2.27Z"/>
        <path class="cls-3" d="M761.82,752.56c-2.81,0-4.97-.76-6.48-2.27-1.51-1.51-2.27-3.67-2.27-6.48v-58.64c0-2.81.76-4.97,2.27-6.48,1.51-1.51,3.67-2.27,6.48-2.27h37.69c2.16,0,3.8.56,4.91,1.67,1.12,1.12,1.67,2.72,1.67,4.81s-.56,3.8-1.67,4.91c-1.12,1.12-2.75,1.67-4.91,1.67h-30.46v17.82h27.97c2.23,0,3.9.56,5.02,1.67,1.12,1.12,1.67,2.75,1.67,4.91s-.56,3.8-1.67,4.91c-1.12,1.12-2.79,1.67-5.02,1.67h-27.97v19.01h30.46c2.16,0,3.8.56,4.91,1.67,1.12,1.12,1.67,2.72,1.67,4.81s-.56,3.8-1.67,4.91c-1.12,1.12-2.75,1.67-4.91,1.67h-37.69Z"/>
      </g>
      <circle class="cls-1" cx="667.18" cy="461.27" r="140.77"/>
      <rect class="cls-1" x="158.91" y="205.55" width="735" height="194.63" rx="97.31" ry="97.31" transform="translate(-19.11 35.95) rotate(-3.84)"/>
      <rect class="cls-3" x="113.96" y="264.08" width="735" height="194.63" rx="97.31" ry="97.31"/>
      <g>
        <path class="cls-3" d="M605.7,383.39l146.71,90.1c2.18,1.34,1.43,4.68-1.19,5.34l-73.32,18.49c-.7.18-1.33.58-1.78,1.14l-49.51,61.68c-1.7,2.12-5.04,1.39-5.34-1.15l-20.33-172.55c-.29-2.49,2.62-4.36,4.76-3.05Z"/>
        <path class="cls-2" d="M624.09,568.38c-.93,0-1.87-.13-2.79-.39-3.78-1.08-6.51-4.3-6.97-8.18l-20.33-172.55c-.45-3.84,1.33-7.54,4.65-9.67,3.32-2.12,7.43-2.19,10.72-.16h0l146.71,90.1c3.33,2.04,5.09,5.87,4.5,9.75-.62,4.06-3.62,7.33-7.64,8.35l-72.12,18.19-48.74,60.71c-1.99,2.48-4.94,3.86-7.99,3.86ZM608.83,393.52l18.24,154.87,43.6-54.31c1.4-1.74,3.36-3,5.53-3.55l64.22-16.2-131.59-80.82ZM602.04,389.35h0s0,0,.01,0h-.01Z"/>
      </g>
      <g>
        <path class="cls-2" d="M247.64,397.17c-2.16,0-4-.52-5.51-1.57-1.51-1.04-2.74-2.72-3.67-5.02l-15.23-37.69c-.79-2.02-1.04-3.8-.76-5.35.29-1.55,1.06-2.81,2.32-3.78,1.26-.97,3.01-1.46,5.24-1.46,1.87,0,3.42.45,4.64,1.35,1.22.9,2.27,2.61,3.13,5.13l11.88,31.64h-2.48l12.31-33.05c.58-1.73,1.42-3.01,2.54-3.83,1.12-.83,2.57-1.24,4.37-1.24s3.26.43,4.38,1.3c1.12.86,2,2.12,2.65,3.78l12.1,33.05h-2.05l11.77-32.08c.86-2.3,1.98-3.89,3.35-4.75,1.37-.86,2.84-1.3,4.43-1.3,2.01,0,3.58.5,4.7,1.51,1.12,1.01,1.76,2.31,1.94,3.89.18,1.58-.13,3.31-.92,5.18l-15.12,37.69c-.86,2.23-2.07,3.89-3.62,4.97-1.55,1.08-3.4,1.62-5.56,1.62s-3.91-.54-5.45-1.62c-1.55-1.08-2.79-2.74-3.73-4.97l-12.96-33.7h7.02l-12.64,33.59c-.86,2.23-2.05,3.91-3.56,5.02-1.51,1.12-3.35,1.67-5.51,1.67Z"/>
        <path class="cls-2" d="M341.06,397.17c-2.16,0-4-.52-5.51-1.57-1.51-1.04-2.74-2.72-3.67-5.02l-15.23-37.69c-.79-2.02-1.04-3.8-.76-5.35.29-1.55,1.06-2.81,2.32-3.78,1.26-.97,3-1.46,5.24-1.46,1.87,0,3.42.45,4.64,1.35,1.22.9,2.27,2.61,3.13,5.13l11.88,31.64h-2.48l12.31-33.05c.58-1.73,1.42-3.01,2.54-3.83,1.12-.83,2.57-1.24,4.37-1.24s3.26.43,4.37,1.3c1.12.86,2,2.12,2.65,3.78l12.1,33.05h-2.05l11.77-32.08c.86-2.3,1.98-3.89,3.35-4.75,1.37-.86,2.84-1.3,4.43-1.3,2.02,0,3.58.5,4.7,1.51,1.12,1.01,1.76,2.31,1.94,3.89.18,1.58-.13,3.31-.92,5.18l-15.12,37.69c-.86,2.23-2.07,3.89-3.62,4.97-1.55,1.08-3.4,1.62-5.56,1.62s-3.91-.54-5.45-1.62c-1.55-1.08-2.79-2.74-3.73-4.97l-12.96-33.7h7.02l-12.64,33.59c-.86,2.23-2.05,3.91-3.56,5.02-1.51,1.12-3.35,1.67-5.51,1.67Z"/>
        <path class="cls-2" d="M434.48,397.17c-2.16,0-4-.52-5.51-1.57s-2.74-2.72-3.67-5.02l-15.23-37.69c-.79-2.02-1.04-3.8-.76-5.35.29-1.55,1.06-2.81,2.32-3.78,1.26-.97,3-1.46,5.24-1.46,1.87,0,3.42.45,4.64,1.35,1.22.9,2.27,2.61,3.13,5.13l11.88,31.64h-2.48l12.31-33.05c.58-1.73,1.42-3.01,2.54-3.83,1.12-.83,2.57-1.24,4.37-1.24s3.26.43,4.37,1.3c1.12.86,2,2.12,2.65,3.78l12.1,33.05h-2.05l11.77-32.08c.86-2.3,1.98-3.89,3.35-4.75,1.37-.86,2.84-1.3,4.43-1.3,2.01,0,3.58.5,4.7,1.51,1.12,1.01,1.76,2.31,1.94,3.89.18,1.58-.13,3.31-.92,5.18l-15.12,37.69c-.86,2.23-2.07,3.89-3.62,4.97-1.55,1.08-3.4,1.62-5.56,1.62s-3.91-.54-5.45-1.62c-1.55-1.08-2.79-2.74-3.73-4.97l-12.96-33.7h7.02l-12.64,33.59c-.86,2.23-2.05,3.91-3.56,5.02-1.51,1.12-3.35,1.67-5.51,1.67Z"/>
      </g>
      <circle class="cls-2" cx="505.08" cy="388.84" r="8.32"/>
    </g>
  </g>
</svg>