<?xml version="1.0" encoding="UTF-8"?>
<svg id="Ebene_2" xmlns="http://www.w3.org/2000/svg" viewBox="0 0 993.93 845.39">
  <defs>
    <style>
      .cls-1 {
        fill: #f1b7a8;
      }

      .cls-2 {
        fill: #feeadc;
      }

      .cls-3 {
        fill: #f0825d;
      }
    </style>
  </defs>
  <g id="Ebene_1-2" data-name="Ebene_1">
    <g>
      <rect class="cls-2" x="0" width="993.93" height="845.39" rx="95.41" ry="95.41"/>
      <g>
        <path class="cls-3" d="M228.75,757.03c-2.74,0-4.82-.76-6.26-2.27-1.44-1.51-2.16-3.63-2.16-6.37v-59.94c0-2.81.74-4.93,2.21-6.37,1.47-1.44,3.58-2.16,6.32-2.16h26.24c8.49,0,15.05,2.05,19.66,6.16,4.61,4.1,6.91,9.83,6.91,17.17,0,4.75-1.04,8.86-3.13,12.31-2.09,3.46-5.09,6.12-9.02,7.99-3.93,1.87-8.73,2.81-14.42,2.81l.86-1.84h4.43c3.02,0,5.67.74,7.94,2.21,2.27,1.48,4.23,3.73,5.89,6.75l6.7,12.42c1.01,1.8,1.47,3.56,1.4,5.29-.07,1.73-.72,3.13-1.94,4.21-1.23,1.08-3.02,1.62-5.4,1.62s-4.3-.5-5.78-1.51c-1.48-1.01-2.79-2.55-3.94-4.64l-10.37-19.12c-1.08-2.01-2.39-3.38-3.94-4.1-1.55-.72-3.44-1.08-5.67-1.08h-8.21v21.82c0,2.74-.7,4.86-2.11,6.37-1.4,1.51-3.47,2.27-6.21,2.27ZM237.07,714.48h15.01c4.46,0,7.83-.9,10.1-2.7,2.27-1.8,3.4-4.5,3.4-8.1s-1.13-6.19-3.4-7.99c-2.27-1.8-5.63-2.7-10.1-2.7h-15.01v21.49Z"/>
        <path class="cls-3" d="M300.03,756.06c-2.81,0-4.97-.76-6.48-2.27s-2.27-3.67-2.27-6.48v-58.64c0-2.81.76-4.97,2.27-6.48,1.51-1.51,3.67-2.27,6.48-2.27h37.69c2.16,0,3.8.56,4.91,1.67,1.12,1.12,1.67,2.72,1.67,4.81s-.56,3.8-1.67,4.91c-1.12,1.12-2.75,1.67-4.91,1.67h-30.46v17.82h27.97c2.23,0,3.9.56,5.02,1.67,1.12,1.12,1.67,2.75,1.67,4.91s-.56,3.8-1.67,4.91c-1.12,1.12-2.79,1.67-5.02,1.67h-27.97v19.01h30.46c2.16,0,3.8.56,4.91,1.67,1.12,1.12,1.67,2.72,1.67,4.81s-.56,3.8-1.67,4.91c-1.12,1.12-2.75,1.67-4.91,1.67h-37.69Z"/>
        <path class="cls-3" d="M360.94,757.03c-2.74,0-4.84-.76-6.32-2.27-1.48-1.51-2.21-3.71-2.21-6.59v-59.51c0-2.81.76-4.97,2.27-6.48,1.51-1.51,3.67-2.27,6.48-2.27h36.94c2.16,0,3.8.56,4.91,1.67,1.12,1.12,1.67,2.72,1.67,4.81s-.56,3.8-1.67,4.91c-1.12,1.12-2.75,1.67-4.91,1.67h-28.94v18.58h26.57c2.16,0,3.82.56,4.97,1.67,1.15,1.12,1.73,2.72,1.73,4.81s-.58,3.71-1.73,4.86c-1.15,1.15-2.81,1.73-4.97,1.73h-26.57v23.54c0,5.9-2.74,8.86-8.21,8.86Z"/>
        <path class="cls-3" d="M418.29,756.06c-2.74,0-4.84-.76-6.32-2.27-1.48-1.51-2.21-3.6-2.21-6.26v-59.29c0-2.81.72-4.93,2.16-6.37,1.44-1.44,3.53-2.16,6.26-2.16s4.71.72,6.16,2.16c1.44,1.44,2.16,3.56,2.16,6.37v53.68h28.94c2.3,0,4.09.61,5.35,1.84,1.26,1.22,1.89,2.95,1.89,5.18s-.63,4.07-1.89,5.29c-1.26,1.23-3.04,1.84-5.35,1.84h-37.15Z"/>
        <path class="cls-3" d="M476.18,756.06c-2.81,0-4.97-.76-6.48-2.27s-2.27-3.67-2.27-6.48v-58.64c0-2.81.76-4.97,2.27-6.48,1.51-1.51,3.67-2.27,6.48-2.27h37.69c2.16,0,3.8.56,4.91,1.67,1.12,1.12,1.67,2.72,1.67,4.81s-.56,3.8-1.67,4.91c-1.12,1.12-2.75,1.67-4.91,1.67h-30.46v17.82h27.97c2.23,0,3.9.56,5.02,1.67,1.12,1.12,1.67,2.75,1.67,4.91s-.56,3.8-1.67,4.91c-1.12,1.12-2.79,1.67-5.02,1.67h-27.97v19.01h30.46c2.16,0,3.8.56,4.91,1.67,1.12,1.12,1.67,2.72,1.67,4.81s-.56,3.8-1.67,4.91c-1.12,1.12-2.75,1.67-4.91,1.67h-37.69Z"/>
        <path class="cls-3" d="M532.99,757.03c-2.16,0-3.94-.59-5.35-1.78-1.4-1.19-2.21-2.66-2.43-4.43-.22-1.76.36-3.58,1.73-5.45l23.87-31.64v7.45l-22.9-30.46c-1.37-1.94-1.96-3.8-1.78-5.56.18-1.76.97-3.24,2.38-4.43,1.4-1.19,3.15-1.78,5.24-1.78,1.8,0,3.36.43,4.7,1.3,1.33.86,2.68,2.23,4.05,4.1l17.82,24.62h-5.4l17.71-24.62c1.37-1.94,2.74-3.33,4.1-4.16,1.37-.83,2.95-1.24,4.75-1.24,2.16,0,3.94.58,5.35,1.73,1.4,1.15,2.2,2.61,2.38,4.37.18,1.77-.45,3.66-1.89,5.67l-23,30.46v-7.45l23.76,31.64c1.44,1.87,2.07,3.69,1.89,5.45-.18,1.76-.97,3.24-2.38,4.43-1.4,1.19-3.22,1.78-5.45,1.78-1.73,0-3.26-.43-4.59-1.3-1.33-.86-2.72-2.27-4.16-4.21l-18.58-25.6h5.51l-18.58,25.6c-1.37,1.94-2.74,3.35-4.1,4.21-1.37.86-2.92,1.3-4.64,1.3Z"/>
        <path class="cls-3" d="M606.43,757.03c-2.74,0-4.82-.76-6.26-2.27-1.44-1.51-2.16-3.63-2.16-6.37v-60.8c0-2.74.72-4.86,2.16-6.37,1.44-1.51,3.53-2.27,6.26-2.27s4.71.76,6.16,2.27c1.44,1.51,2.16,3.64,2.16,6.37v60.8c0,2.74-.7,4.86-2.11,6.37-1.4,1.51-3.47,2.27-6.21,2.27Z"/>
        <path class="cls-3" d="M661.18,757.25c-7.49,0-14.06-1.64-19.71-4.91-5.65-3.28-10.04-7.87-13.18-13.77-3.13-5.9-4.7-12.78-4.7-20.63,0-5.97.88-11.36,2.65-16.15,1.76-4.79,4.3-8.89,7.61-12.31,3.31-3.42,7.29-6.07,11.93-7.94,4.64-1.87,9.77-2.81,15.39-2.81,7.63,0,14.26,1.62,19.87,4.86s9.99,7.79,13.12,13.66c3.13,5.87,4.7,12.73,4.7,20.57,0,5.98-.9,11.38-2.7,16.2-1.8,4.82-4.36,8.96-7.67,12.42-3.31,3.46-7.27,6.12-11.88,7.99-4.61,1.87-9.76,2.81-15.44,2.81ZM661.18,742.99c4.25,0,7.87-.99,10.85-2.97,2.99-1.98,5.29-4.86,6.91-8.64s2.43-8.26,2.43-13.45c0-7.92-1.77-14.06-5.29-18.41-3.53-4.36-8.5-6.53-14.9-6.53-4.18,0-7.78.97-10.8,2.92-3.02,1.94-5.33,4.79-6.91,8.53-1.58,3.75-2.38,8.25-2.38,13.5,0,7.85,1.76,13.99,5.29,18.41,3.53,4.43,8.46,6.64,14.8,6.64Z"/>
        <path class="cls-3" d="M715.4,757.03c-2.52,0-4.45-.7-5.78-2.11-1.33-1.4-2-3.4-2-5.99v-61.56c0-2.74.66-4.82,2-6.26,1.33-1.44,3.11-2.16,5.35-2.16,1.94,0,3.44.38,4.48,1.13,1.04.76,2.25,2,3.62,3.73l37.91,48.28h-2.92v-45.14c0-2.52.66-4.48,2-5.89,1.33-1.4,3.26-2.11,5.78-2.11s4.45.7,5.78,2.11c1.33,1.4,2,3.37,2,5.89v62.32c0,2.38-.61,4.27-1.84,5.67-1.23,1.4-2.88,2.11-4.97,2.11s-3.62-.4-4.81-1.19c-1.19-.79-2.47-2.05-3.83-3.78l-37.8-48.28h2.81v45.14c0,2.59-.65,4.59-1.94,5.99-1.3,1.4-3.24,2.11-5.83,2.11Z"/>
      </g>
      <g>
        <circle class="cls-1" cx="520.56" cy="345.5" r="190.49"/>
        <circle class="cls-3" cx="475.35" cy="368.78" r="190.49"/>
        <g>
          <path class="cls-3" d="M357.43,577.42c-16.78-57.7-51.5-95.37-104.38-113.27-6.73-2.28-6.73-11.76,0-14.04,52.89-17.91,87.6-55.58,104.38-113.27,2.07-7.1,12.15-7.1,14.21,0,16.78,57.69,51.49,95.37,104.38,113.27,6.73,2.28,6.73,11.76,0,14.04-52.88,17.91-87.6,55.57-104.38,113.27-2.07,7.1-12.15,7.1-14.21,0Z"/>
          <path class="cls-2" d="M364.54,589.75c-6.47,0-12.02-4.17-13.83-10.37-8.05-27.67-20.52-50.81-37.08-68.77-16.49-17.9-37.63-31.29-62.83-39.83-5.95-2.02-9.8-7.37-9.8-13.65s3.85-11.63,9.8-13.65c25.2-8.53,46.34-21.93,62.83-39.83,16.55-17.97,29.03-41.1,37.07-68.77,1.8-6.2,7.36-10.37,13.83-10.37,6.47,0,12.02,4.17,13.83,10.37,8.05,27.67,20.52,50.8,37.07,68.77,16.49,17.9,37.63,31.3,62.83,39.83,5.95,2.02,9.8,7.37,9.8,13.65s-3.85,11.63-9.8,13.65c-25.2,8.53-46.33,21.93-62.83,39.83-16.56,17.97-29.03,41.1-37.08,68.77-1.8,6.2-7.36,10.37-13.83,10.37ZM364.54,338.5c-.3,0-.32.07-.39.28-17.36,59.69-53.98,99.37-108.86,117.95-.19.07-.29.1-.29.39s.1.32.29.39c54.87,18.58,91.5,58.26,108.86,117.95h0c.06.21.08.28.39.28s.32-.07.39-.28c17.36-59.69,53.98-99.37,108.86-117.95.19-.07.29-.1.29-.39s-.1-.32-.29-.39c-54.87-18.58-91.5-58.26-108.86-117.95-.06-.21-.08-.28-.39-.28Z"/>
        </g>
        <g>
          <path class="cls-3" d="M526.82,441.47c-11.28-38.79-34.61-64.1-70.16-76.14-4.52-1.53-4.52-7.91,0-9.44,35.55-12.04,58.88-37.36,70.16-76.14,1.39-4.77,8.17-4.77,9.55,0,11.28,38.78,34.61,64.1,70.16,76.14,4.52,1.53,4.52,7.91,0,9.44-35.55,12.04-58.88,37.35-70.16,76.14-1.39,4.77-8.17,4.77-9.55,0Z"/>
          <path class="cls-2" d="M531.59,452.05s0,0,0,0c-5.38,0-10-3.47-11.5-8.63h0c-10.69-36.74-32.17-60.12-65.68-71.46-4.95-1.67-8.15-6.13-8.15-11.35s3.2-9.67,8.15-11.35c33.51-11.35,55-34.72,65.68-71.46,1.5-5.16,6.12-8.63,11.5-8.63s10,3.47,11.5,8.63c10.69,36.74,32.17,60.12,65.69,71.46,4.95,1.67,8.15,6.13,8.15,11.35s-3.2,9.67-8.15,11.35c-33.51,11.35-55,34.72-65.68,71.46-1.5,5.16-6.12,8.63-11.5,8.63ZM464.17,360.61c32.84,12.71,55.48,37.13,67.42,72.69,11.94-35.56,34.58-59.98,67.42-72.69-32.84-12.71-55.48-37.13-67.42-72.69-11.94,35.56-34.58,59.98-67.42,72.69Z"/>
        </g>
      </g>
    </g>
  </g>
</svg>