<?xml version="1.0" encoding="UTF-8"?>
<svg id="Ebene_2" xmlns="http://www.w3.org/2000/svg" viewBox="0 0 993.93 845.39">
  <defs>
    <style>
      .cls-1 {
        fill: #f1b7a8;
      }

      .cls-2 {
        fill: #feeadc;
      }

      .cls-3 {
        fill: #f0825d;
      }
    </style>
  </defs>
  <g id="Ebene_1-2" data-name="Ebene_1">
    <g>
      <rect class="cls-2" x="0" y="0" width="993.93" height="845.39" rx="95.41" ry="95.41"/>
      <g>
        <path class="cls-3" d="M221.03,752.36c-3.02,0-6.1-.23-9.23-.7-3.13-.47-6.12-1.13-8.96-2-2.85-.86-5.38-1.94-7.61-3.24-1.58-.86-2.7-2-3.35-3.4-.65-1.4-.88-2.82-.7-4.27.18-1.44.72-2.72,1.62-3.83.9-1.12,2.05-1.84,3.46-2.16,1.4-.32,2.97-.05,4.7.81,2.95,1.66,6.17,2.88,9.67,3.67,3.49.79,6.97,1.19,10.42,1.19,5.25,0,9-.81,11.23-2.43,2.23-1.62,3.35-3.65,3.35-6.1,0-2.09-.79-3.74-2.38-4.97-1.58-1.22-4.36-2.27-8.32-3.13l-12.2-2.59c-6.91-1.44-12.04-3.9-15.39-7.4-3.35-3.49-5.02-8.08-5.02-13.77,0-3.6.76-6.88,2.27-9.83,1.51-2.95,3.63-5.51,6.37-7.67,2.74-2.16,5.99-3.82,9.77-4.97,3.78-1.15,7.94-1.73,12.47-1.73,4.03,0,7.99.49,11.88,1.46,3.89.97,7.31,2.39,10.26,4.27,1.44.86,2.43,1.96,2.97,3.29.54,1.33.72,2.66.54,4-.18,1.33-.72,2.5-1.62,3.51-.9,1.01-2.04,1.66-3.4,1.94-1.37.29-3.02-.04-4.97-.97-2.38-1.22-4.9-2.12-7.56-2.7-2.66-.58-5.4-.86-8.21-.86-3.02,0-5.6.4-7.72,1.19-2.12.79-3.74,1.91-4.86,3.35-1.12,1.44-1.67,3.1-1.67,4.97,0,2.09.76,3.78,2.27,5.08,1.51,1.3,4.14,2.34,7.88,3.13l12.2,2.59c7.06,1.51,12.31,3.94,15.77,7.29,3.46,3.35,5.18,7.76,5.18,13.23,0,3.6-.72,6.86-2.16,9.77-1.44,2.92-3.53,5.42-6.26,7.51-2.74,2.09-6.01,3.69-9.83,4.81-3.82,1.12-8.1,1.67-12.85,1.67Z"/>
        <path class="cls-3" d="M299.98,752.36c-8.21,0-15.23-1.62-21.06-4.86-5.83-3.24-10.31-7.79-13.45-13.66-3.13-5.87-4.7-12.8-4.7-20.79,0-5.98.88-11.36,2.65-16.15,1.76-4.79,4.34-8.89,7.72-12.31,3.38-3.42,7.51-6.06,12.37-7.94,4.86-1.87,10.35-2.81,16.47-2.81,3.6,0,7.25.45,10.96,1.35,3.71.9,6.93,2.18,9.67,3.83,1.8,1.01,3.02,2.27,3.67,3.78.65,1.51.85,3.02.59,4.54-.25,1.51-.86,2.81-1.84,3.89-.97,1.08-2.18,1.76-3.62,2.05-1.44.29-3.06-.04-4.86-.97-2.16-1.3-4.43-2.23-6.8-2.81-2.38-.58-4.79-.86-7.24-.86-4.83,0-8.87.96-12.15,2.86-3.28,1.91-5.74,4.66-7.4,8.26-1.66,3.6-2.48,8.03-2.48,13.28s.83,9.61,2.48,13.28c1.66,3.67,4.12,6.46,7.4,8.37,3.28,1.91,7.33,2.86,12.15,2.86,2.3,0,4.66-.29,7.07-.86,2.41-.58,4.73-1.47,6.97-2.7,1.87-.93,3.54-1.28,5.02-1.03,1.48.25,2.7.9,3.67,1.94.97,1.04,1.58,2.29,1.84,3.73.25,1.44.09,2.88-.49,4.32-.58,1.44-1.66,2.66-3.24,3.67-2.66,1.8-5.94,3.2-9.83,4.21-3.89,1.01-7.74,1.51-11.56,1.51Z"/>
        <path class="cls-3" d="M345.34,752.14c-2.74,0-4.83-.76-6.26-2.27-1.44-1.51-2.16-3.63-2.16-6.37v-60.8c0-2.74.72-4.86,2.16-6.37,1.44-1.51,3.53-2.27,6.26-2.27s4.71.76,6.16,2.27c1.44,1.51,2.16,3.64,2.16,6.37v22.9h35.42v-22.9c0-2.74.72-4.86,2.16-6.37,1.44-1.51,3.49-2.27,6.16-2.27s4.82.76,6.26,2.27c1.44,1.51,2.16,3.64,2.16,6.37v60.8c0,2.74-.72,4.86-2.16,6.37-1.44,1.51-3.53,2.27-6.26,2.27s-4.72-.76-6.16-2.27c-1.44-1.51-2.16-3.63-2.16-6.37v-23.98h-35.42v23.98c0,2.74-.7,4.86-2.11,6.37-1.4,1.51-3.47,2.27-6.21,2.27Z"/>
        <path class="cls-3" d="M429.58,752.14c-2.74,0-4.82-.76-6.26-2.27-1.44-1.51-2.16-3.63-2.16-6.37v-59.94c0-2.81.74-4.93,2.21-6.37,1.47-1.44,3.58-2.16,6.32-2.16h26.24c8.49,0,15.05,2.05,19.66,6.16,4.61,4.1,6.91,9.83,6.91,17.17,0,4.75-1.04,8.86-3.13,12.31-2.09,3.46-5.09,6.12-9.02,7.99-3.93,1.87-8.73,2.81-14.42,2.81l.86-1.84h4.43c3.02,0,5.67.74,7.94,2.21,2.27,1.48,4.23,3.73,5.89,6.75l6.7,12.42c1.01,1.8,1.48,3.56,1.4,5.29-.07,1.73-.72,3.13-1.94,4.21-1.22,1.08-3.02,1.62-5.4,1.62s-4.3-.5-5.78-1.51c-1.48-1.01-2.79-2.56-3.94-4.64l-10.37-19.12c-1.08-2.01-2.39-3.38-3.94-4.1-1.55-.72-3.44-1.08-5.67-1.08h-8.21v21.82c0,2.74-.7,4.86-2.11,6.37-1.4,1.51-3.47,2.27-6.21,2.27ZM437.89,709.59h15.01c4.46,0,7.83-.9,10.1-2.7,2.27-1.8,3.4-4.5,3.4-8.1s-1.13-6.19-3.4-7.99c-2.27-1.8-5.63-2.7-10.1-2.7h-15.01v21.49Z"/>
        <path class="cls-3" d="M505.07,751.17c-2.81,0-4.97-.76-6.48-2.27-1.51-1.51-2.27-3.67-2.27-6.48v-58.64c0-2.81.76-4.97,2.27-6.48,1.51-1.51,3.67-2.27,6.48-2.27h37.69c2.16,0,3.8.56,4.91,1.67,1.12,1.12,1.67,2.72,1.67,4.81s-.56,3.8-1.67,4.91c-1.12,1.12-2.75,1.67-4.91,1.67h-30.46v17.82h27.97c2.23,0,3.9.56,5.02,1.67,1.12,1.12,1.67,2.75,1.67,4.91s-.56,3.8-1.67,4.91c-1.12,1.12-2.79,1.67-5.02,1.67h-27.97v19.01h30.46c2.16,0,3.8.56,4.91,1.67,1.12,1.12,1.67,2.72,1.67,4.81s-.56,3.8-1.67,4.91-2.75,1.67-4.91,1.67h-37.69Z"/>
        <path class="cls-3" d="M570.08,752.14c-2.74,0-4.83-.76-6.26-2.27-1.44-1.51-2.16-3.63-2.16-6.37v-60.8c0-2.74.72-4.86,2.16-6.37,1.44-1.51,3.53-2.27,6.26-2.27s4.71.76,6.16,2.27c1.44,1.51,2.16,3.64,2.16,6.37v60.8c0,2.74-.7,4.86-2.11,6.37-1.4,1.51-3.47,2.27-6.21,2.27Z"/>
        <path class="cls-3" d="M602.48,751.17c-2.81,0-4.97-.76-6.48-2.27-1.51-1.51-2.27-3.67-2.27-6.48v-58.64c0-2.81.76-4.97,2.27-6.48,1.51-1.51,3.67-2.27,6.48-2.27h26.14c5.4,0,10.01.79,13.82,2.38,3.82,1.58,6.71,3.85,8.69,6.8,1.98,2.95,2.97,6.48,2.97,10.58,0,4.54-1.3,8.39-3.89,11.56-2.59,3.17-6.16,5.29-10.69,6.37v-1.73c5.25.94,9.34,3.01,12.26,6.21,2.92,3.2,4.37,7.36,4.37,12.47,0,6.77-2.34,12.04-7.02,15.82-4.68,3.78-11.12,5.67-19.33,5.67h-27.32ZM609.72,706.35h15.98c4.17,0,7.27-.79,9.29-2.38,2.02-1.58,3.02-3.96,3.02-7.13s-1.01-5.44-3.02-7.02c-2.02-1.58-5.11-2.38-9.29-2.38h-15.98v18.9ZM609.72,738.75h17.82c4.32,0,7.49-.85,9.5-2.54,2.01-1.69,3.02-4.19,3.02-7.51s-1.01-5.79-3.02-7.45c-2.02-1.66-5.18-2.48-9.5-2.48h-17.82v19.98Z"/>
        <path class="cls-3" d="M677.54,751.17c-2.81,0-4.97-.76-6.48-2.27-1.51-1.51-2.27-3.67-2.27-6.48v-58.64c0-2.81.76-4.97,2.27-6.48,1.51-1.51,3.67-2.27,6.48-2.27h37.69c2.16,0,3.8.56,4.91,1.67,1.12,1.12,1.67,2.72,1.67,4.81s-.56,3.8-1.67,4.91c-1.12,1.12-2.75,1.67-4.91,1.67h-30.46v17.82h27.97c2.23,0,3.9.56,5.02,1.67,1.12,1.12,1.67,2.75,1.67,4.91s-.56,3.8-1.67,4.91c-1.12,1.12-2.79,1.67-5.02,1.67h-27.97v19.01h30.46c2.16,0,3.8.56,4.91,1.67,1.12,1.12,1.67,2.72,1.67,4.81s-.56,3.8-1.67,4.91c-1.12,1.12-2.75,1.67-4.91,1.67h-37.69Z"/>
        <path class="cls-3" d="M741.91,752.14c-2.52,0-4.45-.7-5.78-2.11-1.33-1.4-2-3.4-2-5.99v-61.56c0-2.74.67-4.82,2-6.26,1.33-1.44,3.11-2.16,5.35-2.16,1.94,0,3.44.38,4.48,1.13,1.04.76,2.25,2,3.62,3.73l37.91,48.28h-2.92v-45.14c0-2.52.67-4.48,2-5.89,1.33-1.4,3.26-2.11,5.78-2.11s4.44.7,5.78,2.11c1.33,1.4,2,3.37,2,5.89v62.32c0,2.38-.61,4.27-1.84,5.67-1.22,1.4-2.88,2.11-4.97,2.11s-3.62-.4-4.81-1.19c-1.19-.79-2.47-2.05-3.83-3.78l-37.8-48.28h2.81v45.14c0,2.59-.65,4.59-1.94,5.99-1.3,1.4-3.24,2.11-5.83,2.11Z"/>
      </g>
      <circle class="cls-1" cx="633.42" cy="369.02" r="189.48"/>
      <polygon class="cls-2" points="475.75 499.07 532.09 427.31 570.03 451.63 583.09 485.43 538.61 522.79 506 529.32 475.75 499.07"/>
      <g>
        <path class="cls-3" d="M650.52,431.36l-93.13,137.01c-.81,1.19-2.34,1.61-3.66,1.04-27.2-11.83-86.65-.41-109.38,4.65-.85.19-1.43-.84-.83-1.47l77.34-80.79c.79-.83,2.01-1.01,3.05-.52,6.43,3.07,14.37,1.84,19.56-3.59,6.48-6.76,6.25-17.5-.52-23.98-6.77-6.48-17.51-6.24-23.98.52-5.2,5.43-6.08,13.41-2.73,19.7.54,1.01.41,2.24-.38,3.07l-77.34,80.79c-.6.63-1.66.1-1.51-.76,4.06-22.93,12.89-82.82-.11-109.48-.63-1.29-.28-2.83.88-3.7l132.82-99.01,39.97,38.26,39.96,38.26Z"/>
        <path class="cls-3" d="M649.58,135.85h139.82c11.94,0,21.63,9.69,21.63,21.63v264.88h-183.08V157.48c0-11.94,9.69-21.63,21.63-21.63Z" transform="translate(392.8 -420.06) rotate(43.75)"/>
        <g>
          <line class="cls-2" x1="558.72" y1="314.68" x2="690.97" y2="441.28"/>
          <g>
            <path class="cls-2" d="M653.1,472.97c-.26,0-.64-.07-.98-.39l-122.98-117.74c-.35-.33-.43-.72-.44-.99,0-.27.06-.66.39-1.01l35.77-37.36,125.02,119.69-35.77,37.36c-.36.38-.8.44-1.02.44h0Z"/>
            <path class="cls-3" d="M565.02,322.55l117.8,112.78-5.07,5.3-24.76,25.86-117.8-112.78,26.34-27.51,3.49-3.65M564.72,308.41l-10.41,10.87h0s-28.82,30.1-28.82,30.1c-2.45,2.56-2.36,6.62.2,9.07l122.98,117.74c1.24,1.19,2.84,1.78,4.43,1.78,1.69,0,3.37-.66,4.63-1.98l27.24-28.45h0s11.99-12.52,11.99-12.52l-132.24-126.61h0Z"/>
          </g>
        </g>
      </g>
      <path class="cls-3" d="M133.14,155.07c60.29,14.88,139.66,41.81,183.95,86.87,24.89,25.83,32.35,56.47,19.49,90.43-12.19,32.32-36.51,57.73-51.6,88.09-12.16,24.37-12.49,41.47,4.18,63.62,10.48,13.94,24.06,26.25,37.53,37.66,25.04,20.8,51.28,38.09,79.81,56.42,1.25.74,1.65,2.4.85,3.62-.5.78-1.35,1.2-2.21,1.19-53.11-1.81-117.46-27.4-154.25-66.5-18.68-19.85-29.85-46.5-25.56-74.06,6.05-38.84,35.61-65.57,57.83-94.33,12.34-16.38,23.94-31.63,25.33-51.48,1.69-51.37-99-101.89-140.3-121.05-12-5.58-24.24-10.84-36.54-15.72-1.29-.51-1.92-1.96-1.41-3.25.46-1.17,1.71-1.8,2.9-1.52h0Z"/>
    </g>
  </g>
</svg>