<?xml version="1.0" encoding="UTF-8"?>
<svg id="Ebene_2" xmlns="http://www.w3.org/2000/svg" viewBox="0 0 993.93 845.39">
  <defs>
    <style>
      .cls-1 {
        fill: #f1b7a8;
      }

      .cls-2 {
        fill: #feeadc;
      }

      .cls-3 {
        fill: #f0825d;
      }
    </style>
  </defs>
  <g id="Ebene_1-2" data-name="Ebene_1">
    <g>
      <rect class="cls-2" x="0" width="993.93" height="845.39" rx="95.41" ry="95.41"/>
      <g>
        <path class="cls-3" d="M349.12,753.66c-3.02,0-6.1-.23-9.23-.7-3.13-.47-6.12-1.13-8.96-2-2.85-.86-5.38-1.94-7.61-3.24-1.58-.86-2.7-2-3.35-3.4-.65-1.4-.88-2.82-.7-4.27.18-1.44.72-2.72,1.62-3.83.9-1.12,2.05-1.84,3.46-2.16,1.4-.32,2.97-.05,4.7.81,2.95,1.66,6.17,2.88,9.67,3.67,3.49.79,6.97,1.19,10.42,1.19,5.25,0,9-.81,11.23-2.43,2.23-1.62,3.35-3.65,3.35-6.1,0-2.09-.79-3.74-2.38-4.97-1.58-1.22-4.36-2.27-8.32-3.13l-12.2-2.59c-6.91-1.44-12.04-3.9-15.39-7.4-3.35-3.49-5.02-8.08-5.02-13.77,0-3.6.76-6.88,2.27-9.83,1.51-2.95,3.63-5.51,6.37-7.67,2.74-2.16,5.99-3.82,9.77-4.97,3.78-1.15,7.94-1.73,12.47-1.73,4.03,0,7.99.49,11.88,1.46,3.89.97,7.31,2.39,10.26,4.27,1.44.86,2.43,1.96,2.97,3.29.54,1.33.72,2.66.54,4-.18,1.33-.72,2.5-1.62,3.51-.9,1.01-2.04,1.66-3.4,1.94-1.37.29-3.02-.04-4.97-.97-2.38-1.22-4.9-2.12-7.56-2.7-2.66-.58-5.4-.86-8.21-.86-3.02,0-5.6.4-7.72,1.19-2.12.79-3.74,1.91-4.86,3.35-1.12,1.44-1.67,3.1-1.67,4.97,0,2.09.76,3.78,2.27,5.08,1.51,1.3,4.14,2.34,7.88,3.13l12.2,2.59c7.06,1.51,12.31,3.94,15.77,7.29,3.46,3.35,5.18,7.76,5.18,13.23,0,3.6-.72,6.86-2.16,9.77-1.44,2.92-3.53,5.42-6.26,7.51-2.74,2.09-6.01,3.69-9.83,4.81-3.82,1.12-8.1,1.67-12.85,1.67Z"/>
        <path class="cls-3" d="M399.88,752.48c-2.81,0-4.97-.76-6.48-2.27-1.51-1.51-2.27-3.67-2.27-6.48v-58.64c0-2.81.76-4.97,2.27-6.48s3.67-2.27,6.48-2.27h37.69c2.16,0,3.8.56,4.91,1.67,1.12,1.12,1.67,2.72,1.67,4.81s-.56,3.8-1.67,4.91c-1.12,1.12-2.75,1.67-4.91,1.67h-30.46v17.82h27.97c2.23,0,3.9.56,5.02,1.67,1.12,1.12,1.67,2.75,1.67,4.91s-.56,3.8-1.67,4.91c-1.12,1.12-2.79,1.67-5.02,1.67h-27.97v19.01h30.46c2.16,0,3.8.56,4.91,1.67,1.12,1.12,1.67,2.72,1.67,4.81s-.56,3.8-1.67,4.91c-1.12,1.12-2.75,1.67-4.91,1.67h-37.69Z"/>
        <path class="cls-3" d="M464.89,753.45c-2.74,0-4.82-.76-6.26-2.27-1.44-1.51-2.16-3.63-2.16-6.37v-60.8c0-2.74.72-4.86,2.16-6.37,1.44-1.51,3.53-2.27,6.26-2.27s4.71.76,6.16,2.27c1.44,1.51,2.16,3.64,2.16,6.37v22.9h35.42v-22.9c0-2.74.72-4.86,2.16-6.37,1.44-1.51,3.49-2.27,6.16-2.27s4.82.76,6.26,2.27c1.44,1.51,2.16,3.64,2.16,6.37v60.8c0,2.74-.72,4.86-2.16,6.37-1.44,1.51-3.53,2.27-6.26,2.27s-4.72-.76-6.16-2.27c-1.44-1.51-2.16-3.63-2.16-6.37v-23.98h-35.42v23.98c0,2.74-.7,4.86-2.11,6.37-1.4,1.51-3.47,2.27-6.21,2.27Z"/>
        <path class="cls-3" d="M549.46,752.48c-2.81,0-4.97-.76-6.48-2.27-1.51-1.51-2.27-3.67-2.27-6.48v-58.64c0-2.81.76-4.97,2.27-6.48s3.67-2.27,6.48-2.27h37.69c2.16,0,3.8.56,4.91,1.67,1.12,1.12,1.67,2.72,1.67,4.81s-.56,3.8-1.67,4.91c-1.12,1.12-2.75,1.67-4.91,1.67h-30.46v17.82h27.97c2.23,0,3.9.56,5.02,1.67,1.12,1.12,1.67,2.75,1.67,4.91s-.56,3.8-1.67,4.91c-1.12,1.12-2.79,1.67-5.02,1.67h-27.97v19.01h30.46c2.16,0,3.8.56,4.91,1.67,1.12,1.12,1.67,2.72,1.67,4.81s-.56,3.8-1.67,4.91c-1.12,1.12-2.75,1.67-4.91,1.67h-37.69Z"/>
        <path class="cls-3" d="M613.82,753.45c-2.52,0-4.45-.7-5.78-2.11-1.33-1.4-2-3.4-2-5.99v-61.56c0-2.74.66-4.82,2-6.26,1.33-1.44,3.11-2.16,5.35-2.16,1.94,0,3.44.38,4.48,1.13,1.04.76,2.25,2,3.62,3.73l37.91,48.28h-2.92v-45.14c0-2.52.66-4.48,2-5.89,1.33-1.4,3.26-2.11,5.78-2.11s4.45.7,5.78,2.11c1.33,1.4,2,3.37,2,5.89v62.32c0,2.38-.61,4.27-1.84,5.67-1.23,1.4-2.88,2.11-4.97,2.11s-3.62-.4-4.81-1.19c-1.19-.79-2.47-2.05-3.83-3.78l-37.8-48.28h2.81v45.14c0,2.59-.65,4.59-1.94,5.99-1.3,1.4-3.24,2.11-5.83,2.11Z"/>
      </g>
      <g>
        <path class="cls-1" d="M761.37,398.31v.09c.43,21.86-110.97,157.72-238.38,162.02-127.37,4.3-247.8-129.01-248.76-145.57v-.09c-.43-21.86,110.96-157.71,238.37-162.01,127.37-4.3,247.81,129.01,248.77,145.56Z"/>
        <path class="cls-3" d="M712.97,318.11l.02.09c3.42,21.59-88.34,171.42-213.97,193.12-125.58,21.69-263.12-93.89-266.34-110.16l-.02-.09c-3.42-21.59,88.34-171.41,213.97-193.1,125.58-21.69,263.13,93.89,266.35,110.14Z"/>
        <circle class="cls-2" cx="472.61" cy="351.42" r="89.46"/>
        <circle class="cls-3" cx="501.97" cy="326.38" r="37.17"/>
      </g>
    </g>
  </g>
</svg>