<?xml version="1.0" encoding="UTF-8"?>
<svg id="Ebene_2" xmlns="http://www.w3.org/2000/svg" viewBox="0 0 993.93 845.39">
  <defs>
    <style>
      .cls-1 {
        fill: #f1b7a8;
      }

      .cls-2 {
        fill: #feeadc;
      }

      .cls-3 {
        fill: #f0825d;
      }
    </style>
  </defs>
  <g id="Ebene_1-2" data-name="Ebene_1">
    <g>
      <rect class="cls-2" x="0" width="993.93" height="845.39" rx="95.41" ry="95.41"/>
      <g>
        <path class="cls-3" d="M324.13,755.32c-3.02,0-6.1-.23-9.23-.7-3.13-.47-6.12-1.13-8.96-2-2.84-.86-5.38-1.94-7.61-3.24-1.58-.86-2.7-2-3.35-3.4-.65-1.4-.88-2.83-.7-4.27.18-1.44.72-2.72,1.62-3.83.9-1.12,2.05-1.84,3.46-2.16,1.4-.32,2.97-.05,4.7.81,2.95,1.66,6.17,2.88,9.67,3.67,3.49.79,6.97,1.19,10.42,1.19,5.25,0,9-.81,11.23-2.43,2.23-1.62,3.35-3.65,3.35-6.1,0-2.09-.79-3.74-2.38-4.97-1.58-1.22-4.36-2.27-8.32-3.13l-12.2-2.59c-6.91-1.44-12.04-3.91-15.39-7.4-3.35-3.49-5.02-8.08-5.02-13.77,0-3.6.76-6.88,2.27-9.83,1.51-2.95,3.63-5.51,6.37-7.67,2.74-2.16,5.99-3.82,9.77-4.97,3.78-1.15,7.94-1.73,12.47-1.73,4.03,0,7.99.49,11.88,1.46,3.89.97,7.31,2.39,10.26,4.27,1.44.86,2.43,1.96,2.97,3.29.54,1.33.72,2.66.54,4-.18,1.33-.72,2.5-1.62,3.51-.9,1.01-2.04,1.66-3.4,1.94-1.37.29-3.02-.04-4.97-.97-2.38-1.22-4.9-2.12-7.56-2.7-2.66-.58-5.4-.86-8.21-.86-3.02,0-5.6.4-7.72,1.19-2.12.79-3.74,1.91-4.86,3.35-1.12,1.44-1.67,3.1-1.67,4.97,0,2.09.76,3.78,2.27,5.08,1.51,1.3,4.14,2.34,7.88,3.13l12.2,2.59c7.06,1.51,12.31,3.94,15.77,7.29s5.18,7.76,5.18,13.23c0,3.6-.72,6.86-2.16,9.77-1.44,2.92-3.53,5.42-6.26,7.51-2.74,2.09-6.01,3.69-9.83,4.81-3.82,1.12-8.1,1.67-12.85,1.67Z"/>
        <path class="cls-3" d="M370.35,755.11c-2.74,0-4.82-.76-6.26-2.27-1.44-1.51-2.16-3.63-2.16-6.37v-59.94c0-2.81.74-4.93,2.21-6.37,1.48-1.44,3.58-2.16,6.32-2.16h26.24c8.5,0,15.05,2.14,19.66,6.43,4.61,4.29,6.91,10.24,6.91,17.87s-2.31,13.61-6.91,17.93c-4.61,4.32-11.16,6.48-19.66,6.48h-18.04v19.76c0,2.74-.7,4.86-2.11,6.37s-3.47,2.27-6.21,2.27ZM378.67,713.74h15.23c4.32,0,7.61-.97,9.88-2.92,2.27-1.94,3.4-4.79,3.4-8.53s-1.13-6.55-3.4-8.42c-2.27-1.87-5.56-2.81-9.88-2.81h-15.23v22.68Z"/>
        <path class="cls-3" d="M437.85,755.11c-2.74,0-4.83-.76-6.26-2.27-1.44-1.51-2.16-3.63-2.16-6.37v-60.8c0-2.74.72-4.86,2.16-6.37,1.44-1.51,3.53-2.27,6.26-2.27s4.71.76,6.16,2.27c1.44,1.51,2.16,3.64,2.16,6.37v60.8c0,2.74-.7,4.86-2.11,6.37-1.4,1.51-3.47,2.27-6.21,2.27Z"/>
        <path class="cls-3" d="M466.04,754.13c-2.81,0-4.97-.76-6.48-2.27-1.51-1.51-2.27-3.67-2.27-6.48v-58.64c0-2.81.76-4.97,2.27-6.48,1.51-1.51,3.67-2.27,6.48-2.27h37.69c2.16,0,3.8.56,4.91,1.67,1.12,1.12,1.67,2.72,1.67,4.81s-.56,3.8-1.67,4.91c-1.12,1.12-2.75,1.67-4.91,1.67h-30.46v17.82h27.97c2.23,0,3.9.56,5.02,1.67,1.12,1.12,1.67,2.75,1.67,4.91s-.56,3.8-1.67,4.91c-1.12,1.12-2.79,1.67-5.02,1.67h-27.97v19.01h30.46c2.16,0,3.8.56,4.91,1.67,1.12,1.12,1.67,2.72,1.67,4.81s-.56,3.8-1.67,4.91c-1.12,1.12-2.75,1.67-4.91,1.67h-37.69Z"/>
        <path class="cls-3" d="M526.95,754.13c-2.74,0-4.84-.76-6.32-2.27-1.48-1.51-2.21-3.6-2.21-6.26v-59.29c0-2.81.72-4.93,2.16-6.37,1.44-1.44,3.53-2.16,6.26-2.16s4.71.72,6.16,2.16c1.44,1.44,2.16,3.56,2.16,6.37v53.68h28.94c2.3,0,4.09.61,5.35,1.84,1.26,1.22,1.89,2.95,1.89,5.18s-.63,4.07-1.89,5.29c-1.26,1.23-3.04,1.84-5.35,1.84h-37.15Z"/>
        <path class="cls-3" d="M584.84,754.13c-2.81,0-4.97-.76-6.48-2.27-1.51-1.51-2.27-3.67-2.27-6.48v-58.64c0-2.81.76-4.97,2.27-6.48,1.51-1.51,3.67-2.27,6.48-2.27h37.69c2.16,0,3.8.56,4.91,1.67,1.12,1.12,1.67,2.72,1.67,4.81s-.56,3.8-1.67,4.91-2.75,1.67-4.91,1.67h-30.46v17.82h27.97c2.23,0,3.9.56,5.02,1.67,1.12,1.12,1.67,2.75,1.67,4.91s-.56,3.8-1.67,4.91-2.79,1.67-5.02,1.67h-27.97v19.01h30.46c2.16,0,3.8.56,4.91,1.67,1.12,1.12,1.67,2.72,1.67,4.81s-.56,3.8-1.67,4.91-2.75,1.67-4.91,1.67h-37.69Z"/>
        <path class="cls-3" d="M644.99,755.11c-2.52,0-4.45-.7-5.78-2.11-1.33-1.4-2-3.4-2-5.99v-61.56c0-2.74.67-4.82,2-6.26,1.33-1.44,3.11-2.16,5.35-2.16,1.94,0,3.44.38,4.48,1.13,1.04.76,2.25,2,3.62,3.73l37.91,48.28h-2.92v-45.14c0-2.52.66-4.48,2-5.89,1.33-1.4,3.26-2.11,5.78-2.11s4.45.7,5.78,2.11c1.33,1.4,2,3.37,2,5.89v62.32c0,2.38-.61,4.27-1.84,5.67-1.23,1.4-2.88,2.11-4.97,2.11s-3.62-.4-4.81-1.19c-1.19-.79-2.47-2.05-3.83-3.78l-37.8-48.28h2.81v45.14c0,2.59-.65,4.59-1.94,5.99s-3.24,2.11-5.83,2.11Z"/>
      </g>
      <rect class="cls-1" x="140.42" y="363.1" width="735" height="194.63" rx="97.31" ry="97.31" transform="translate(-29.71 35.06) rotate(-3.84)"/>
      <path class="cls-3" d="M340.93,353.7l124.39-71.82c1.88-1.09,2.47-3.53,1.29-5.36-25.37-39.32-69.57-65.36-119.85-65.36h0c-78.72,0-142.54,63.82-142.54,142.54h0c0,78.72,63.81,142.54,142.54,142.54h0c50.28,0,94.48-26.04,119.85-65.36,1.18-1.83.59-4.27-1.29-5.36l-124.39-71.82Z"/>
      <path class="cls-3" d="M778.84,356.64v74.65c-.07,0-.14,0-.21,0-7.43,0-13.46-6.02-13.46-13.46v-.09c-.05-7.39-6.06-13.37-13.46-13.37s-13.41,5.98-13.46,13.37v.09c0,7.43-6.03,13.46-13.46,13.46s-13.46-6.03-13.46-13.46v-.09c-.05-7.39-6.06-13.37-13.46-13.37s-13.41,5.98-13.46,13.37h-.03c0,7.43-6.02,13.46-13.46,13.46s-13.46-6.03-13.46-13.46-6.03-13.46-13.46-13.46-13.46,6.03-13.46,13.46-6.03,13.46-13.46,13.46c-.07,0-.14,0-.21,0v-74.56c0-44.71,36.25-80.97,80.97-80.97,22.36,0,42.6,9.06,57.25,23.71,14.65,14.65,23.71,34.89,23.71,57.25Z"/>
      <g>
        <circle class="cls-3" cx="521.51" cy="367.61" r="32"/>
        <path class="cls-2" d="M521.51,406.6c-21.5,0-39-17.49-39-39s17.49-39,39-39,38.99,17.49,38.99,39-17.49,39-38.99,39ZM521.51,342.61c-13.78,0-25,11.21-25,25s11.21,25,25,25,24.99-11.21,24.99-25-11.21-25-24.99-25Z"/>
      </g>
      <circle class="cls-2" cx="353.88" cy="300.45" r="11.96"/>
    </g>
  </g>
</svg>