<?xml version="1.0" encoding="UTF-8"?>
<svg id="Ebene_2" xmlns="http://www.w3.org/2000/svg" viewBox="0 0 993.93 845.39">
  <defs>
    <style>
      .cls-1 {
        fill: #f1b7a8;
      }

      .cls-2 {
        fill: #feeadc;
      }

      .cls-3 {
        fill: #f0825d;
      }
    </style>
  </defs>
  <g id="Ebene_1-2" data-name="Ebene_1">
    <g>
      <rect class="cls-2" x="0" width="993.93" height="845.39" rx="95.41" ry="95.41"/>
      <g>
        <rect class="cls-1" x="204.91" y="221.64" width="654.09" height="367.92" rx="36.32" ry="36.32" transform="translate(24.77 -30.58) rotate(3.37)"/>
        <rect class="cls-3" x="141.99" y="138.71" width="654.09" height="367.92" rx="36.32" ry="36.32" transform="translate(-34.41 56.86) rotate(-6.69)"/>
        <circle class="cls-2" cx="463.44" cy="323.28" r="104.1"/>
        <path class="cls-3" d="M518.48,312.8l-82.37-35.49c-4.55-1.96-9.51,1.74-8.93,6.66l10.45,89.08c.58,4.92,6.26,7.37,10.23,4.41l71.92-53.59c3.97-2.96,3.25-9.1-1.3-11.06Z"/>
      </g>
      <g>
        <path class="cls-3" d="M363.53,753.45c-2.31,0-4.2-.52-5.67-1.57-1.48-1.04-2.68-2.65-3.62-4.81l-27.22-60.48c-1.01-2.16-1.3-4.08-.86-5.78.43-1.69,1.33-3.02,2.7-4,1.37-.97,3.02-1.46,4.97-1.46,2.45,0,4.32.56,5.62,1.67,1.3,1.12,2.38,2.75,3.24,4.91l23.87,55.19h-5.4l23.87-55.3c.93-2.16,2.05-3.78,3.35-4.86,1.3-1.08,3.09-1.62,5.4-1.62,1.94,0,3.55.49,4.81,1.46,1.26.97,2.05,2.31,2.38,4,.32,1.69.02,3.62-.92,5.78l-27.22,60.48c-1.01,2.16-2.21,3.76-3.62,4.81-1.4,1.04-3.29,1.57-5.67,1.57Z"/>
        <path class="cls-3" d="M418.83,753.45c-2.74,0-4.82-.76-6.26-2.27-1.44-1.51-2.16-3.63-2.16-6.37v-60.8c0-2.74.72-4.86,2.16-6.37,1.44-1.51,3.53-2.27,6.26-2.27s4.71.76,6.16,2.27c1.44,1.51,2.16,3.64,2.16,6.37v60.8c0,2.74-.7,4.86-2.11,6.37-1.4,1.51-3.47,2.27-6.21,2.27Z"/>
        <path class="cls-3" d="M451.23,752.48c-2.81,0-4.97-.76-6.48-2.27-1.51-1.51-2.27-3.67-2.27-6.48v-58.64c0-2.81.76-4.97,2.27-6.48s3.67-2.27,6.48-2.27h21.06c13.03,0,23.09,3.29,30.19,9.88,7.09,6.59,10.64,15.97,10.64,28.13,0,6.12-.92,11.54-2.75,16.25-1.84,4.72-4.48,8.69-7.94,11.93-3.46,3.24-7.71,5.71-12.74,7.4-5.04,1.69-10.84,2.54-17.39,2.54h-21.06ZM459.22,738.76h12.1c4.1,0,7.67-.5,10.69-1.51,3.02-1.01,5.54-2.52,7.56-4.54,2.01-2.01,3.53-4.55,4.54-7.61,1.01-3.06,1.51-6.64,1.51-10.75,0-8.21-2.04-14.31-6.1-18.31-4.07-4-10.14-5.99-18.2-5.99h-12.1v48.71Z"/>
        <path class="cls-3" d="M534.82,752.48c-2.81,0-4.97-.76-6.48-2.27-1.51-1.51-2.27-3.67-2.27-6.48v-58.64c0-2.81.76-4.97,2.27-6.48s3.67-2.27,6.48-2.27h37.69c2.16,0,3.8.56,4.91,1.67,1.12,1.12,1.67,2.72,1.67,4.81s-.56,3.8-1.67,4.91c-1.12,1.12-2.75,1.67-4.91,1.67h-30.46v17.82h27.97c2.23,0,3.9.56,5.02,1.67,1.12,1.12,1.67,2.75,1.67,4.91s-.56,3.8-1.67,4.91c-1.12,1.12-2.79,1.67-5.02,1.67h-27.97v19.01h30.46c2.16,0,3.8.56,4.91,1.67,1.12,1.12,1.67,2.72,1.67,4.81s-.56,3.8-1.67,4.91c-1.12,1.12-2.75,1.67-4.91,1.67h-37.69Z"/>
        <path class="cls-3" d="M626.73,753.66c-7.49,0-14.06-1.64-19.71-4.91-5.65-3.28-10.04-7.87-13.18-13.77-3.13-5.9-4.7-12.78-4.7-20.63,0-5.98.88-11.36,2.65-16.15,1.76-4.79,4.3-8.89,7.61-12.31,3.31-3.42,7.29-6.06,11.93-7.94,4.64-1.87,9.77-2.81,15.39-2.81,7.63,0,14.26,1.62,19.87,4.86,5.62,3.24,9.99,7.79,13.12,13.66,3.13,5.87,4.7,12.73,4.7,20.57,0,5.98-.9,11.38-2.7,16.2-1.8,4.82-4.36,8.96-7.67,12.42-3.31,3.46-7.27,6.12-11.88,7.99-4.61,1.87-9.76,2.81-15.44,2.81ZM626.73,739.41c4.25,0,7.87-.99,10.85-2.97,2.99-1.98,5.29-4.86,6.91-8.64,1.62-3.78,2.43-8.26,2.43-13.45,0-7.92-1.77-14.06-5.29-18.41-3.53-4.36-8.5-6.53-14.9-6.53-4.18,0-7.78.97-10.8,2.92-3.02,1.94-5.33,4.79-6.91,8.53-1.58,3.74-2.38,8.25-2.38,13.5,0,7.85,1.76,13.99,5.29,18.41,3.53,4.43,8.46,6.64,14.8,6.64Z"/>
      </g>
    </g>
  </g>
</svg>