<?xml version="1.0" encoding="UTF-8"?>
<svg id="Ebene_2" xmlns="http://www.w3.org/2000/svg" viewBox="0 0 993.93 845.39">
  <defs>
    <style>
      .cls-1 {
        fill: #f1b7a8;
      }

      .cls-2 {
        fill: #feeadc;
      }

      .cls-3 {
        fill: #f0825d;
      }
    </style>
  </defs>
  <g id="Ebene_1-2" data-name="Ebene_1">
    <g>
      <rect class="cls-2" x="0" width="993.93" height="845.39" rx="95.41" ry="95.41"/>
      <g>
        <path class="cls-3" d="M280.43,753.53c-2.3,0-4.19-.52-5.67-1.57-1.48-1.04-2.68-2.65-3.62-4.81l-27.22-60.48c-1.01-2.16-1.3-4.09-.86-5.78.43-1.69,1.33-3.02,2.7-4,1.37-.97,3.02-1.46,4.97-1.46,2.45,0,4.32.56,5.62,1.67,1.3,1.12,2.38,2.75,3.24,4.91l23.87,55.19h-5.4l23.87-55.3c.93-2.16,2.05-3.78,3.35-4.86,1.29-1.08,3.09-1.62,5.4-1.62,1.94,0,3.55.49,4.81,1.46s2.05,2.31,2.38,4c.32,1.69.02,3.62-.92,5.78l-27.22,60.48c-1.01,2.16-2.21,3.76-3.62,4.81-1.4,1.04-3.29,1.57-5.67,1.57Z"/>
        <path class="cls-3" d="M356.35,753.75c-7.49,0-14.06-1.64-19.71-4.91-5.65-3.28-10.04-7.87-13.18-13.77-3.13-5.9-4.7-12.78-4.7-20.63,0-5.98.88-11.36,2.65-16.15,1.76-4.79,4.3-8.89,7.61-12.31,3.31-3.42,7.29-6.06,11.93-7.94,4.64-1.87,9.77-2.81,15.39-2.81,7.63,0,14.26,1.62,19.87,4.86,5.62,3.24,9.99,7.79,13.12,13.66,3.13,5.87,4.7,12.73,4.7,20.57,0,5.98-.9,11.38-2.7,16.2-1.8,4.82-4.36,8.96-7.67,12.42-3.31,3.46-7.27,6.12-11.88,7.99-4.61,1.87-9.76,2.81-15.44,2.81ZM356.35,739.49c4.25,0,7.87-.99,10.85-2.97,2.99-1.98,5.29-4.86,6.91-8.64s2.43-8.26,2.43-13.45c0-7.92-1.76-14.06-5.29-18.41-3.53-4.36-8.5-6.53-14.9-6.53-4.18,0-7.78.97-10.8,2.92-3.02,1.94-5.33,4.79-6.91,8.53-1.58,3.75-2.38,8.25-2.38,13.5,0,7.85,1.76,13.99,5.29,18.41,3.53,4.43,8.46,6.64,14.79,6.64Z"/>
        <path class="cls-3" d="M411.21,753.53c-2.74,0-4.82-.76-6.26-2.27-1.44-1.51-2.16-3.63-2.16-6.37v-59.94c0-2.81.74-4.93,2.21-6.37,1.47-1.44,3.58-2.16,6.32-2.16h26.24c8.5,0,15.05,2.05,19.66,6.16,4.61,4.1,6.91,9.83,6.91,17.17,0,4.75-1.04,8.86-3.13,12.31-2.09,3.46-5.09,6.12-9.02,7.99-3.92,1.87-8.73,2.81-14.42,2.81l.86-1.84h4.43c3.02,0,5.67.74,7.94,2.21,2.27,1.48,4.23,3.73,5.89,6.75l6.7,12.42c1.01,1.8,1.47,3.56,1.4,5.29-.07,1.73-.72,3.13-1.94,4.21-1.23,1.08-3.02,1.62-5.4,1.62s-4.3-.5-5.78-1.51c-1.48-1.01-2.79-2.55-3.94-4.64l-10.37-19.12c-1.08-2.01-2.39-3.38-3.94-4.1-1.55-.72-3.44-1.08-5.67-1.08h-8.21v21.82c0,2.74-.7,4.86-2.11,6.37-1.4,1.51-3.47,2.27-6.21,2.27ZM419.53,710.98h15.01c4.46,0,7.83-.9,10.1-2.7,2.27-1.8,3.4-4.5,3.4-8.1s-1.13-6.19-3.4-7.99c-2.27-1.8-5.63-2.7-10.1-2.7h-15.01v21.49Z"/>
        <path class="cls-3" d="M498.16,753.53c-2.74,0-4.82-.76-6.26-2.27-1.44-1.51-2.16-3.63-2.16-6.37v-54.65h-19.12c-2.23,0-3.96-.61-5.18-1.84-1.22-1.22-1.84-2.92-1.84-5.08s.61-3.94,1.84-5.13c1.22-1.19,2.95-1.78,5.18-1.78h54.97c2.23,0,3.96.59,5.18,1.78,1.22,1.19,1.84,2.9,1.84,5.13s-.61,3.85-1.84,5.08c-1.23,1.23-2.95,1.84-5.18,1.84h-19.12v54.65c0,2.74-.7,4.86-2.11,6.37-1.4,1.51-3.47,2.27-6.21,2.27Z"/>
        <path class="cls-3" d="M544.05,753.53c-2.74,0-4.82-.76-6.26-2.27-1.44-1.51-2.16-3.63-2.16-6.37v-59.94c0-2.81.74-4.93,2.21-6.37,1.47-1.44,3.58-2.16,6.32-2.16h26.24c8.5,0,15.05,2.05,19.66,6.16,4.61,4.1,6.91,9.83,6.91,17.17,0,4.75-1.04,8.86-3.13,12.31-2.09,3.46-5.09,6.12-9.02,7.99-3.92,1.87-8.73,2.81-14.42,2.81l.86-1.84h4.43c3.02,0,5.67.74,7.94,2.21,2.27,1.48,4.23,3.73,5.89,6.75l6.7,12.42c1.01,1.8,1.48,3.56,1.4,5.29-.07,1.73-.72,3.13-1.94,4.21-1.23,1.08-3.02,1.62-5.4,1.62s-4.3-.5-5.78-1.51c-1.48-1.01-2.79-2.55-3.94-4.64l-10.37-19.12c-1.08-2.01-2.39-3.38-3.94-4.1-1.55-.72-3.44-1.08-5.67-1.08h-8.21v21.82c0,2.74-.7,4.86-2.11,6.37-1.4,1.51-3.47,2.27-6.21,2.27ZM552.37,710.98h15.01c4.46,0,7.83-.9,10.1-2.7,2.27-1.8,3.4-4.5,3.4-8.1s-1.13-6.19-3.4-7.99c-2.27-1.8-5.63-2.7-10.1-2.7h-15.01v21.49Z"/>
        <path class="cls-3" d="M607.24,753.53c-2.02,0-3.66-.47-4.91-1.4-1.26-.94-2.05-2.2-2.38-3.78-.32-1.58-.02-3.35.92-5.29l27.65-60.59c1.15-2.45,2.52-4.23,4.1-5.35,1.58-1.12,3.42-1.67,5.51-1.67s3.92.56,5.51,1.67c1.58,1.12,2.92,2.9,4,5.35l27.86,60.59c.93,1.94,1.28,3.73,1.03,5.35-.25,1.62-.99,2.88-2.21,3.78-1.23.9-2.81,1.35-4.75,1.35-2.45,0-4.34-.58-5.67-1.73-1.33-1.15-2.5-2.95-3.51-5.4l-6.48-15.01,6.7,4.64h-45.04l6.7-4.64-6.37,15.01c-1.08,2.52-2.21,4.34-3.4,5.45-1.19,1.12-2.93,1.67-5.24,1.67ZM637.91,694.24l-13.82,32.94-2.92-4.21h33.8l-2.92,4.21-13.93-32.94h-.22Z"/>
        <path class="cls-3" d="M718.04,753.75c-8.57,0-15.82-1.62-21.76-4.86-5.94-3.24-10.46-7.78-13.55-13.61s-4.64-12.67-4.64-20.52c0-6.05.92-11.5,2.75-16.36s4.5-9,7.99-12.42c3.49-3.42,7.74-6.06,12.74-7.94,5-1.87,10.67-2.81,17.01-2.81,3.89,0,7.78.43,11.66,1.3s7.63,2.31,11.23,4.32c1.51.86,2.54,1.96,3.08,3.29.54,1.33.68,2.74.43,4.21-.25,1.48-.83,2.77-1.73,3.89-.9,1.12-2.05,1.84-3.46,2.16-1.4.32-3.01.05-4.81-.81-2.38-1.3-4.9-2.25-7.56-2.86-2.67-.61-5.58-.92-8.75-.92-5.11,0-9.4.96-12.85,2.86-3.46,1.91-6.03,4.72-7.72,8.42-1.69,3.71-2.54,8.26-2.54,13.66,0,8.14,1.96,14.29,5.89,18.47,3.92,4.18,9.74,6.26,17.44,6.26,2.59,0,5.25-.25,7.99-.76,2.74-.5,5.43-1.22,8.1-2.16l-3.13,6.8v-20.74h-9.72c-2.16,0-3.82-.54-4.97-1.62-1.15-1.08-1.73-2.56-1.73-4.43s.58-3.44,1.73-4.48c1.15-1.04,2.81-1.57,4.97-1.57h16.96c2.16,0,3.8.58,4.91,1.73,1.12,1.15,1.67,2.81,1.67,4.97v25.06c0,1.87-.36,3.46-1.08,4.75-.72,1.3-1.94,2.23-3.67,2.81-3.24,1.15-6.88,2.09-10.91,2.81-4.03.72-8.03,1.08-11.99,1.08Z"/>
      </g>
      <g>
        <rect class="cls-1" x="223.93" y="213.44" width="654.09" height="367.92" rx="36.32" ry="36.32" transform="translate(37.33 -47.2) rotate(5.08)"/>
        <rect class="cls-3" x="170.91" y="191.06" width="654.09" height="367.92" rx="36.32" ry="36.32" transform="translate(-40.31 60.58) rotate(-6.69)"/>
        <circle class="cls-2" cx="617.14" cy="347.18" r="66.17"/>
        <path class="cls-2" d="M451.19,567.72c15.8-77.19,84.1-135.26,165.96-135.26,67.22,0,125.29,39.15,152.66,95.89"/>
        <path class="cls-2" d="M360.04,487.51h-178.2s-20.06-169.6-19.88-169.62c1.25-.13,2.53-.2,3.82-.2h194.26c20.06,0,36.32,16.26,36.32,36.32v97.18c0,20.06-16.26,36.32-36.32,36.32Z"/>
      </g>
      <path class="cls-3" d="M308.49,393.57l-62.04-34.13c-6.88-3.78-15.27,1.3-15.11,9.15l1.46,70.79c.16,7.85,8.76,12.58,15.48,8.51l60.58-36.66c6.72-4.06,6.51-13.88-.36-17.66Z"/>
    </g>
  </g>
</svg>