<?xml version="1.0" encoding="UTF-8"?>
<svg id="Ebene_2" xmlns="http://www.w3.org/2000/svg" viewBox="0 0 993.93 845.39">
  <defs>
    <style>
      .cls-1 {
        fill: #f1b7a8;
      }

      .cls-2 {
        fill: #feeadc;
      }

      .cls-3 {
        fill: #f0825d;
      }
    </style>
  </defs>
  <g id="Ebene_1-2" data-name="Ebene_1">
    <g>
      <rect class="cls-2" x="0" width="993.93" height="845.39" rx="95.41" ry="95.41"/>
      <g>
        <path class="cls-3" d="M246.36,752.56c-2.16,0-3.92-.45-5.29-1.35-1.37-.9-2.29-2.12-2.75-3.67-.47-1.55-.47-3.26,0-5.13.47-1.87,1.46-3.74,2.97-5.62l39.31-51.52v5.08h-35.53c-2.38,0-4.2-.61-5.45-1.84-1.26-1.22-1.89-2.95-1.89-5.18s.63-3.94,1.89-5.13c1.26-1.19,3.08-1.78,5.45-1.78h43.42c2.23,0,4.01.45,5.35,1.35,1.33.9,2.25,2.11,2.75,3.62.5,1.51.5,3.22,0,5.13-.5,1.91-1.51,3.8-3.02,5.67l-39.31,51.41v-4.97h37.26c2.38,0,4.19.59,5.45,1.78,1.26,1.19,1.89,2.9,1.89,5.13s-.63,4.05-1.89,5.24c-1.26,1.19-3.08,1.78-5.45,1.78h-45.14Z"/>
        <path class="cls-3" d="M316.56,752.56c-2.81,0-4.97-.76-6.48-2.27-1.51-1.51-2.27-3.67-2.27-6.48v-58.64c0-2.81.76-4.97,2.27-6.48,1.51-1.51,3.67-2.27,6.48-2.27h37.69c2.16,0,3.8.56,4.91,1.67,1.12,1.12,1.67,2.72,1.67,4.81s-.56,3.8-1.67,4.91c-1.12,1.12-2.75,1.67-4.91,1.67h-30.46v17.82h27.97c2.23,0,3.9.56,5.02,1.67,1.12,1.12,1.67,2.75,1.67,4.91s-.56,3.8-1.67,4.91-2.79,1.67-5.02,1.67h-27.97v19.01h30.46c2.16,0,3.8.56,4.91,1.67,1.12,1.12,1.67,2.72,1.67,4.81s-.56,3.8-1.67,4.91c-1.12,1.12-2.75,1.67-4.91,1.67h-37.69Z"/>
        <path class="cls-3" d="M381.57,753.53c-2.74,0-4.83-.76-6.26-2.27-1.44-1.51-2.16-3.63-2.16-6.37v-60.8c0-2.74.72-4.86,2.16-6.37,1.44-1.51,3.53-2.27,6.26-2.27s4.71.76,6.16,2.27c1.44,1.51,2.16,3.64,2.16,6.37v60.8c0,2.74-.7,4.86-2.11,6.37s-3.47,2.27-6.21,2.27Z"/>
        <path class="cls-3" d="M442.16,753.75c-8.21,0-15.23-1.62-21.06-4.86s-10.31-7.79-13.45-13.66c-3.13-5.87-4.7-12.8-4.7-20.79,0-5.98.88-11.36,2.65-16.15,1.76-4.79,4.34-8.89,7.72-12.31,3.38-3.42,7.51-6.06,12.37-7.94,4.86-1.87,10.35-2.81,16.47-2.81,3.6,0,7.25.45,10.96,1.35,3.71.9,6.93,2.18,9.67,3.83,1.8,1.01,3.02,2.27,3.67,3.78.65,1.51.85,3.02.59,4.54-.25,1.51-.86,2.81-1.84,3.89-.97,1.08-2.18,1.76-3.62,2.05-1.44.29-3.06-.04-4.86-.97-2.16-1.3-4.43-2.23-6.8-2.81-2.38-.58-4.79-.86-7.24-.86-4.83,0-8.88.96-12.15,2.86-3.28,1.91-5.74,4.66-7.4,8.26-1.66,3.6-2.48,8.03-2.48,13.28s.83,9.61,2.48,13.28,4.12,6.46,7.4,8.37c3.28,1.91,7.33,2.86,12.15,2.86,2.3,0,4.66-.29,7.07-.86,2.41-.58,4.73-1.47,6.97-2.7,1.87-.93,3.55-1.28,5.02-1.03,1.47.25,2.7.9,3.67,1.94.97,1.04,1.58,2.29,1.84,3.73.25,1.44.09,2.88-.49,4.32-.58,1.44-1.66,2.67-3.24,3.67-2.67,1.8-5.94,3.21-9.83,4.21-3.89,1.01-7.74,1.51-11.56,1.51Z"/>
        <path class="cls-3" d="M487.52,753.53c-2.74,0-4.82-.76-6.26-2.27-1.44-1.51-2.16-3.63-2.16-6.37v-60.8c0-2.74.72-4.86,2.16-6.37,1.44-1.51,3.53-2.27,6.26-2.27s4.71.76,6.16,2.27c1.44,1.51,2.16,3.64,2.16,6.37v22.9h35.42v-22.9c0-2.74.72-4.86,2.16-6.37,1.44-1.51,3.49-2.27,6.16-2.27s4.82.76,6.26,2.27c1.44,1.51,2.16,3.64,2.16,6.37v60.8c0,2.74-.72,4.86-2.16,6.37-1.44,1.51-3.53,2.27-6.26,2.27s-4.72-.76-6.16-2.27c-1.44-1.51-2.16-3.63-2.16-6.37v-23.98h-35.42v23.98c0,2.74-.7,4.86-2.11,6.37-1.4,1.51-3.47,2.27-6.21,2.27Z"/>
        <path class="cls-3" d="M571.11,753.53c-2.52,0-4.45-.7-5.78-2.11-1.33-1.4-2-3.4-2-5.99v-61.56c0-2.74.66-4.82,2-6.26,1.33-1.44,3.11-2.16,5.35-2.16,1.94,0,3.44.38,4.48,1.13,1.04.76,2.25,2,3.62,3.73l37.91,48.28h-2.92v-45.14c0-2.52.67-4.48,2-5.89,1.33-1.4,3.26-2.11,5.78-2.11s4.45.7,5.78,2.11c1.33,1.4,2,3.37,2,5.89v62.32c0,2.38-.61,4.27-1.84,5.67-1.22,1.4-2.88,2.11-4.97,2.11s-3.62-.4-4.81-1.19c-1.19-.79-2.47-2.05-3.83-3.78l-37.8-48.28h2.81v45.14c0,2.59-.65,4.59-1.94,5.99s-3.24,2.11-5.83,2.11Z"/>
        <path class="cls-3" d="M653.41,752.56c-2.81,0-4.97-.76-6.48-2.27-1.51-1.51-2.27-3.67-2.27-6.48v-58.64c0-2.81.76-4.97,2.27-6.48s3.67-2.27,6.48-2.27h37.69c2.16,0,3.8.56,4.91,1.67,1.12,1.12,1.67,2.72,1.67,4.81s-.56,3.8-1.67,4.91-2.75,1.67-4.91,1.67h-30.46v17.82h27.97c2.23,0,3.91.56,5.02,1.67,1.12,1.12,1.67,2.75,1.67,4.91s-.56,3.8-1.67,4.91-2.79,1.67-5.02,1.67h-27.97v19.01h30.46c2.16,0,3.8.56,4.91,1.67,1.12,1.12,1.67,2.72,1.67,4.81s-.56,3.8-1.67,4.91-2.75,1.67-4.91,1.67h-37.69Z"/>
        <path class="cls-3" d="M717.78,753.53c-2.52,0-4.45-.7-5.78-2.11-1.33-1.4-2-3.4-2-5.99v-61.56c0-2.74.67-4.82,2-6.26,1.33-1.44,3.11-2.16,5.35-2.16,1.94,0,3.44.38,4.48,1.13,1.04.76,2.25,2,3.62,3.73l37.91,48.28h-2.92v-45.14c0-2.52.67-4.48,2-5.89,1.33-1.4,3.26-2.11,5.78-2.11s4.45.7,5.78,2.11c1.33,1.4,2,3.37,2,5.89v62.32c0,2.38-.61,4.27-1.84,5.67-1.23,1.4-2.88,2.11-4.97,2.11s-3.62-.4-4.81-1.19c-1.19-.79-2.47-2.05-3.83-3.78l-37.8-48.28h2.81v45.14c0,2.59-.65,4.59-1.94,5.99-1.29,1.4-3.24,2.11-5.83,2.11Z"/>
      </g>
      <g>
        <circle class="cls-1" cx="640.09" cy="371.85" r="189.48"/>
        <g>
          <polygon class="cls-2" points="435.66 443.29 396.68 524.92 423.89 555.07 504.55 567.42 435.66 443.29"/>
          <path class="cls-3" d="M888.93,335.98l-63.39-111.28c-3.56-6.24-11.5-8.42-17.74-4.87l-372.4,212.13c-2.16,1.23-3.89,3.09-4.97,5.32l-50.48,104.65h0l-1.39,2.89c-1.32,2.73-1.06,5.69.27,8.03,1.34,2.35,3.75,4.07,6.77,4.33l3.2.27h0l115.76,9.95c2.47.21,4.95-.33,7.11-1.56l372.4-212.13c6.24-3.56,8.42-11.5,4.87-17.74ZM439.39,550.84l-27.94-49.05,21.44-44.44,55.66,97.72-49.16-4.23Z"/>
        </g>
        <path class="cls-3" d="M219.86,557.34c-7.89,0-23.79-.77-27.32-12.49-6.09-20.19,34.23-50.32,133.04-114.58l7.84-5.1c7.62-4.96,11.41-8.28,13.28-10.26-4.37-1.01-14.88-1.95-40.03.02-24.14,1.89-54.96,5.84-87.59,10.02-11.76,1.51-23.93,3.06-35.96,4.55-30.34,3.74-44.16,1.05-47.71-9.29-3.49-10.17,3.71-22.86,50.34-54.63,31.12-21.21,74.13-47.11,123.04-76.31,28.24-16.87,48.92-31.18,61.47-42.55,13.66-12.38,12.98-17,12.97-17.04-.03-.06-4.12-5.99-36.04-3.65-22.59,1.66-52.94,6.99-87.77,15.43-60.88,14.75-135.98,32.77-136.73,32.95-4.03.97-8.08-1.52-9.04-5.54-.97-4.03,1.52-8.08,5.54-9.04.75-.18,75.84-18.19,136.7-32.94,35.77-8.67,67.07-14.14,90.5-15.83,30.12-2.18,46.23,1.94,50.73,12.96,6.91,16.9-17.21,40.26-80.63,78.14-46.31,27.65-87.12,52.21-117.61,72.67-16.27,10.92-28.24,19.75-36.61,27.02-8.34,7.24-11.14,11.3-12.07,13.13,2.59.9,10.23,2.23,31.09-.34,12-1.48,24.15-3.04,35.89-4.54,35.32-4.52,68.68-8.8,93.96-10.5,34.51-2.33,48,.25,51.54,9.88,3.8,10.34-7.88,19.71-21.06,28.3l-7.85,5.11c-28.97,18.84-61.8,40.2-86.94,59-35.7,26.7-39.48,36.3-39.84,38.45.97.59,4.45,2.13,14.57,2.03,62.71-.57,92.46,0,92.75,0,4.14.08,7.43,3.51,7.35,7.65-.08,4.14-3.51,7.47-7.65,7.35-.29,0-29.86-.57-92.31,0-.54,0-1.15,0-1.82,0Z"/>
      </g>
    </g>
  </g>
</svg>